<mxfile host="drawio-plugin" modified="2024-07-28T21:30:54.245Z" agent="Mozilla/5.0 (Macintosh; Intel Mac OS X 10_15_7) AppleWebKit/537.36 (KHTML, like Gecko) Chrome/122.0.0.0 Safari/537.36" version="22.1.22" etag="ArPZPhip1q-gM8zJF4Iq" type="embed">
  <diagram id="si7zJ39dpIKTHoklTKSc" name="Page-1">
    <mxGraphModel dx="849" dy="664" grid="1" gridSize="10" guides="1" tooltips="1" connect="1" arrows="1" fold="1" page="1" pageScale="1" pageWidth="850" pageHeight="1100" math="0" shadow="0">
      <root>
        <mxCell id="0" />
        <mxCell id="1" parent="0" />
        <mxCell id="2" value="" style="shape=image;verticalLabelPosition=bottom;labelBackgroundColor=default;verticalAlign=top;aspect=fixed;imageAspect=0;image=data:image/png,iVBORw0KGgoAAAANSUhEUgAABLAAAAIGCAYAAABEYnadAAAAAXNSR0IArs4c6QAAIABJREFUeF7svQecXmWZuH2d8tYpmfTeKxB6FUREkCqKKFgQXQsqll3Xsqv/9fv2p8uuu37qWpZ1l2VXQWmrCNKVTijSIRAIJBDTk+kz78xbT/l/93Pek3kzmUAySSYzk/v4GyfJnPI81/PM4Zzrve/7scIwDNFNCSgBJaAElIASUAJKQAkoASWgBJSAElACSkAJDFMClgqsYToy2iwloASUgBJQAkpACSgBJaAElIASUAJKQAkoAUNABZZOBCWgBJSAElACSkAJKAEloASUgBJQAkpACSiBYU1ABdawHh5tnBJQAkpACSgBJaAElIASUAJKQAkoASWgBJSACiydA0pACSgBJaAElIASUAJKQAkoASWgBJSAElACw5qACqxhPTzaOCWgBJSAElACSkAJKAEloASUgBJQAkpACSgBFVg6B5SAElACSkAJKAEloASUgBJQAkpACSgBJaAEhjUBFVjDeni0cUpACSgBJaAElIASUAIjikAIxF/9G26NqJ5oY5WAEhhOBOS+IpsFoRVimfuJ3lSG0xBpW/Y9ARVY+56xXkEJKAEloASUgBJQAkpgNBKQF8r+748+hMUAgvhts2YffdccjbNA+6QE9i2BWIhbFmE5hIyFnQBcuaHoTWXfwtezDzcCKrCG24hoe5SAElACSkAJKAEloARGJoEwklfP/MNVlDZ34ASWeb30pTfyB1tfNkfmwGqrlcB+JBCCHYQEjkPO9vEXTOScr30SXPVX+3FU9NL7iYAKrP0EXi+rBJSAElACSkAJKAElMMoIiMDqDdjwjV8QbGgjURVYcS+tKOdHNyWgBJTAbhGQICzPhq5EQMv8Bk797mWQFCm+W6fRnZXAiCegAmvED6F2QAkoASWgBJSAElACSmBYEJC3zJ6Alq9dg7WuDTcEpzaTUAXWsBgmbYQSGEkETAahBYEFXcmAzQvqOeHyz0NKBdZIGkdt694hoAJr73DUsygBJaAElIASUAJKQAkc6ASqAqv1q9dgr2/DDbavUKMRWAf6BNH+K4HdJxA78MCG7oTPpgV1HP+PX1CBtfso9YhRQEAF1igYRO2CElACSkAJKAEloASUwDAgUCOwnKrAqm2VCqxhMEbaBCUwwgjIbUXklXzPicBaWMfxl6vAGmHDqM3dSwRUYO0lkHoaJaAElIASUAJKQAkogQOXgFmQsCqw2r76K5y17Tj9cKjAOnDnh/ZcCQyWQEhIYMv/xwKrnuMvvwzSWsR9sEz1uJFLQAXWyB07bbkSUAJKQAkoASWgBJTAMCFgBJa0JRcgAstd275DfWUVWMNksLQZSmAEEYgisIKqwAqqEVgqsEbQEGpT9yIBFVh7EaaeSgkoASWgBJSAElACSuDAJKAC68Acd+21EtjXBFRg7WvCev6RREAF1kgaLW2rElACSkAJKAEloASUwLAkMFoFlokqk1XQhiX1A6NROgbDb5xrfx/i8dlXrVSBta/I6nlHIgEVWCNx1LTNSkAJKAEloASUgBJQAsOKwHAWWIN92ZYX89qX86Af8f5Sy9pFzRVud9btr7Grg7rjteMjd1cnvLWa689vsDx3tW+1+9WOQS3/qCLSrm1WP95vdVTtud+c5u6y3lGGvtkZ4h7ubJ/tf75rPKK9dpfIju0Oq40yde+q2+BovNVoRPJYUwjfmpPucWAQUIF1YIyz9lIJKAEloASUgBJQAkpgHxIYjgJroFf6nb1kD/TvRp5UTyIv7G8tsPr2eHP5IKqr74r9RdlAw9S/LzsXWPZujrKcaefyY6DrDCSw3kqyRNpkRxGys8bG+/Yfg/ja4Q6jsfMzxbpmVxRPJK/69nxzKbMj6/59rD1+INKDFVg7jkHf3Ot/ze3J9M092W/b7+0AEmqgOWf60K/bVhCN7b4SWNI0X2tg7ebvte4+WgmowBqtI6v9UgJKQAkoASWgBJSAEhgyAvtbYIVhiG3bBGH02i3CqTY6JAbxZgKrVj7E4sT8WxidL7C2Vz39JYJVlSqW7CvHbJMCEZ3txcL2IqFW2PQftIHEx84Flhw9sMQaWOi9ucAaSDztDYFlRFEIOyvsv4PACsGR8Q0iUROKNdmFLZDBYFdj46RJ/QRW1fLE80u+9207F1gDybo9EVh94k66Y2GF4bY5Hl1rYIG1I6LtebyZwKpO/W2nMPNf+m9HM32btAqiGacCaxcmpO6iBPaQgAqsPQSohysBJaAElIASUAJKQAkogf0lsOSl2YgrP8B2bCpVa2VetOVdu5+12WmklWVDKKEkFpb8ubqFgW/+LRYXtafbUSL1SQTbshB5Engelm0bMWLaWhVZ0kwRApGNwewX2haO6w44mUSgxX2SHWr7IX8WYRbH09i2a5gYqyAYgpAg8AcUDLsSlSRnth3HyCM/CMRfmOvV6hvp70DbziK4/KqAcW0HS87pumYM4632bPEYWrZFpVKJGFnRqnQDXlPOvU007V5sUH+BJWMv88qreLiug+8HNdFGAwusWH7K+Jp+xrKnyiisCqj+47izu4hIWa86N2UfJ+ESegHOdvPgzQWWXFOYWI4jjRIbiFcomXPtbOziyRmnVMp8roQ+eL75HXES0oK+zQ5kdu+bTSOw9g1XPevII6ACa+SNmbZYCSgBJaAElIASUAJKYJgR2F8CK8Yg1/dt8C3wCHGwSIhkMe/1fa/V/WNxjOgQ0SByoSp8oiMkhKt6pAmdCWsiukRG7RjVE4hUEdFUTTf0qpd2g+hYETHSrv4v+YEVRdOEoWW+y7adnKmec5uUqbZHzmUHFsa9mePj4+xqeEz1WvKDuA0DiKadq6eoj54dxfeIrnD6hRH1F2m103IgwWSkjg0VieIRvkGI6wUkLcfIvdqt729hFFnn2lQ8Hz8UeSVfO15BeixRXSK7jHwKLRLbTOFb/9JsJ7BEQAYBgWNRdEIjbewgNAxkLO3QjnjUbOb61ZZJC71qtJJMLTe08EUkSruqfX0r4ROfXsYgmhvbQsJwq5FPA6WA1kaAmTGUOWZEqoynZbgn3ARUPCw/xDVSbaAwKiEdEJjfLYm8kr9b5u9mPhsOYSRmA3vbr1Dtb9zeWAJBBdZbz13d48AgoALrwBhn7aUSUAJKQAkoASWgBJTAPiSwvwSWXDewbfKuj9eQJDGu3kQ+JXxwt3Rj5X3c0BaXUY3K6YtUkZfxshsQjqujnHLMcSbapyp5JEvN8zyCUsVIlkTZJ1k2wT/mhb9Wnon4KDkhxURAKWkT1KVINdbT1DQWq1Smu6UNv7OXTDkk6UeaQ4SBpMIVnAC/IYWdzeKbvLqa6KzqRSJnFekMSR9z/JBsMYSuohFBpaxFkE0S2JaJqJGoL+mpybjzTEewyx5JDxyPSH5URczAUWlRzFjBCcmlQ9ITx2CFNmk/xM5VoKdg5JmIi6hdO4/lEs4VO6TiQilh4zemyIxrIjumwTQw39JO2FnAKZQNZ8ezcOXMoVCKIq3KdkgpaxM2ZgmEVzWuKRZO2/Wh2hSRlynfIt1aMgx27GdVBtX8Xkikkm8FBJZPRfyOFWI31eGPbyBblyVhufS2tVPozJEoeKRKkPQjmRVFisUWNKTsBBTrE3gZkXM2Y4IEXmtX1Ldgx/pT24swOY+ooxAvYVHI2NhjG5DAuoTt4jd3kuit4FTrT+2MvsjCkhNQStuULEg0NZAZN5Z0JkWpK0extRurp0i6GJASAVUjsczvlhXg2YEReKW0g+c4ZMeNITt+DI4FhdZOCs0dpCohybJIYxm3WmUc9WNPNxVYe0pQjx8tBFRgjZaR1H4oASWgBJSAElACSkAJ7DcCQyWwapVD/GfPTbC5qULjeUcx9dRjI4dQgcodL9H1u8fIhg6EEpfV92JtvI4dsLGuxMJvf5zE9LHRe7Z81dgAc0yuQri1g8Ir6yk9s5pgYwdpX6JvIskjkkHkQG6MTbB4EpNOOZLswulYaUnPkrilkEAih15vpeuRFwmXb8DtyJMIQipOQOvEFFM/fS7Z+VP6xi/KN9y+OnbcLvleCAiWraHrhvsoOz7eyfOY/sFToT5p+l5bVVuyz8h5WFtb6Fm5icKzr8OmbtyyjyQsxlFEkZOLNI+IDN+xaE1VsE5dyIz3vAOrPo3lA0+uoeXqu6grClcnijcKtxdEEmUkEUMimnotj8L4FMyfzPijF1G/ZBZWQxbbjVLwJL2R3pBg1SY6nl5B+NoWEp0V3LzQ9U3R8FzKxz9iOtM/fR4k49C4GkaxQ4uLM8mJRTa2FMj9+FbC5i7Tzz6JJdFIsSCLwNo4VByLcsInXx8SLJzA5GMOIr1gDozNYls2MpwmKqvoEa7eTPtjLxOu2oTbUSZZkSgkCQUMCRzoSVTg5AVM+sA7sTMp2Fqh5fJfkM0H1cjAOAVvoEiySPyUbZ+OjMe4959E47uPjgSmZPH94QXytz6Jk6+YiK6BBJaPTT7h0zvOJTxsJjNPPd7Mc8tysByLMAgIix7eC+voXLYCZ+VmUh7YkiZZjbby3JCudEBp+hjqj1/MxOOOwK5zo7GTc5R9wvYC3Y++SOHJ10hu6iHhiQiWiLV4EqvA2m83Zr3wqCOgAmvUDal2SAkoASWgBJSAElACSmCoCQyFwKpNi4r/LIIknwjZMifJQV+7kNSsyVHXPSi/2EzrD26mrquMI5KkZpOopYrls7qpyOHfu5T0zEmRuCqJjKnm4sVCxxQbknCTkPC1rXT9bhne8g2kq+mJZRc6U5A4fSnTzj4OZ2qjuZLUKZKTWq6kJ1bz8Lo9eu9dTsdND1GXD020T/OUFLO+9H7qF03bFpZjitAn++pY4YlRqqkMXwzwH3yDjv+5k4LrUzpjHgs+eiaMyYo1MtfeVsTeFGWyjHCgBMErW2i96ym8p18jXYREteZXn8CKilxVUg4b6kvM/voFNBw+1xTvNpFD6/Ksv/wXjGkuY/muiQjbIcpGIpkc6HQrlGY0MuHcExh3+AKs8dm+IKW45pWk+5mwMyDvU1y+js6blpFY10VCUtxCi65MQOnIqcz7ywuxElGKpEmpk3JYCROGFx1froY2GTMGbOql63s3ETZ3botWiqZBJLAi4KLgbELLoTNVoWdSkmlnH0PT2w7CGlcfrQZgbFwUDSbyJzJGFnSUKa5cR9ftjxO81kJdkMDyQgI7MOcqnbaAeRefjZtNEayvsPHvrqCx28cxS/nFVawGEjwSQRdQcCtsnASHfO1jpA6aGs3NsgXre+n6p+uwNudwJU1xu+LyUQRfMQnt412mXfAOGt++FDKuGddQ5pEglH5IHzwIt+Rp/9+HsJ54nWwlkltlyyeX9sgvnsisj55Jev7kaA5VpMZYYP5sOdU6YCLVnl1Lxw0PkljThSu5vNFvQc3X4O9KGoE1eHZ65OgioAJrdI2n9kYJKAEloASUgBJQAkpgPxAYCoFVVQbbIqnkmpLi1ZGp4J84l4V/9QFTJ8kIB8+C5jz5qx6i57FXqKuWHI8jVbYTWP9cFVh5n/KK9ZQ3tOGKL5L0sfokiZmTcGZMwEqKAIDyS1tp/9HvSHcUjVDoyUJ+0UQWfOWD2OMz5t/8DV30LF9Jb1eOuhmTqD9iIU6T/MyCLo/Sb58gd8cTpoB5Rz1R1NbUcVENLyuk1w1oOG4RmQmNRhiIHOlZswHL83GCkFTJJ1zVQc8Tr9KTCCiIwPr42VgNaSMj2p55iUSvZ2KMnLosqSnjsedNxm5wBRrh6+20/9ftWKtaSEq40HabyByLNoneWTSGBd/6IMnxDVFNMAGYC/CuW0b3nc+RqIg42lHACLveVEjbtAxzP3kODUtnR74mgCBfJtySw//zJgqVEtlJE7DnTjGsrZRtIqf8zUW6/u03+Ku2kvJdSgkozGxiyimH4JkUQig7Fj3jXWa//Ugj12gtknthFVZXgdAPcP2AVJdHz/0vE3YXTVRZbRqhkVbVmDPPsukRETnLZd5n3kfdoilRpJcfEuYrBM09eOs2UswXyEwejzNnCs64bHS0+K1VrTT/z50k3ugkURKBFdKZKlM6bWGfwNpQYcO3rmBMzsM1kWtvJrAsI1hFghVPns+CvzgXd2zGeDpJGyQHxSvuIr/sFRKeFGffPkHSs0O21HmMe+/xTPrAKZLzSlgKCF7bQvera/FCjzHzp+MePBM7k4j6sCFP549vw3q1mYRt0ZvwaJ1kM/tz76fusJmRGO2tUFy+hs41a0mOyTDmqINxpzRBUgbEInjkdXL/86CJWpR6YVFFungdyJ2nmb7VLUsF1lsR0p8fKARUYB0oI639VAJKQAkoASWgBJSAEthnBIZKYMUdkNd1eY8vOgEbx3jMvfQcxkiUibwylwu4qTQUofCHV8j9+l7qirX6SyJUQhNhsnpMoS8Cq7VIx7X30f74SlIiwGwo2pDPQMNJBzH3o2dAxoG2gI7rHqV899MkHdg6JqDpopOYcvYJplGF5ZvYdM0dOFu7EU1RSIWU5zQx/2PnkpEoKxE0r7XT9U834BQqeARUEpZJaZR6UmU7oCXts+CvL2LC4fOgGFL63TOsuf1BkpXAyDU3sKmr2Ni+RXcqpOfMeSy65GysuhTBi82s+MHVNPSI7LIoOzb5lEVy8RRmXHw6dXOmGDb+3S/R+us/UleKomiilK9IhFSwWJet0HTBMcz64ElIRyuFMol0lKIYrOqk7fJrSHdJhFQkgmq3YiKkZUqWiR85mYlvOygSTF1lSsvX03LbI1S2tuOUPHM5aV9hYobxpx/D1HcdiVWXMJFiJhLrP+8ktbWAaycouQ5lt4zRV1ZIzoWtSxp557cvjeTYKy38+crbCDa0mRphkjKYCGxSku5ZXSEvnjdRW6v9DUUYhmwdYzPj0tMZf+JBUcRaZ4Xep1aR/+OT5Da3kvAkJgrKSRtvbB0N7z6KaaccbsSbVLoPX95C289uxWnJm8M7UmXKpy1k/sfOxs2kCHZHYIUhRbtCc2PIxMvOZcKJB5top6BYxpYxKEP+/lXk/usu0vmKLCq4XQV2qXu1dorFor+9hPo5k4x86r7jWTpvfgRbovAI6Uz7ZE5czPyPnIadTRvm3o1P0Xnr40Y+5VIVvBNnM/sTZ+M21RO2l9l65e2UX1xnir8X7YDCpAwzzn8H4085PPqFbPfp/uGtVF7eQFJSLo1qjLfBpxKqwNpnt2498QgjoAJrhA2YNlcJKAEloASUgBJQAkpg+BEYSoG1LX3Qgt5EyNbFDSz+8gfITInqWC1/cBmHnXICOAnC1zpo+cnvyWzsNoW245QmicAqWwGrx+Q5/HufJT1jAmwt0nvNg5QeWWkKrYvgKImASnhsmBiy4PPvZcKRiyAP3bc9R/l/H8MJKmwc7zPvGxeSPWgWdHp03PIn8rc/SbYkxcilKLhDcyLPhDOOYdz574qa0FKk96rbKK9aT9J1TV0lidyKBJbP5qzH9G99iHFHzjepi+XfPkfbzQ+YIvAmAgfHyDEfi45USP7M+Sy+5CysbIrw+TbW/PMvGdsT4AaiECwKCZ+Oep/EOUcy74J34aSSeK90se5b/8HkILPdhDLpZ7bP+ikuMz91DhOPm28EyIpHn+WQEw4HR3IDPXI/uYXKC+tIWQlT40uISUqn1IrqdDys9x3NjEtOidLOegJyNzxE7yOvkuoom1XwpNaSiC3bselNhrSNCUifcgjzPnRGlGZYCqj8chk9D76EXZQVJav1tuQqkt6WCFi/tI63ffezkcB6uZ2tV9xJYl0LrqTJRQmcxp1FZfOjrU+jSO0oWVEvoD3rUTphHksufS9W1jWyrfm3D5G//yXqcxJgJGNjmXpcEp1WTNpszVYYf8ZRzDz/HeA6kA8p3/YCPbcsw/Z82lNlKoMUWH7o0+mWKS4cx6y/+gCZmRNMJN6r9z7G4nefFGVcrmqn99/vxntjC5JFWbsV3IDWIycy78vvJzW2EXpg3XeuoX51J65n1q8k7/jkJiaYcvG7qT9krlnC039pC11X3gCeT1cixP3ICcw890STAhs8v4nX/vVGxudCkpZroh87bY/EosnM/uR7YbxEC4oEe5zc/U+bhQKiEVCBNfzu2NqikUpABdZIHTlttxJQAkpACSgBJaAElMCwITBUAivSErLyXWBS7bqz4L1nKfMuPBXbTZgonEfvup1DP3gmjXOnQWdI889vIfnkOtxAXtxDU7PJtywjilaNKXCECKzp46GlRP7qhygte4WkL9EjlolEKjhFNk6GCR99B7OlSHwvdN76LP5vHsPxyqwd73Pw3/8FiVnjTXH19tuepnDTY9SXbXNNO0hQcDy6Mj69jTYJy6GuZJHpLuKWAmSNumiLelexfTbVVZgaC6x8SOU3z9N58wNky6FJhQslukUyJe2QdhFYZ8xjySXnYGVShC+08ed/voaxOZ+EpAeGFiXXpztbof1ts1j6qfNJNmTx1/fS8v9eTUNbxdRMilbRi1InO1MeG+dkOPb/fBK3KQub8jx5453MOulgppxwsJF4nTc/iXfL46RKIqOi9QBlbIqOT3FGPeO+9B6yS6Yb8eI9tob2X91Lur1MshRdQ8KU5JsU/C7bHj1Jn/zYFBNPWordWI9dCXE2Fij86SUSZVm5z6x5GJXNtwJ63IC1S7Mc+51PR5JsRQetV9xNYl2zicCKsvuiYuK1CXaxwDKVu0RGuRXaJ7vM/8bFpOZONLKu+PhqOq7+A8nWMmmp8xXFfW3bJECvx63gTWxg7IkH4dSlsMsWdkuZ8qMvEpZKtKcqVYF1Fm4mTbChvMsphBJn1lbvY5+8mPmfPAeSLuXXt7Dit3ez5ENnkJknczsg94v7KT/yolkFMFZFkqWadwM6jpvC/EvfR3JCvRmv9ZdfR/LlLSa6MBG6lMOAYgq6xqUIk45ZAbK+1yfVWzSrJnYlwbnkbcw49zgjGoMXNvLqj37L+JxNIvBxcCn5HsW0Rb4pZYr+ZwKHpm4Pp1iJisGbEZNt8NFXZk5KdKJkTiYCNi2s4/jLL4P0dkFnw+ZeqA1RAvuSgAqsfUlXz60ElIASUAJKQAkoASVwQBAYOoElIsE1sUdGykxKMfbSU5l47NIoZfDq+3j52eeYdsE7mXra0aaadeX+l+m+8h6SFVk5MHqX9m2bkh2wqinPkVLEffo4aC3R9euH6X74RVJ+FLNTsST9rkRubj0HfemiSHS1+7T/ahk88DyuFbC+scLUL57HuGMOimTR6hbafnUvwetbSRZCkmESUS+VsGzqGomwkXbYllUtLB4JrJhhJLDKTNtOYL2wTWBJBFYgReGN7AroSEoNLInAOhs7kzYCa01VYIlAk3CmkkTb1FXoOm0Bh1x8LolUCm99Lxv/9j8Zn7dNbSU7iJLqyk5IS51H6ryjmHXRaaaIeunRN1h53V2wZBKHf/GDxhx4K7aQ+/ldOFs6TbSNKSRuOzS7Rey3z2fOpe+BxrSJbOu6/Hr8TT0ky2BLKp5EMlX9g7AQoSUyTsRQxQ6rQs0i61vYRlzFkk+uLNFqgan9tXZpHcd9V1IIbVjRTusVd+Cua6lGqUW/ehIRVrvVqhTPllS/Ehw9kzlfvRA7mTDRSu3f/x3+838mHYjKibbaBQ5NdSdb5lFoIpFCKxrTpOdghy6hRHVti8A6c7cElllLwPLZMtFm0idOY9KphxkBtem2x2i/70nqzzqGOe87ydQy8+57jY5r7yHbWSJaB9LCl7RXN2Dz3BQHfeMjZGVuVyB/3yu03vQQTkcPCRGhnkw6Gy+RNHydQCL2AiOvsGy6kz7+WUuY+aFTsOtThDmP1useIvfISlLlCqmK1OMSmQwlxzbzJxFCSmSmkYahKfovEW57uqnA2lOCevxoIaACa7SMpPZDCSgBJaAElIASUAJKYL8RGAqBFUXRBHi4BLakaFXoPWgSS//qAuzGBmgr0vnDm9i4Zg11b1/CzE+fg5PJEm4tk/vO9YSbO0mEjpFavm31CSwp4j51HHSX6bz9KTY/s5K0KUBtUbAt/HEp5pxxHA1HLjBpVqWn19P1X3eRaO3BsUNa6z049RDmXHIWdnWlt2BznuKTL9Py3OtkWvPY3QXCHlkNEZPeJvEkEikj0iOWM/KaL7LkrQWWpL1FkS0isDprBVZWBFYrr33/FzSYFELHyIRe1yc3DiZ99lymHn2wiTLyn9tM649upL63Om2sKLJN6ldtmuqw9JufwJ451qwM2PPrx9hw7+NUpjey+OsXkpw6HnIh7T++Bf+5NaR86UuA7yRYX1cie/6xzL3onUbohSu30vXdGwnzUXsc3x9AYMXxZwZxFDFlFsurTf6L2hn9rEZgfefSqHj/ijZar7izKrDieDALawCBFUdkSb2xzdkyje87gZkfPSW6+OYKW/6fX5Bu6cU1Sx0OvG1bX8+siBhFxtnSXxwjtgYrsCQaruD4bJ6d5tBvfRxnegPhpjybr7yL7hdeo3LULA7+4gdw6tLQ7NP8w+vJvrrVzKNIYolQCtja5DPjM+cx5uQlZmIJ/+D1Flofe5bcq+up7/Rw2ssEFQvHsnCNWK3WBbNsim5I++I6Zl96LumFUR2tsL2Ct3Ijmx9fjrdmK4m2XpIlWVXRIRHIOeRCcfpmNFYy2/d0U4G1pwT1+NFCQAXWaBlJ7YcSUAJKQAkoASWgBJTAfiMwdAJLXodtPMdjU4NH8tyjWfjh000B6soLG8hf8Xt6i3maxzks+MZHqJ87GQrg3/g0+T88jd0TFR2PBJbHqqYiR4rAmhFFqdBWgkI5egmXr0wK6lOQkbysMr3PryF38+Ok3ujEqUg6ok8+Cx1NFpMuOIWxJx+GJUW943f2XECwdjO5NzZTWb0Vb9VGEq29JgpJBI0Irb0usN5oZ+WvbyVbMjlyhK6DM6GB9BFzmHDsYqxkCnoDeq6+l+LDL5MtVkWDJVFiAbl0SO9JM1j8xQ+Z2lIi49r++UbKG9vpbXRovPQ0ppx4qBEa3p0r2HrtPdR9zLSQAAAgAElEQVQVouidkm2zfkzA2ItPZvYZx5s+eg+soPfndxOWbFzLxQl844lqI7BE2sRCKJ7E1Rie7dL/9rrAcgLWN3iMvfidzJJUOZkDz22k46e3Y3fkq0Jn579WfcXrowQ+iUjybaea2hnXwNq9CCyJRmvL+KTPPpypl5xmirdXnt9M209+R6WrSMtkhyXfuJjsnIlRsfsbHiF/8xOkZWXDICSUdD9Jr0169MxtYvYnzyGzZFpUSN9UoQe6igRrNtO9agvlVzdQ/PMWkrkiWc/GsRNGekpkWXNdkfq3L2HaB9+FNb4uOocxZCFszVFcs5Hcig2UV63D3tJJXdHGMbmWUth/x6pjg71BqcAaLDk9brQRUIE12kZU+6MElIASUAJKQAkoASUw5AT2tcCKIjn6tkKiwvomj8V/czF1B8+CLp/8bc9SvnkZgR+wKeMz7uJTmXb2ceaFvfjcBnp/fAvJLg/HcvCkBpbjsWpsKRJYM8dV8+eq14gvJiFR8iVph1u6aL7xHkpPvsHYQoqE7xBUPEIXCumA1kaL1FFzmX/eu2ByY3Q+yeCLG9/tE2zqoPPGByiu+DOZsqQQiqaJktT2OALro2diN2ahEuDnK6b2kzg4ywux69yo0LhsvSFd962g68Z7qMv7pELHRIKJ1CsEHt0NFvWffAeTpd6XCKhH19L889+RKoZUGly63zWPhbLioXBc28Pmf/oVdS0FkkFA0XVYNzZkyl+cxrR3RCvT5f74LP5/3Y9VdnAsSTWTGmR9Y1nFa/6hbx3E6OdhTepgfMTejMCSSKX1TQETLjmVGWcdbdJQuWc5Hb98mGQxIPSj2ks7j8OKW9UnsLw9FFhlO2Tt2JDFf3sx2aWTjSgsXf8kXf/7KEGQoDmZZ+7HT6Xh3KMgdCg/s4XW799IfcHDtqMxlvZKUmFPBnomZBh76lImn3oC9phEH2TZVaKquiuUlq+j7fo/mHFMeK4RYRJFJrXJujIB/tyJzPrAu8gcMjuqNxYPlMl3DAk6SpT/8CTd9z1DusfHljxGiZ+TFSo1hXDI78d6wdFLQAXW6B1b7ZkSUAJKQAkoASWgBJTAEBHY1wKrTxNEoqcjXaFy5GTmfOH9JMY2EKzvpe371+Gu6zbFwVvTPrmjZ3LUly6ElAObcnT88A6CVZtJhZJqhamhtXpMVWBNmwAln56Vm8lv6cIOZT29gDCZxG1IMmbmBJxJjQQ5n+Ldz5G/42lSXR5Jk6IXUrJ9SlKXK2NRGpMgM2cSqSXTcWdPpmHaeJzxTaZdeCFBc4n2a/6A9cRqE60SF3HfY4F18VnYDRkjJbZZl9ryT+WA3pfWU37iDfKPv0qiM09Y8UglEiQC8ByLghvSMyHFlK+9l/qFM6KC9T+7jdJTq0mWQ4pSOH1+kmP/7lKcpgzkKhR/Iav1LTd1sCquzfp6j7Effjuzz5Li3zaVR1bS9dM7SRSivpoi7DVCMvJ7ssKgKc8frVxnarxHJdv766N4nx7XZ+3Seo4bZAphlIIZmki+po+cyozzjgGpC/XsRtp/eivJropZLTEuj14rUPvmY9Rq6VFV2SBl+XeWQrj+//wbTd0+rkRLbbObsb6Mzir1q5qPmsLiL55PYpyE91XY9IMbcJ7fimNn6MoUaV2Q5ahvfpxEUx2s7yX383vwl68x9b7MCo/VFSpJyWqB0G2XCSc2ULdwGs7Bs8hMH0d2xkSsxmQ0EsUQ/9UtdF/9R4JVLaRImH7LQEiaaiVlkc/auFPHkT1kDtaCidTPmExywlhI2ODKL2WF3vtfpvybh0l2V7BMH0Vg1Za/H9wNSSOwBsdNjxp9BFRgjb4x1R4pASWgBJSAElACSkAJDDGBoRJYkmomKwhuaCgz+eLTmHj64ViOQ/nx11h9xW9pKiVM2FMuGdI9Lc1Bn30v9UtmQiEkf9VDlJe9jN1bMZqk6PqsaipxjCniPoGwrUjLtffR+thLyFmknpCkg5FxYMEE5n/kDFKzJkGHR8evH8Ze9gr0ekYaSE0qfA8SFl4ipBBUzPmDMSnsKWPIHDqHKe8+HkeEQwnCVe10/PQWrM0dJETehFGlINE1cQ2s6VLE/aj5IKsQ/m9tEfed1MD62FnYdRlTL+nPD/yJwPeYeuzBZJfMMJFgfkeeDf/yv/BaM/V+Klo5UGSHFHCXvoYBbSmf8Lh5LLjsvViZBKztYN0PbyDR3IMd2hRCny1jysz62JlMPfVoLM+i/MgbdFxxqynqLX3YWO+Res9RLLroVCOwwpe30PwP15ERgSVV2gcIZwpMyqVl0uUk/U0in6JsNYlPs0xUnRRq7yt3L6sQhoMWWHJmWclQIsFaswGN73sbkz/8NlO8nK0eW751FXWtFRMtVruCXpTA2vcv8lMJNpL2yTxwjJSSFNV+NbCyaYL1Zdb+n58xtjswAisK7ZMvicLzTL0w8WdddSH+RUcz54KTjcTjydW8/t+3k24ukSBhVmt8vb7C4X/9YSYtnQfdAZ23P0vlpkdIehLhFmCFgcmGNHIqiIxmOe1STFp4bojVWE95ehPjTz2UiccfFEVVlaF013I6r7mXurK0S1ZwDE1dNCmNFVQj7PIpKGQDEpPGYc+dyszTjyG5cGI0e1s9Sv/xB3qffJWkH62AGTnIPauDpQJriG/oerlhS0AF1rAdGm2YElACSkAJKAEloASUwEghMFQCS3iUHIv1s9PM/9L7aFg0xSDq+NPL9Cx/g0RZYk9sKjYUUwFNJyxm0tL5ILLmsY20/vddpFsLBFKs3PFZ3VTi6KrAoqVE9zX3Ulj2CglJfTJRQVIPqMKWhgrhKYs47GPnmYLhwRPr6L3qHgI5l6QjiiQIKlgOJBzHRGb5+JStgKJVoaspJHnSYhZe8h6Qle62erT/x93wzKukrQS+FDavDrZXXYVwtwWWrEIoouT5Flb87AYol7APm8lBn38ftqwG2BvS/Ztl5O58imwhWgYwinGyzEqDskLi5gk24z96ClNOP8p4h95XNtD1yHLskhepJMum0ynizx3HkjPfYf4tXN1F+7/fgfXGViwvoDlRhpPms/Cz78GuT5vC323/eB32Gx0kK+KIImmzXVKoWYkQSrYViT8rNGOQEifoR8XFRRL2xWPtucAycVMWZhXH8Ni5zPrrqrTLQ+u//Ibg2Y1kfdFnspmy+1FSozghCaazLTwnNBFTnuXjBjZpzyXpuyZyabsi7jIuG8qs/ea/MTYXVgWWnLeaZmeJVLXJOwG56RmmXnY2dYfNNlfuenQFuRfXkBE5JeLVsuhIQ/0R85l1zCIjnvzlm+iSul2teRMMJXKuYAUELjiOhVWW8XNJOAnwPPzAoTMT0DklydQLT2by8YdguQ7eqi5a/uFq6rplNoZUHFn10zfXNemuVhLPlxRQkX8WhaYkvbPqmXvZuTSYKEao/P5FWq+/j6wUhzdhhbG0HLzEUoE1Uv5LoO3c1wRUYO1rwnp+JaAElIASUAJKQAkogVFPYCgElogEEQe9kmJ1/HSWfumCvpo+EroiISdxnpfsHAe4yBt9pQwdCdp+fBOJ5ZuwJJrElhTCIkcagTURWkvkpLD5spUkAhEXDlaYJLQ9tmSL9B46kSO/dBFWXRbW9ZL74c3461opuTaZJTMJExa2JSmCnTibu01UlSQiVrwS5bRP88wUi7/8IbLzZ0I7tF37MOEfniJrJQh830TfSLP3VGCFz7fyxo+ux80X6Wi0mPiBk5n+7uOiFMYNXWz46U2kX283gshgkpXjgJ5EhU1z61j6rY+TnFgt2C0Fv2PvIGylkSlzELjVouDdAe3XPkj4hxdwyyF5x6NnVgNTvnQODZKGGNiET62n7co7SLSVDFfTljAwpzF6yAroTYT0jE0y9rhDCOvqcHyLxKYugqdW4JRMtXuzxUJpTyKwoukRrQaZT1q0TEyy8JsXkZw7ATyL4p9W0/E/95JsLZEyc6EqGMXFyCqSkm6ZCCmOS5M6fiFkXJwwSbLFI1z2IviySmZNEfeqwPrz317BuB5qBFbE37c8fMemLelTPGoah/zlBdCYiOazjEHk0Pqi12KTJxmAEmDVWqHz/7sJ78UNpG3XpP0Vm5Ik50w08zIZ2JRXbiDZIysGRlGKJcenJVMif/wsDv7ke0g11uFv6KXl8mtJbckTWD7+jCaSE+vN5d3eCt2rtxhJ51oOFT+gkrZpSRdp+vxZzHjbIabmVfnhDbT87Lc0VCxM+SsVWKP+/q8dHDoCKrCGjrVeSQkoASWgBJSAElACSmCUEhgKgSUro0nES2u6QsMl72DKOdEqd6Gs6Fdd1c/grZVYEgzj2phiUxWXys3PkbvhERJeSAmP15uKHF4jsLp/dR89D71MyrdJiAGzk/iJgPWpXsrHzOCYL10EbhJW5+j58c1U1jfT0ZRi9pcvwpk3zly++/EX6f3lvSQkpa4cmIitglOkeW6Wg7/yEepmToc2n7b//CPOk68YWRbJrmjbGwJr3Q+uo6HXp8up0DaviYMuO5+62ZOMgCo9vIqW//w9DYWQdDKFZ6JzLLbWVUicsZTpnzwbS1LKih5hlIe2/RKB4p5ssBIWltQXK4L/2Gqaf/Z70kXb1ATrygY45y5l1kfOMGmElAI6f/0wnQ88TyofkLLdKBWvXMG2LEoJn9Ymi+S7lrLw/dVjyiHeNcvoffAFnEpEJ55nEj21pwLL1K6yPCq2RVs6pHL8bA76wvnYKRe6fZpvfIjee5+nqSyVu0IjGW3bEu9GKWGZ9tadehhz3n+KSW8kD97vnqX7jsdM6uEOAmtTmTe+8VMmlhPYIuTMZplV/yzPp+TChroiTRefzIzz3hb1V/aTORQXDatJvwzTUcajlXSjMfj9C2y97j4ynqTHBliHzmTyx8+EiXVYRej+71spPLWalJc0EqtglejIehROmsvBn3gPyfos3hs5Nn/nl9R1+RSdAPfCE5l0+pFGVgZb8qz9/i9o6PRJhC5lKZ2VgtZUibGffjezTjwCiRGr3PUq7b+8m3rPMpmDwbY6bBqBNUpv/9qtISSgAmsIYeullIASUAJKQAkoASWgBEYngaEQWKIwelMBzZNdDvvmx7FnNUGPR+7+F8i9ts5E88Tv95IaJiJFSi7VHzWPpnceihXYeC+00PWjW3B7i5T8Cqubihz1vc+RnjYO2ku0/eo+tj72Cknfxpa0NSnQngypzBvDrIveybhD50PRxnvqDYr/80e89h42Z30mfeJ0xp9+dBT1tbmbtuvvp+PpV3E9qTlk0V0f0nTGEcz74OmRddjYQ/v3f4+7thVL6jtVN/nTWwos066olLlE2nQmAwpnLGCxSSFMET7fxqZ/uZbGfEDJCtic8Rj//pOYdtFJJoon7CiTu/oB/GUvkixLMJSNZ8OacR5zLzufxuMXGeFUeW4NzY88g1NlIU0UHkK56IQkFkxlyruPxkmnCbYU2fr3v8TdnCctP3dDmicnmfbx0xl7/BJMUbGWCl1PrCS37AXym1pM0ffA88y17eljaDhhCZPPPAG7Lmmi6bwXt5C/6h7Y0GZWSYwDkEzyoURsOXtSAyuq8RRaHoFlk3dDWhpg+iXvZMIpR5gxCrt8Cn9aQdeyl+hYuxE3jIrLly2wp46n7sRFzDj9GOxxGRMlFa5sp+PHvyfcnDM+qz1TE4FVl8bfXOalb/2Iuk6PtJMidKTgum361lBx6U0EbJoQsvibHyI7b6pZTbLn/hfpeekNs0804vL/0SqaRbtC8vDZTD3xMOx0guD1bjZc/ivq2kqUHZ+2KQnm/+3HyMybEK1k+NQbbLz2j3iburADh4LtUZmaYe7Hz6Tp8AVYlou37A1afn4LmaJtBJZ36nymXfJu7KYsFALaf/8YLXc/QTofULYdelMh7pJJzP/UeWQmNxmJV7jqAXrve4FMIPW4ohph0aYCa3Te/bVXQ0lABdZQ0tZrKQEloASUgBJQAkpACYxKAkMhsCR9sC3tUT5lPos++15TvL2yto3OH99GsKnLyCsnqBactgLKVkgx8OiYP4aj//7TkRhZn6f7v+6j/OIbeKHH62PKHP3PnyM9fRz0+iYFq7y23dSEMoLDtQgnNeHOaiI1szHK4dpaouPqewkfX4kbWnQkQ/IHTWDJFy7Amtxo3tOD5l5KL23C2thMkEnBkimkFk3CSSdNRE3lpqfpvuUJksUAz/NwrKi+kdRBKtsem+pKbKuB1RtSufF5Om95kEylWg9KUvCMwIIuSTs7YyGLLjnbFF4PX+hg87/8iqaewMgDSblsn5Fm4Vc+QGLOZCOH/Jc20nHFbSS29OBaLvlEwNbDx7HgsveRHj+GoMNj8w9vhNe3YpfCKBUsImKS73qSHt1TUiz4+odpnDMVcj6VW6TQ/DLTRpPqmbLZPMVm7qfPY+zhs6MookqI39ZLuSMPzd2EpRLB2AYSM8eYVDUrKdXmgQ0ltlxxC+nXtphouVh/xC5EUg7zRmA1RqsQSk30FW20XXEn7vqWavH1qDy6CLrarU+jCEMfE9lnQd72aJ2TZvGnzicjhe8l9c20N08p10vYnMPKFwibGnCmN5Ge0gipKI0yXN1J1y/vxXthAwnbRRJCO1NlvNMWM+9jZ+JKLbAun9xdj5IsheBIaKA02sUiQem+Z2nOt5M4bh4zLj0LJ5sh7PRo/c6v8NaLwItqUsnKftJZQZRPBbTPGcPSr11IelKjqXGW/497KT60Qn4R2Joq0HDe8cz48LsjeSRBiBu6qLy6jrCtG5rqsZfOIj2zKWLUWqLzilvh5U04Rak1F7B5ks/8z7yP7BELIGUT9ngUX9uEtabVLBIQTG4iedA0kuPrzfiWn/kzPVfdj92cI+FHKYSRwKpdd3L3b4FaA2v3mekRo5OACqzROa7aKyWgBJSAElACSkAJKIEhJLC3BdYAC9VRdgLaG0Mmfek8Go5aaGoVlR58jc5f3EmqGBX4jiqTV4WHRE9ZPhvHwqIvXkDDkdGKfr33LCd/40OERY81DRWO+N7nSM1sqgoWSUes5iDG79wmBbFaeWlLjtwDr1C47U9kCp6J0pLUr850QOrUg5l69gm4U8dGkViS+iWpjSKb5BxSM6q3QvHxV+m4/gGyHb55wa+WUa+2XwRWmS3ZMlO/+SHGLp1TXYXwObpuX0bai/aOeEtlppCcCKx3L2b+JWeCCKzlHWz8wbU05qTeEVSsgNY6n/IJc1nyKSmsnoKegPxvn6D3lj+RMqs2+gQXHMWM89+OlXDwn29l7Q+uY1wpwJYF8iT6KPYQOKYAfnN9iXEffQfTzn6bGYtgTQ+t//QrEp0lHFPXKaAr7ZOfXs+kc09kzGHzSIyr65uVlWpqnLCt8iXnUXppI62/fYjkhk4yZVlRb/uJbNYFlCLlTsCGg0VOXgppYHkbnVfcgbWuGceKCtOLhKq2/E1/G6JzStqfR8+kNNPPOoHG4xbjjm/sqzcvKxKG1Zke13XKlSiu2kLPbY8TvLKZdCmC5ElkXOr/r4d12kHMuegMHInSEgdVlrzSmpUY5XQF6Pnpb1mzfh1TP3wmE0471Fif8Il1tP7s96QKMsrR/6RelkwtKXhfdi02pX3mfek9NLwt+n2o3L+Gnv+8zYjcnFuhfbzL5PNOZMLJR0TjLoNY9kGi/kRaiTCU6LaNOXrufYHKvc+RKIWmGL8wzqXLFBZPYsZFZ5BZMjXavyKTSsZOftfkHDaST1h5ZROdv3kce+UmEl70KxBteyav5AwqsIbwZq6XGtYEVGAN6+HRxikBJaAElIASUAJKQAmMBAJDIbAkIsSfPZaxXz0fR8RCEYpX3k3xyddw5Y2+ZrOkmLpJxwtozQQk33EIsz96ZrTHqjY6r7wDf2s7LfUB8/7+UpLTGvryD2Wf+HRyku4StOcob2il6/EVhK9vJZXzzAprIpFkF1mtraM+JLV4JvVHLaTp0AUwLhvJK3mB7/Xw1zXT+acVVJ5+jVRHxaxUGF0ovlhUWtyzPNrTZcZ/5YM0HjoLiiH+716g685lpEQYbEs5lMpMIQXXo/yuJUz/0OmQcglXdLL1p9eTzVfM6n2y5RI+nU0Jpn3qLBoPk1UZIVyXo/Afd1He3E65zqLxi2eSPnSOaW7h5mfpvvVx6ioS9RPFXYkKiqimjJzqdIvkj5zC4i9+BFva1evR+/M7qLy0Flf6Zkldr4CeVEBnvUVm8QzGH7aAxkWzsaY0YRm5JMtKhtBZoPz6Rlqff53Eq5vxt3aRtZIkwoDQRB/1bfK3wPYpy9gubGLJtz8VpSi+2EL3f96J09xp6mqJdIvXWdzV36GSHdBr+xQbE7gLJzPuyIWMWTQPpo+JJJucUyRVV4FwzUZan15J5eW1JDtKpri5FDEXRr4dkkt4pE5ewoQL34U1piqw4rlVO12LkPvxjbQVe5n+yffhzhqPVQ7JXfkHgsdfxzUSNBoDmU/mUMuiIteQVQbfMZ9pnzwn8kSru+j5+e2wtcNIn55EVMw9tXQ2E485hNTCmVBXLaLvh9Aq3NeTe+Rlwle3kM57ZixD3zfjXaJCdyakPLWRhuMWM/mEw7AmNEEiWsXSSNqt3XQ/9yrFx1Zir8+R9rf/VdqT1MF43FRg7eoM1v1GOwEVWKN9hLV/SkAJKAEloASUgBJQAvucwFAILEkJzGcsuidlTNpXpgJNLQVcSXHr18M45kNEgtTyKWQTlCfVEQYBdSWoay1hlyp02RUKs5qoJCyqrqevCrwJy/FJlH0yFYtUPiSZr5AILGx5+d8mnuTiAZUwoJy2yGccCg0J/IxD0/hxeMUSxfYc2V6fVHeZlG+RtBNgCpP3E1iBY+SMrAjYPjmDl7VJexbjOyyczh6k9LmoDIlKihyIFLb3aRtrU2mS6lMWDV02yY5ekhKtJfuJ7CCkxypTmNqAl02YqKSGkkOmrYRdlBXwfDonpqjU2bhBSFNHiNuRJ4VtzhEFQRkgJoVNRJusYtdeH1AcnzY/yVZgTEdAstfHlRUOLcsUPg+ckKIdUHEDSnUJSg1JgroUmfo6U/+r3J03hd2TPR5Wb4k0DkEpIOEmkGQ8qZpeG4QVCywRRe11UJhUb+rEN3SHZNrLpCuBufZgBJZJ1JOswFBWUwwoZmy8sRlK9Q6ZxgYcWVWys8ekAaa6i7i5Eq6PkZESjScpfjLnfIn+swOzCmRpbBYrWV2RT3qybbJGddZkhcC6de0UUja9YzL4jkWj5ZBpLpDp8UnIqEqUVNUZxVM9tC1KNuQaQ4rjkwSuS0MXNHSUcfIVMz+k2H4F3/SlPDZr2FOfIJ1JE+bL2J0lUh1FEiWPZGDhmOhDSbuMRJn0w7MCipZPOWvTm3XwG1NkGutI2AlKnb24eZ9sRwGnNyBtJUxUoeXYBNVxixTvnm0qsPaMnx49egiowBo9Y6k9UQJKQAkoASWgBJSAEthPBPa9wIrifySZyrND82LuBJaRSTvbaqWHHC2Fx82qb6GFW10aTWRDyQ4J4iJP/U5mh5K2hRENcpz8L4q82n6xw0glRfLDs0ITHWMSv6StUuVI5IB8bctw3LHdUQ0vEVgiDUJKjmdkiB3YpKoFseOjaoWd9KrkSN2pSBRI31zDJTZPslSdZEb6BLKanBul18m1ZLU8I7nC6HqeIyl7FilPiouL1JN9+0iKwDEpeYFtInwk8qzsRNFBwkVkjFzfrqY5mtRDU3A+MP2KhEhUFymeM3KcXEvS44RRnAwqlxH+/SN4otZIhBBG4EgdMFdaFVimJpnpU7VGWJQ+uPM50n/uSDtjMSgZg3Ju6adEksXFyN0QEn7E2axkaIc40ufqPPFt22QJSqF5M7dq+PTNmnjGRMdJ1FLZsahYkYyVmleShinndUIvStULRApGNd5iQSvXkWg4aWPZskiGtqk95VTHTDCISJJ2ViT7z+RjynwHO4jkmZkrcWRXPNZhVGtN+iz6UK4hUY2+qRfWN68l4kzamPZlxHfcojFWgbWfbst62VFIQAXWKBxU7ZISUAJKQAkoASWgBJTA0BLY9wIr6k+tOKoVVAP1Nn55NpohjOoGReEvkf7pO772rLVn2v7FeyBpVbt3/HM577Zi4zU77IpGkeNMhJGIjDAqhm4kgVE2fVtU8L3/1Xe8QiyQZE8/9KNUv36RYzEVuXIUgSRRV30iqfY6cb8iDSItklpXUU2nWOxFrYroh6G/TSbFrTVKKvZKQcQqbnl0rYjkQOqpbwyisRHdI18RD0MOS8yT1Kja6Vl2/rsh55KzyFlFvJiyV+bvQXX+iFSL4+aiaDiRcn0rYFYJVVNHZbVIw7caeNV/hAJzpYhB7WyL9pNRF6Em8XNxP3eUQRGz6DzR/nK9auScHY1pH99Y0EXpryKxamVi3NZaSRYLQ5GwIr6icvKRrBXBSeDg9hO6sWCLRlMF1s5nnP5ECeweARVYu8dL91YCSkAJKAEloASUgBJQAjsQGDqBNXBMR3+ZFcVrxRWQopie6KU60iK1+1vm5X+gl+w+nRK9iMd7bYsR2sYh7n983lrRs+vTJTo6fvkXfREXII9bGJ8/jhLqu972fdrxmjGPah3ympZX/dM2Rn0xSLEEinauFUrVOCzTvu3bFPcgPqJau2mAOKhtc6amsf3HsX9qaN+uMauoSPv2SrKPY1/Ld20UQklfNLqo2o9t9beq1qqmgRKVF5qopCqbmg5Fc2r7qw/UFyPzqu3fvu8xbemdxPJF/Yxp14qw7WdpPMP7xi7+PYgJxEIpirwTgRUvCrC9SOxrT/S7IdGDfWKrtiW10Vd9R/X1v/+o7tpY1O6lKYS7z0yPGJ0EVGCNznHVXikBJaAElIASUAJKQAkMIYG9LbB23vQoPqb/tv0rcq1WGViB7M4rdZ8siGsxDZwutee4B+5bdN6BBNvO9U5Vv7xJ8txA+mjgHsR77iyC7M1ZxqsA9kX+7IzT7oyJnKN/3NzOU9h2Z2R2VkIrQbAAACAASURBVE1t4HNEUnNHofnW/HelTTuLDNyVY7ffZ3vhFSvSmOGbzaO+ffvOOFBsXBwTuLujuGt9UYG1a5x0r9FPQAXW6B9j7aESUAJKQAkoASWgBJTAPiYwdAJrVzuyc0GzO6/Y20uRHWONdrU1e77f7gusN7/mrgus+DxvlgI5MNOdxRztuPfujMnO+rUrKZpvPQ673ua3Ptdw3WMgKfVWEqu2L3uH9O7QUYG1O7R039FMQAXWaB5d7ZsSUAJKQAkoASWgBJTAkBAYfgJr4G7vjigZ+tf0NxuqkSawBorSifu3szpOezZV98547Uzk7Hkdpz3r3d48encF1t689uDOpQJrcNz0qNFHQAXW6BtT7ZESUAJKQAkoASWgBJTAEBNQgbWvgavAeivCKrDeilD8cxVYu0pK91MCw42ACqzhNiLaHiWgBJSAElACSkAJKIERR2BXBJZdXZFtxHVuvzd4IOEgjXqzKKe3aPTuZxBGVxsghC0u7L39FXfWtp31Zb9DrjZgtEdg7YO5tA+HLp5uGoG1DyHrqUcUARVYI2q4tLFKQAkoASWgBJSAElACw5GA8SHyfz0BrV+9BndtG7KKXryJzrB3J39vOHZS27QbBKxoybodysjL0nfDOB0vFIHVP5bLLNdXXR9yNxDorntMYNuqh5ZFYEN3ImDzgjqO+8fLIAVmuPpteycSb4+bridQAvuEgAqsfYJVT6oElIASUAJKQAkoASVwIBGoFVhtX70GZ20bbhWAvPsPFLlzIPE5MPu6s3UBhzuNkdru4c51EO0TDyrq0Jb1HqE7GQmsY/5JBdYgaOoho4CACqxRMIjaBSWgBJSAElACSkAJKIH9S+AtBdZO0s/2b6v16kpACQxnAtvSU2OBJRFYC+s4WiKw0hqBNZzHTtu2bwiowNo3XPWsSkAJKAEloASUgBJQAgcQgW0Cqzeg5avXYK9rww36krF2Vj/pAEKkXVUCSmAwBMzNoy8Ca9PCOo7VFMLBkNRjRgEBFVijYBC1C0pACSgBJaAElIASUALDg0DYE7Dp69fgrmvDqZY6iishaRrh8BgjbYUSGGkEJIVQ7iNxCuEJscAaINtTa2CNtNHV9u4OARVYu0NL91UCSkAJKAEloASUgBJQAm9CIMwHvPitqwg3tpmi7fHLpL5U6rRRAkpgsASsagRW3gnomNvIGd/9EiSievv914bQe81gKetxI4GACqyRMEraRiWgBJSAElACSkAJKIFhSqD29dECH/xcidDXJQeH6YBps5TAiCMgUipe1DJ0IVGXhgFWIBxxHdMGK4HdJKACazeB6e5KQAkoASWgBJSAElACSqCPQD+Bpd5KJ4cSUAL7kkBNiJWpvbcvr6XnVgLDjIAKrGE2INocJaAElIASUAJKQAkogZFEoJ/AkqarxBpJA6htVQIjh0A/eSUNV4E1coZPW7rnBFRg7TlDPYMSUAJKQAkoASWgBJTAAUtgAIF1wLLQjisBJTAUBPSuMxSU9RrDkYAKrOE4KtomJaAElIASUAJKQAkogRFCQF8lR8hAaTOVwMgm0C9fML7zaATWyB5Wbf3uEVCBtXu8dG8loASUgBJQAkpACSgBJVBDQAWWTgcloASUgBJQAkNBQAXWUFDWaygBJaAElIASUAJKQAkoASWgBJSAElACSkAJDJqACqxBo9MDlYASUAJKQAkoASWgBJSAElACSkAJKAEloASGgoAKrKGgrNdQAkpACSgBJaAElIASUAJKQAkoASWgBJSAEhg0ARVYg0anByoBJaAElIASUAJKQAkoASWgBJSAElACSkAJDAUBFVhDQVmvoQSUgBJQAkpACSgBJaAElIASUAJKQAkoASUwaAIqsAaNTg9UAkpACSgBJaAElIASUAJKQAkoASWgBJSAEhgKAiqwhoKyXkMJKAEloASUgBJQAkpACSgBJaAElIASUAJKYNAEVGANGp0eqASUgBJQAkpACSgBJaAElIASUAJKQAkoASUwFARUYA0FZb2GElACSkAJKAEloASUgBJQAkpACSgBJaAElMCgCajAGjQ6PVAJKAEloASUgBJQAkpACSgBJaAElIASUAJKYCgIqMAaCsp6DSWgBJSAElACSkAJKAEloASUgBJQAkpACSiBQRNQgTVodHqgElACSkAJKAEloASUgBJQAkpACSgBJaAElMBQEFCBNRSU9RpKQAkoASWgBJSAElACSkAJKAEloASUgBJQAoMmoAJr0OiG/sAwDLEsa1AXfrNj5We6KQElMHwJDPb3Pu7Rntw7hi8VbZkSUAJKYHgTiO+9/b/vaqsHej7b0/8e7Oq1dT8loAT2PQF9Ptv3jPUKo4+ACqwRNKb9H4CCIDBCq7m5mS1bttDR0UFbWxu9vb0Ui0V6enoolUrIfr7vm+9yDvku/y5/Vnk1giaANvWAJSC/5/FLi3xPJpPYtm14JBIJ0um0+ZJ/HzNmDPX19TQ1NTF16lQmT55MJpPZtr8+LB2w00g7rgSUwBATqH3Gknt3/PfOzk7z3CbPbPIVP6/J93w+b57TZJNnOXl+k2PluU02FVhDPIh6OSWwFwjI85nrutue2+Tv8twmz3B1dXU0NjYyduxY88w2YcIE8+f4OS++vD6/7YWB0FOMCgIqsEbIMMpNSx5quru7WbduHc8++yxPPfUUa9eupaWlZZu0KpfLyFelUjEPPbUPT/Gf+4srlVgjZBJoMw9oArUvLf2FljzkyFcst+TBSL6y2ax5KJo5cyaHHXYYRx99NAsWLGDixInm3+XBSV+GDuhppZ1XAkpgHxGQZyt5Huvq6jKy6vnnnzdfL7/8svngMZfLUSgUzPNa/NwWf+AYNyn+4FE/cNxHg6SnVQJDRCB+RosltPzdcRxzdRFb8YeR8oGjfMkHkPLcdvDBB3PMMccYsSXPbalUSp/bhmjM9DLDl4AKrOE7NqZl8tAin9SJrHr44Ye59957eeaZZ7Z9IlcrpWojNGqlVPxy219Uqbga5oOvzVMCu0BgIEm9s8PkHjFu3DhOPfVU3vnOd3LiiSeyZMkS8ylgfL+JH6524dK6ixJQAkpACVSf1eJnsPgDxxdffJHHHnuM++67z3wXYRWLKPkuz2Y7ew7TDxZ0WimB0UsgjqSKozJrP5Ssldax9JIPI0866SROPvlk8yViq6GhwQDqH6U1eqlpz5RAHwEVWMN4NsgnczfeeCNXXXUVK1asMNFXtcIqbrpEVyxcuJAZM2aYr/Hjx5sbW2zqY5svERlykxTjL1+1N8xhjEGbpgSUQA2B+BP6OC1YUk7kXiERmpJG3Nraar42b95s7htr1qwxn+7HaSixqJJP/CZNmmRk1je/+U0OOeQQc3/R+4JONyWgBJTA4AjIPfSBBx7gX//1X80Hj5IeGJduqJVVkuotz22zZs0yEbJyL5aUIXl2kxTwOLUoTv+On9vil1UVXIMbHz1KCewPAnE0pud55vLyzCbpwfJdghTa29u3Pbe99tprrFq1yvx7fM+Q3395hpNNykNIRNZf/uVfcu6556rA2h8Dqtfc7wRUYO33IdixASKqHn30UX7605/yyCOPmBuc3LhEQEn6jzz0HHnkkRx++OEcddRRRlTVSqk44krOHL+M9n8p1YefYTjw2iQlsIsE+kddxfVS5Hv86V0suOQh6Y033uCFF14w6SsitV599VXzYiX7isiSlMLPfe5zXHjhhSxevFgfiHZxHHQ3JaAElIAQkHvpk08+yX//939z6623bru/yvPY9OnTOeigg1i6dClHHHGEiZ6QDxvl3ht/mFibBq7PbTqnlMDoI9D/ua02GrO2VrE8u8nXxo0bzfPac889h0RzynPb+vXrEQkm9w4RWSKw5NntuOOO0+e20TdltEdvQkAF1jCZHnHkw9atW/ne977Htddea4x8fMM7/fTTueiiizj22GOZPXu2+ZSuNp96d7uh6YO7S0z3VwLDh8BgBHT8sCS1WOTTvbvvvptf//rX5iEpTmeRGlnf+ta3OOecc4wwr90Gc83hQ0xbogSUgBLYuwTi5yiJfhVxJR86yocF8b1y0aJFXHLJJZx22mnmg0dJ35Ytft6LWxPfm2Nx1f/ne7fVejYloASGA4Ha97CdPV/F9wKJxlq9ejXLli0zz23yYWScfihRnF/84he59NJLzbthbTmZ4dBPbYMS2BcEVGDtC6qDOKfYdom2uvzyy02tBHkgkjDy448/ni984QuccMIJJkpCU/8GAVcPUQJKYAcCIshFXt1www1cf/315pM9uQ9JodDLLruMz3/+82YlnHjTOgs6iZSAElACfQTk5VLSfX74wx+acg9S40oKMUvR5Y997GO8//3vN2mB8qWbElACSmBPCUhE/YYNG/jjH//I1VdfzfLly83qpLKK4Qc/+EG+/vWvm/tP/KHknl5Pj1cCw5WACqxhMDISDio3o2984xusXLnStGjatGl85Stf4eKLLzYvlLLpDWkYDJY2QQmMMgJSH0tSX370ox9xxx13mPB0KRj6gQ98wESDSm2WeKWcUdZ17Y4SUAJKYFAE5HlM0nr+5m/+xjy/SdSDfOj4F3/xF3z2s581L5GyxVES8Z8HdTE9SAkoASVQTVWOIzVfeeUVrrzySn75y1+aelnyIaMsziNC/dBDD9XnNp0xo5qACqz9PLyyfPLNN99srLlYdbkByQoT3/3ud03UlXyaF8uruKmayrOfB00vrwRGIQEp/C6h6d/5zndMJIHci84//3x+9rOfGYkuNRo0CmsUDrx2SQkogd0iIJGqTz/9NF/+8pd59tlnzYeLIvrlxfG8884zIqv2OU1TAncLr+6sBJTAmxCovZ9Ito588PjVr36VTZs2maOkPvLPf/5zU3JG0wlHxlSK69jqM/auj5cKrF1ntdf3lMgHWV5ZHoKkboIU5TvzzDPN6jXz58/f4QFIBdZeHwI9oRJQAtXoTgEh96SbbrqJb3/726xdu9Z8gie1937yk59sq9+iAl2njBJQAgcqAYlQlXujRFr96U9/2vbC+O///u9mUZ04WlXvkwfqDNF+K4GhIxCvcCqF3qUOlgh1kSFS1P26664zNZNlq70f6b1p6MZnd6+kH3bsOjEVWLvOaq/uKZNUivFJfStJG5S/f+ITnzApO1Lrqr+F3ZVif3u1gXoyJaAEDjgCcp+R6IJ77rmHz3zmM0jBdxHrslzz3/3d35lVb3RTAkpACRyoBOTDRln168EHHzT3SlkRWlJ4JGVQU60P1Fmh/VYC+4dALDxEWklKodQvlVXsRVJJNs8vfvELI7E0lXn/jM+uXFX+OyKRdPKsLYsn6X9HdoUaqMDaNU57ba/4ZrNu3TpTJ0EisGTSylKoUoNGVpPQTQkoASWwPwjE9ycpCnr77bfzta99DblXNTY28m//9m+mJp9+erc/RkavqQSUwP4iIC+Hct+T+6IstCOpgv+XvXsBt3es8wb+zDU1KTqODpKQmdHRmJBSiU6GEcaolENIB6ecakilRIq86CSlIpSKFKIZh1JMoXQQZmI6IHqZKKl0vN73+twzvz23x1p7r7X/az1r7b1/93X9r//eez3Pffjez3ru7/39HW7eqmuvvXYJ1Vl33XXL5/lunNQMZbuJwNJGIE4y/cY3vjET2swR4sADDyx5+iR5j5Lvqel6Vpwoue222xaDyEtf+tKSxiNFrLnnKAWsuTEa6RXxkkGC3vGOd5SEyc961rOaU045pVl55ZWL51W+XEYKeVaWCCQCQyJgw2YxPf7440t+Prn6nvSkJ5VTb3gcJBEaEtC8PBFIBBYsAuGZevbZZxfPVAmTGRuJVy94wQuKETJDPxbs9GbHE4FFgUC8p7761a+W99SPf/zjIlx99KMfLScUZj6s6ZxmhyhtsMEGhXNzbPnABz5Q1pQssyOQAlbHT4gXzHe/+91yvLI8CqusskpJkswDy8slE7h1PCHZXCKQCNwLgQhZvuOOO4qAJbm78vKXv7zkw3rwgx9cfk+xPR+eRCARWAoI8ER1MuuVV15ZDtdhhJS/1M9pLV8KT0COMRGYbgSCt/EOta886KCDivFx/fXXbz796U+XUMJlEdrne+9875sv2oQg3rLaFZLnHc0oe/fddze//e1vizh0//vfv3w2SFFf3Hu/+92v3NtLYII7vJUIB2xzZO2rT1GXny+//PJm4403Ln3ceeedC8e2ptADXJM8u/cspYA1yNM7wmt++ctflqTIX/rSl8qDy7WTu2CcNpibwhGCnVUlAonAvBEIMsSKt+WWWzZXX311yYFFzHLYRAru84Y2b0wEEoEFhICNyXvf+96ZDeEWW2zRfOQjH2lWXHHF3FwsoHnMriYCix2BEIsYH3fZZZfmnHPOKfvLt7zlLcUYSbTpJYjUp0zHiXhxXXBB4oyoIf+iHUJLL7Em7lWXa8M5owsxBlc9/fTTSz/lAVtrrbXKntvfr7vuupJn2kmNRKO/+Zu/uYcBIsaqn9777uF0cs011zTXX399cTqR71D4uH8PeMADZh4pxo3Pf/7zRcR63OMe1+ywww5F7Ipy5513Fm+422+/vfzd5/r1la98pURhwerJT35y4dva188dd9wxc8/2+dKmgNXx2+xf/uVfiivnr3/96/KgcklfbbXV7tGLLr7gHQ87m0sEEoEFhkAs5IR2J6O+7W1vK1Yo3qNnnHFGGU2+qxbYpGZ3E4FEYGgEHLTD8Pi9732vecQjHtGceeaZzTOe8YzMezU0knlDIpAIdIEAMURuJSHOxKzHP/7x5YRp4ku7RMoI1zFY/uAHP2h+8pOfND/72c/KPyHT/hFmXEsYiryAyy23XPmZpxAD5yMf+ciSDucxj3lMEYn++q//uog8XXJF4hXxjhfWi170oiJEffGLXyxOI5HMnvDGI00qH+/2OvopTnY88sgjSzjfLbfcUiCrxS3GCwLUwQcfXCISfAY7UQrykK2wwgrF6+35z39+Ech8fsIJJzR77713we/QQw8tea/0U8hnlMDV79J2nH/++c2jHvWoLh6ZBddGClgdThnvq/3226/52Mc+VhRrSZEdxeznjE3ucCKyqUQgERgKAacRCp/52te+VqxCZ511VvP0pz+9U1IyVIfz4kQgEUgERoCAjYeQDgda4Gk2HMcee+w9LO8jaCarSAQSgURgpAgwOO65554ld6l317ve9a7iPX/XXXc1P/3pT8uphbyKnKxKsPJ34gqhJ8Qqgkr8i861TzT0u2sINX62p/Uzby/iFfFMjif/eDARjgg84yje1yFgOdmP95n+POUpTylt66cxM0oYp7598pOfLJ/HQRwcTIRfOsFRHcS49dZbr1lppZWKmPXNb36z4GV8HFKIXCHS8cB67WtfW4S/NdZYowhnf/VXf9V8//vfL+GBl112WfO85z2vtAkja8vXv/714oml7xxa4lAQ/dWPhz70oeOAasHXmQJWB1MYqq0vzHOe85zyYHtATzvttOJmWMcHd6lSdzD0bCIRSAQWAQLeUUJo9t1337Lobr311sXledAcAosAghxCIpAILDEEvPdsYDbbbLPmkksuKWEfNkebbrppivdL7FnI4SYCCxGBf/3Xf21e8YpXNLfeemsRUiR152FF3IpcTF2MK3I66cPTnva05rnPfW55j/JkUka19/XO/sxnPlOS2BOieIi95jWvaXbbbbey3yZgCQd0kiwRSXnlK195D6MEryeRBjASJnjUUUcV8c37nzfXt771rRKSeeGFFzYPfOADS76x7bffvnBjXl+MHccdd1z5/Q1veEPz1re+tTn88MOLt9df/uVfFkGRkBiFIKZ+4mE7iXvX+cO6eBZG1UYKWKNCcpZ64mQIJ9bss88+RbA64IADigthKNYddCObSAQSgURgXgh4Z8kdYNGVzJgFDTGSPyBLIpAIJAKLEQGbnS9/+cvNdttt19x2223FCn/BBRc0D3rQgxbjcHNMiUAisMgQIMAzOBJleCPx6uFxFY4VXQ5XmF4IVcLuhDPyYJJTkOfRKESsELCIUsbOw+q8884r4472CXfyVRHRiFT4rN95OvFCY6gVKfWwhz2s5KzafPPNZ8IAA6+LLrqoCF8333xzwfekk04qXljaF2rOU1edwinf9KY3Fe83kQyve93ryt5fyGUU1wlJJ2C96lWvKtFZmRd77iczBay5MRrJFVRbii53QsX/L3zhC0fyhR1JB7OSRCARSARmQUAOBCHQFmqWKPkUIpl7ApcIJAKJwGJDgIB14IEHlg0FDifcQ3hInjq42GY6x5MILE4ECCof+tCHyompBCIeQMT4SNQeo67DAnshESfixal+tdjkZD3/4gS++v52uGH7M58Tbzh38Miqk6LPZ0ZCwCIE6RNxjEdWneNKvbyztMsby5jkC1tzzTVLaCVBysmAvK+OOOKIkoPK/er2z/tfKKH8V8L/5LOWiJ0AFg4rePIee+xRvNyEMBKnnvWsZxWvL6JWFNcTsHhgwU+/hSTWqYXmg8NSuCcFrA5m2QMqXnbDDTdsbrjhhpLwTTihZHdZEoFEIBGYdgRiUeb6HIsyixJSlGGE0z572b9EIBGYDwI///nPi/cVb1MJim1W0ut0PkjmPYlAIjApBK699toStie8LRKU6wsvn/gX+apWX3315rGPfWzxWCLcOLTCP6FyceJg7UmlHuIM8YXHk1BFHl7yTPFE+tGPflTEIp5OrlNHiGe1F5j6hfpJcv7oRz+6QBVi0TC4hYDFA4rRAUc9+uij71WFPhGqhAHqkxDx9ddfv/Sd0MRbSvihvFe8peoE7n5Wt7EaF49ce3o4hbAXa4eD21zPm0uo4Utf+tJ7nXpYC1hCCCP8cJhxL8VrU8DqaNZ5XL3sZS8r7omSIXNL9IXNkggkAonAQkHABk6s/0033VTeY8KibeyyJAKJQCKw2BCw8XNClWTH66yzTvGc58GQJRFIBBKBhYIABwp8Ta4lQhXPIkKVEwLlhfK/hON1PqrwnKo9rWpvqlrQCRzi8xCo/P5f//VfxZtJKLb/OXEQflxTC1iRQP0f/uEfmne/+90lX5e/tT2n5sK8DiEkMv3zP/9zc9hhh93rNt5ZTgyUdJ23k5MAHUxEeJOj2qFrkYw+vK9U4md993/8HabWiFrA0nZ4YRHuGD4YgAmJ7TFFDiwiYApYc83w/36eAtbgWM37Sl8oCeO4G3pAuaM7jSA9F+YNad6YCCQCHSIQVjvkQ0LQf/u3fysLspNTwlrWYXeyqUQgEUgExoqAd55NzYtf/OJy8M6OO+5YLOPLGuIy1k5n5YlAIpAIVAgQW26//faSdPzDH/5w8RZygJiT8HhfRZLwfoJUVNUWm9og97q/vtfnxCyeSp/61KdKKB0vqHYoI3Hnmc98Zgl7JKwNG66tHQdtSOJOpIp80+3+hoDlRG1ClRBAAhaxT3ofQhax6fWvf/1MaGBgFcJVCFnulx8x9vSuY/zYaqutikdXFN68wgPbORQJe0II1SeEkGF42HEvxYc+BawOZp36KncM8uOFYfNHAR9WWe6gq9lEIpAIJAI9EbC48iAlvrNacau+6qqrZixlCVsikAgkAosFAZsQef623XbbMiTHmb/tbW9L3rZYJjjHkQgsAQS8x4S5CV+TTFz59Kc/XcSVXiJJLVSNAx71825ykt8JJ5zQfOELXyhCVohD2iQICe87/vjjh/bwDw8sApaQydkELIJSeGCFgHXHHXeUPIdnnnlmyYl16qmnNmuttda93vt33nlnyYOliKZiyI09vXyxErU7uVtyesLW97///WL8oAOIYqg9277xjW+UfFzyZQmj5OQCgyyzI5ACVgdPiFhYXwiJ5LifSxYXSdxGcepCB0PIJhKBRCARKAjsueeexYrk3eVELie5ELfSYpQPSCKQCCwmBI499thyJDqx3s/CO7IkAolAIrBQEAhhiNdTJDZ/5zvfWZKmT4qz4Y7EGh5ZBCLvVqf5RfG5d64+vvWtby0/D7pXbgtYDuF4+9vffq/p4oHVS8AS+sdTjdNJeEQdcsghzcMf/vCZOjilMGbwIiM0wdX18NT+GWec0ey2227F4Ct8UUiiyAWC1xOe8ITyudMRFdcT857znOeUHGJC1sNTbqE8Y5PqZwpYHSDv2HnHbQq38fD6P74Mg34pO+hmNpEIJAKJwJwIHH744cWSZ7G20EqWiYxMigzN2eG8IBFIBBKBeSAgf4r0DwyPLOeOfM+SCCQCicBCQSAELAdR4GqSk7/uda9rjjzyyJkQwq7HUufXIiTxdvKuJfCEBxhvJu9d4Y4bb7zxwJ6vyyJgSeKu6McOO+xQErsTqOTlkkNMSKNTCs8555wSpsiT7IlPfGLzsY99rIhUBC8hg+6V1+qpT31qI0TRgW1EMMKhwstKni+eWbDgnaV+ebQkjSd+yQEm1NDYnfqd5d4IpIDVwVNx3XXXlQeam6DYXg+04zaVFLA6mIBsIhFIBEaGALdvC7B3F+vSG9/4xpHVnRUlAolAIjANCNgI2fBJvOtULgfv8DZNzjYNs5N9SAQSgUEQCAHLATzy+P3gBz8o/zM+1jmbBqlrHNdEflUilhOuhfDVSeB5LgnFG/TQs2URsOTAUtRBTNp3331LbixeWZFk3ueR+0qI4VFHHdVsuumm5T6CllBz+bse/OAHz4hvjLv/+Z//WbywzIPPPve5z5XTDn32q1/9qnDpOC2ReMcorH4OL06DzJIC1kSege9+97vlBEJfCA+6+OMVVlghidBEZmPZG61jtZe9tqwhEVhYCLA8cXO2yDrymIeCkhu7hTWP2dtEIBHoj4BNijwsZ599djmwQqgLi3rmLs2nZrEgkFx2scxk/3HEHF999dUlZE7e0s0226x4PQnNq8u481/1a8s7VVjeO97xjuZd73pXyV0VfSH2XHTRReXdOyjHtMeOHFiDhhA6sCM8sELEclqicD9iQ9yXIgAAIABJREFUH0cUfXIQmz5JC0SQsjZE/60VwsylDSLG8XJbbrnlyrCNT05Fxl9CF28up9rKkaVewh1vsxNPPLFoBUQz1xDQUsDq/XynB1YH768rrriinGTjdIN//Md/bE4++eQ8yaYH7vGiHXZRDTW8/XLsdQxsXDOKkCcvMvV4eXEzXVZiW4/fz3HSRfzcwaOaTSQCcyJw4YUXllNaFLH/Em2mgDUnbHlBIpAILCAErLtO6nL8+5Oe9KSykYnNygIaxpLpas2fBlmPhuWZCwVIfDg8RvQ5wpT8XH9m/D5bVt66UHBZqv2M5/xHP/pROZDCfpRQ473WDk3rUsCq5yOEKV5KEpyLVgovrDCUCr9rC2795pQAJjG8QkDqdXKssfJ8iu+KcL1eidN9Lgm+pO3CB2EmtPFhD3tYqbsW1YRDymOlbte127VnlBcr5oQQVqfeiLbsK13jM/3K72gKWBN7f33ta18rwpWEdTyxuKKHKjuxTk1Jw76ktVgT3RpEaZ+NsLQ/aw93kPpng4iazt0zTpZ46UtfWtxBR1FiEQkBrteLfhTtZB2JwHwQcIrqRhttVCxKL3/5y5tTTjklF9j5AJn3JAKJwNQiYANlTRfy8bd/+7fltKpVV111YC+AqR3YIu3YsIJUr836svLCSUNrTP/xH//RvOc97ymeIjw4eEmHUCG3zxFHHFE29zbhwv9tohf6uCeN+zS3H98LSdJ5ztuPOlXvsssumzoByzvXAUEOzvD8xnPpvavf8kNNutT7s0n3Zam3nx5YHTwBXBNf9KIXFbdBydwlA43Y4w6an/omqM2XX355SXqnSIrHQtCOeY4XMRfYiy++uFxLkd98881nTnWMwca1N9xwQ8NjxIK9/PLLlw13WzWfD0CUcuGg+qGfwqjM7XyL/uojQezKK69sWEtuv/32ZsUVV2xWX3315mlPe1qzxhprlDEk2ZgvynnfKBBwYorvJwFryy23LLH8+UyOAtmsIxFIBKYFAZspwpXQGwl6zz333HL4Tr7rpmWG7tkP/MlJ33g2niTqgTjTrxBzzjvvvMK75KSVp3ahzy0eaaP/93//92VcTjazPj/kIQ8pMFxzzTXF+IRbOgWNF44E01kWLwKxF+JA4RAK+1EJwqW2aXsITdoDy17QoWdyRfN2iu+jPZvvtr1elkQgEEgBq4NnwSLhFANuiI6gP+aYY3q6KnbQlalsAlH8yEc+Uo5MJQxtsMEGxauD6l6XCPtzgsb73ve+8pEXmwVaSFPtZhkvYrHLTrfgKrrOOusUq8Mo3DFDwDK3SJITJcRcz6cY/0033dR88IMfLMeyCjVVImmgsayyyiolXGv33XcvZCTDCueDdN4zCgTE5z/5yU8uz+ALXvCCxuk2WRKBRCARWEwIWJd5sDhVimBPwBI2stBFjsU0R/VYnK7GY06S6sc85jEld8zjHve4vsMl9BC5bJQlSybujIIbThLfWsDCeYlVch3FoVHE2BCwnIjOAPuIRzxikl3OtjtCQAick+7kk+LJJFyvV2hdR93p2wzhVfJ0hwXFu1Zo39ve9raSID1LIhAIpIDVwbNQC1h77bVXCT3rFWvbQVemtok4IePHP/5xIRHf+973Sr6Julicf/GLXzSbbLJJiZGOcuihhzb77bdfEbOCgESsP/dpSfF4i3CXliRwFGWUApaEf0Q5iQf10zhYEHmXET0jZvq+971vCUE99thjBz6RYxRjzToSgRoBxMfGTiEcp4CVz0cikAgsNgRCwOIN7XQqAlYIAYttrIthPClg/ffpaeGBlQLWYniqRzcG+wiHUohIkRQcj7PPmLZiD+TADBEtdbjezjvvXIz89kFZEgEIpIDVwXPgGEynPkgsR1AhYNVHcnbQhalvgts391YvV0Wie+F+bYsYMXCnnXYqHkuKF9yzn/3skmC1tiR5CXKTZnHgdUUwdE0/F9Rws5WAz9xEjrJ+1tZ+AlbUY65DjIokfb2SzRsDbzJeYhIA8rR605veVEJOeVp95zvfKS9t4hYPNC/vk046qVgO6+R/7QnWD+JXjGW2hPa97o1xG4OxxEI3W/x3vxwUc+Wm0Iaxy9NgTJEXrf0dma0e2KqD6DcbLlP/RVgAHSQys2ybD0mOL7jggvRKWADzll1MBBKBwRHwfvOe874T0uLEqEGPch+8lbxyVAiMUsDqx3NwDDwMPxyEZ8zGWXymPvUMklKkXZd+4Hjux3vi0B85KqW3GJWAJRcRvoufDeKh1mvM+Jm+DlrHqJ6JrOd/EeDZZD/E4CgUmqfitL7PLr300rJXsy8sQsWf/VlJVyF/dIQFD/Is5vwvbgRSwOpgfokyQggtBG94wxsapynUwki6pP/3JBBx5JKy2DmiVK6wGhsLoyNWeVwRVRTXcoMl9IRXSAhbLAzELbHfXMQdYcptOkqQFEKXz4RGEcb8feWVVy5hUltttVURxtpz1BawHJfqSFWeY+ecc06py4Ihv4B+IRRye3np+hf1Gcduu+1WvMT8jbjJG6tuT64Goh0hVN8cC/uWt7zlHgkY48QO7vCeN3gIfVCIYk5REu4lj1avsRDF5BZDhixyLM6f+tSnios5csV1V+hr4O4oWPlB6hJ9QKxYq/WDOCUPgzqDpAXu//Iv/1JORNHPn/3sZ8W6bX64uK+33nozlpbor/pZF80V4udaYZXf/va3izhp7jwzFucs40MAzvKymWffL6EaQTLG12rWnAgkAolAdwhYp7zn5NHccMMNm/PPP3/gU7C662W2FAiMWsAKIYbnijQVQgxt+nEPIVh4CkMjo6Kk6dbFyKUlv5RCtLHplljddTvuuGPhLTxM5JKULoJx8NGPfnTxjsG7+gljwZuuu+66krtLOCBuqF78jpFc+g0GWzmwlkXAwvPwWHmS8GgY4LLGZS+DT7f7iZ/BSY4lPxsLozQDF66nrx/60IdKGG7NgfMJ7gYBexaHiXl2JPDHu51wN43Fd4ORPvYwnhffN/sk4cEpXk3jrHXfpxSwOsDcC9xL32aegHX44Yff4wuYAtZ/T8IXvvCForJbqC3EFtDaZd8i+upXv7o5/fTTi0jhJUwocr0XGwEpigVU7L+QOz97GR5//PEzJ664h7qPlL7//e8vCzXByd/DU4p1gvh0wAEHlLDFFVZYYeb407aA9eY3v7lYqbRBjEEAgnAgKAgPgc749DvmXB/0TT8QEX0OL7G4X72EHn1k+fMCJwrVR+DChrhD4CNeGQuBIbyYiHzIh9hyRKdeuFzLXZcIxFONwHrbbbeVvGTCG5EjIZ7u87/FQz2HHXbYvTwJ9ZkgaC5YevTX3CBn4V2FCMLcfLuWsOu+sCSac+7CRDt50OrFChnUNmIofM3pj07Vuf7660tbngdkML9T43uxId2rrbZaeb7kHEFYU8AaH95ZcyKQCHSPgDXJ+kOYSAGre/yHbXEYAcvc4jKz5cDCS6SqkLKB8VAOIfdZ9/AkQoznQl7b17/+9YV3MXaKHvB31+BlIgnwOzyQcRJPc1AP7odr4iquZTTFexgHe+Wlkj6DYZAhkaiEtyn6wwOLwITvEo6222678vmwObCIc/pmzAxT+oh/KngYHulgIePQVtu4K3pARAHsiHU8F9/61rcW8QrvdVCTe3C95GjDPuHLdr05YZBfCAKWPcL2229fvlPBLR1k9fGPf7yklslnZ9mehcVydwpYHcykxYuAZaEhYsjDFJvy/CL+7wSwdPK8IQAhjqeddlpZjKNQ44koTuoTumRxhCVceWwJtYti0fU3LzxCD68ti25YfghMvI4IT9rzd8IHwcqLXtgAbyYEg5ClHZ5SYXWqTyHkWeQ+1jn1WqiJTH5WDyJhnglUFnNhpBGSR4jZZZddSoigaxAAyQr1J8hN7c4ez0v8LQgM0oRIISCuEePupBH91S9H6KqPcGXMRKAQlIRN6gNh0L2szshghFOuvfbaRUDj+UTo8nfYOxWEkFhb4rTBI+q5z31uIW8WHX2z6OizzQDSGDnMiII+g5l5sHDBDVaEPHME/xg3UU0eOdcQUcwDcqRwLeYBhwjm92p8LzZ4P/axjy3fO88BAStDoseHd9acCCQC3SNgvfKeI9gzGDFEZv6V7udh0BZDwMIT8S/e47hMu0Q6hUji7r5eSdwvueSSIijJgYbXEJmIRLgVw57T0tSFb+A6/ubzT3ziE+V5weF4QfE+twfwu+cHv2SkCyMQjkicUsKAiKvGs6YNxm+i0tvf/vZSp2eTwY5RUr36cscdd5R78DVCkfV5GAHL9UK3GIkZBBViFWxwXNytxgI2DKZxwqHrGejxcDzU+ODCSKm/6iKO4dnpQTPoUz266zxDBCwiqDnzzExrCKE9HgErTqb3HXAIV+wlBgnfHR1yWdO0IpACVgczwxOF8OIlHgJWfgHvDTwL1/77719EJwsmLx1eOEE4xPbzuvEidh0hxAbaYhkeW6xiCssR8YS7tTwWwuEchR3FQsp7x4JM4LJo8xqyyCIYyAA3byFpfidQeXkS2PSnFrDU6W8WhZe85CVF5EFQEALikbBIZMg9Fm+iDAHO8+AfjyfExPWsU17cBCVEidCF1LQX/BCw/G+M2r322muLhYz1TWhdWMd4Uznd0ImMCAVSDmNWQiUELIJUjEXYIfd4YZTIIAEWcXIPTzB184YyH0G09MUYiYUh0jpZkschC6H5JZw5YdIcCj9jueThhYwR88wxUmRM5gUuhMPwNgsBy5wrRKuNN9641IVIEr2mMTFlB6+ZzppA+D0TKWB1Bnk2lAgkAh0jQLTwnvO+CwErPUc6noQhmqs9sHAcp60RUdoljFs8sPCmXgLWrbfeWjyhzj777MLt8DbcHf9hBMSZcEhcRXhg8DGcDdfqJWCpx/OzxRZbFGNqGNoIWLyq7BPwIpwLR7RhV9RtLAyy+CS+hcuKDBCOqE7GVsLExz72sZIyI/ozjICF8/Ka4qGjrzifNnBBbeBvhDh8jiiFa+Lo+GrsZ0LAgo+Cj6vnqU99apkLvBc/SwPjEA/2iC71PvPseU4Yjhkip1nAsvcTDht7Es+QfYtnPgXQET0UC7yaFLA6mEDx3wQsRf4im/t8gd8beIu3ELoddtihiEYWeYulhdJn8kwdfPDBRWQSS0+8YlFARJABxEFIk8KSRFwhdDz/+c8vizIhKLyaiExehl6EwtuE/oXoFF5aLGrmCylQiEIICwITAhY367CG8Wyy4LdfrsgQQUoSWNcKRzzrrLMKEXEtawN3bN5D+ucaHknEGJ5MBB4CmkWn9sByHe8ubbJ6+cxLn5cX0lH3g8cSchF5xVjPPvCBDxRM2gIWcYqYBd8gJtEuEodsaRs2BKa6HeSJmGRMisVS/i/3f/7zny/j1BfEBjkMD7t6XEJHCYpIElEQxjBQHK3ruQgBiwDGYy1Fqw5eZP/TRC1gPeMZzyjftfTA6g7/bCkRSATGj0AtYBECeGBl7p7x4z7fFmoBi2c4rsIjql/BUQgwjJ21BxZuw1DGSMrgR5QiKOGTNW/HSXmSSwuB9yhzCVgMoHKDhnAQfBSPw5uETHnGpF3Ag7XHUERYEpGgENFwyTDqhVilP3isfuPPyqACljrwQZiFwVaKh1oAjL7gkHKwwo3hGFfEvxUcUx8YI/F2XLT2JnONtnL/M9+nfP731QIWvkz0nFYBizGeIb4OIbRX8L2wF0oBa/7PwWK6MwWsDmazFrDe+MY3FgEry70R8IKVSBxREE5moeb1xPplcWa9ocizTFnALZC8inj1WMwJK4QPCySvJ4usxZjotN9++82E5XHXRiS4mstNJXTORry9qKpHSBtrmsXaC5ToJRF6LWDpt4WcZxHLX5vkqie8xwgvSBUBixUtTo4x7qOOOqqEEhpreJ2F27qE6UQn7uhBArRrLE95ylMaIplrJdEkGCn1ePSBEIQUCSfUNhd7uBGwCHrhgcXy+O53v7vg214o4E6M097666/fOBUyTmzUpvYtPMZpoSEuEqv0ldDEO0u/JIUXLuneNu6BrbwTPPGQx2233bZcFwKWa4zXQmc+khh190Yx9wgrYu0ZEIqRAlZ3+GdLiUAiMH4EUsAaP8ajbKEOIbQexaEys7URPEsoHq6H7xBfdt111xnBCGfHW3ptmnE1nERaCFyzn4BF/FTwKlw0Cl6mXmspY6C9gX4zhjLWRhgigc26i0sRmkQP9Cq87fFkvEg9gwpYOCDeFoZVbeCbvSJFcC/8GWdlKCUqMLTCMgQs9cEU52RwzjJ5BDwPxFbC5LQLWJK42+tIKxPFM+ZZ88xlSQTKHvf/1cl0EpOxIFALWDbukl9n6Y2ABdhJGTbFvG+4TnMdlZxbSGB4C/HAUi6//PIieCEdu++++0y4msWXxYqXkxc2L6wI2bPwcmtGeHhd8eLpldsCeSCk8W4iFLFG8RCTY6AWsMLziWXKPe1FX7sEHaGM2mT1kM9AH+uvH5HMeHggyTnFQhJ5uITguc+pLkhO5B1AVOCDPBF0EIgIo6xJksULASJScR1GKlggheDVHlj6zuuNFa+XEKf/RDDikv4QsP7u7/5uJqwyvLzcy7opLJMIZWyIm7BDn7EoxqmM9ZOgn8ZizmABW8TO90ZBFgmW+mw+5NuKY3XzO9UNArWARQg1T2kR6wb7bCURSAS6QSAFrG5wHlUrtYAVSdHxuvYWJwxmUiLgm+a59sDC9ZziJ0QQH8IjcdJeRd1ypDEiCrFjEO2VA4uAhcPx5meMq0uIaDgtIQy35Envd+0z2jJK6q92pMOoT9Ou6+LdjivhXuoZVMDCCYVTMjjCTuoHUQDtEoIbQy7BT1RA8DzX1jmwRJ3wuq8NlOl5Naqnffh62gKWOZ/WUwjt/3znRGGEEE18w//tXdKLb/j5X4x3pIDVwazWAhavE9acLL0RYImSjJwLtxcXwYMIEp5WhCq5qZzs4nOJJYlRxBibaeTBoi8sUEiefAKSjxOP4kXI40peJUQlLHX9FtYgFzboFnaCmtC6OgcWTyXeXuHlFd4oIZgZqXHx5EJGEBnWNZa9uCbaCZdyLunyHXiR82pyn2vdyzpGRELOhEaKa1dqi2Pb+6oO0YOPe7nn8pKKRPLELX9HSIRLtjFRPxyc+nfIIYeUMbHaWVT83ck45oqgIXeIPrNIqgfJ47kFvxhjjLnd1/aTAVfho9qoPbCEixK6ptUNerF+x2sBizekMIokpot1tnNcicDSRCAFrIU17yFgyWsqDQLOGKFtMZJYp3AJ/Ifx0ia5FrD8juPhM+ohYOFu/YpUE+HRz7u+Vw4sAhaewktfbtFeRTu83/ExHlbELnwML8OdGEH1gxG1Pp27rotHGC8qAhjBa1ABS15TnJqhODCazYOt5sX4IINneGAx5BLSeLHVByvpZ/KEyX2nFoqAZZ8j0sO+pt5DxT7QPiyfpck9R9PUcgpYHcxGO4SQB1a+yPsDb8G2kPPa8T9vJaGBiAFCIdmlnEhebjxxLNZEHgQB1hZPaj2LGIsWsYWlgeCCuBC01EvAEsLmpJrZPEhirpAJpIjHEwGLhSlC6Czg4v2V2gMrrH/Ih/siOblnQN9CFArLVghRQRC0I8knryjinOtYypAEXli8tYh1YZEgSNWn16ivFslCXNNHREjIYy1gwUPdkTy/1yxJWsqjjQVHrgknhRCs1Ie0wN1iQ2iLPA0ELGGK4UrvhETCX78S/UTIiHUse/4WApY51gdzmQJWBy+xqom2gMVbMD2wup2DbC0RSATGi0AKWOPFd9S11wIW4Qo3Y7hsl+BzvI2EKbWTuPO6J/zwbscbpXXANdoe6WGIk/ycZxRv+dk8sHgrEbDC4NjuF37LsIrTOqCIgMVgie/yvPd3aSzw435hVDgujkSYk1drUAGLmMczjCEYNyTozbZHiUgD3JKBkUe9IofWe9/73pmTwd/3vvfNDDO9Zkb9xA9X30IRsERg8D6UOy2K580z7cCr3DsPN++L+eoUsDqY3RSwhgMZoZCTinDDq4rLtOTfwsW4lRJGCCdR5LgSZkYksmASYZzYQqnnweVeLz2Lu4K4IAg24uL0iV+9LFohPoUApD6EBqmoPbB8bvEXn+2zuoRoxipoLKx12uJhJgG9lzXCFHmvuG0LuatFMH3/6le/WoQq93Mf90zJDUY84onkfnHtyA5xqF1iLPXLH4Z+r0MICU7wnU3AgjMxisWQCGXcxiK0j/jlbxYgFj1F2/pNsHOPhRQ546bf7zTO6Cf8jCtEqlrAesELXtCcccYZKWAN9/Va5qt7CVghOC5z5VlBIpAIJAJTgEAKWFMwCUN0YVABS5XWK97teCDhKTyw/J1hkwHUydE4H6NlpHvo5ZVO6MJXCUYMecLr2qcQMtwNKmCph2Al9ycue/3115dckwy6jK1EMO31KvikvuJFjHyDClj4KcMoPolr8eKaTcSK3K24Xc3PHCgUAhYjMW/+LNOBwEIRsDz/QljtkaLYV3mWGMizJAKBQApYHTwLKWANB7JFEbHgXbPqqqs2e+21V0l+ybVbcna5rsKNVM0SpLOkyWcgnFAOKN5KvIssxMIIEY+wmNUnvoin9mJEGNpeJEQhXkaRh4q4JO9SW8DSB8RCm/J0tUPikAptOLWPIMMqKLklax3xiNUqvFhYs4x95gv6Z39WfvS5v0vAvtZaa5XQOffDJE7943nlpS+srx6L/ugDLyjig995bxG6XBcCltBKY+P2zYOqn6UDjnAlUCFJFhseUhtvvHEhW5KqI2zwDwHLnAoDFGrpfkcvIzqRy6t+Qlg09ZVQpn+IVApYw32Hxnl1CljjRDfrTgQSgWlAIAWsaZiFwfswHwEL76s9sHAevE+qj6OPPro0zvsKNyJAKcGLcBqiEmMpwQi3kzKhXw6s+QhYDIqMpQ4JYsDFe3Eoea7afFV/pM1wyrU12u+DCli4FuGLdxejIiFKO4ypdVEnDoqfwQkvw89cB5cUsAZ/Xru+ctoFrPDQY+z2nfO8h+E9RFV7jCyJQApYHT4DKWANB7aXFg+ePfbYo5AGotHVV19dhCkLbPslRpwRnie0jcXKPcQsp1ace+65M4twncyTpxbRBTlwwh+rlvA79yMirpXsnWcV65RF3ckwxCaLddsDywh5enFxZYULckHgYcnjGi6nFQKCHCEgBCf1EOjC2qDPLHi8q8Lzi+DGY0l/w8ImrJLly+881JAoCxTL3Hve854ictUClLYJYMbk704ElIOrLWDpHy8nLuGzueo6wdE1xENJ7Y1dcnnhiMaqD0rkUTAWbuqbb755IVfwNGa5HupTDFk/uQojgbARCqANmLZDCNMDa7jv1aiuTgFrVEhmPYlAIjCtCKSANa0z07tfoxCwomYe77zMb7zxxsLZ5GXFv8JrHZ/By/CUOIHQ8zLbKYTzFbDUS0yTNxW/YrgU1ujwHAIXDhf5YEUj8BhThhGwXH/hhRcWTgdHXvREOxzL+ENcwKsZH4VnalM+Lzlpjc01KWBN73dmoQhY0qzYkxFVQzD2zDuZUI65LIlAClgdPgMpYA0PNldmKjwLl2KR9lIjSMmDVVufLJxyUB1zzDEzfyeQSC7JO6iX2zfPJYnKeTJ5sRN8iFVIAS8kgpmcBBKRu9/f/c67SN0hYFnII3+VPglJ5IrNu4l4JaE5skGYcZ3koCeffPI9cjPwZpKkk+VB3TyqiE3yHPgbAQeZ4JmEsCAMXNwDA9fwSmMF9DceZzzSjInoR7Qi0LFo6JMxOB1GKGKEECJr+omsEJbmErDUI7cYwgQv7Ug8z1IiUTtRK0oIhzATQkjgIrzxaNNP4yXYEUZgIaRT/eo6/vjjC54xVn0j+Pk8Bazhv1ejuCMFrFGgmHUkAonANCOQAtY0z869+zasgIVX8cCynkUIYdSKn+A3vMYjTym+wcDIoKqtSy+9tCSbvuuuu2Y6EwIWzyfcSiJ1bZx//vkDhRAyRPKIjxDCyCFKSCMcCXvUH6kscCc5sfxs03/22WcXjhfRBq4TylinyMBr9Q3/xf8uvvjiwqcV/EwqDoZIdYgU0A9RBbiaA5NERci7ysjrb7ioU8AjpJCBl3HY5xlCOF3fn2kXsEJ0tVexH+HhF3s/e0HP8Wx5c6cL7exNFwhkCGEHKKeANRzIXrRC94SoIQkhXnipyc9E5GmLUgQZi62F02e8k4hPkr33Ktpweho3aR5SBBFkARkI4sEC4GeilBBAbtyRsykELJY6HlkRPufkGvX4py8ITOTBkuhT8nYLfh0CqR2hkcZGBHI9i5aXtZe4OhAq1j+YOMWyfpETiAh+PMQIZq4PTzTt+B3J0k/ilnBMolGMBWESW86Ta1ABS5ssdixw+gtPfxPCSaQKd/taxApc9Z+XGWue9ghVxmMOJIA3ZqSKUEWAhGXMdwpYw32XxnF1CljjQDXrTAQSgWlCIAWsaZqNuftCVMJreJvz2O6XxF1N+MRsApZrcFDe8oxqDKnuwVMY7PAxnArPkZRdXlUiE47G0EkkUoYRsOIUQnyMOMXQGd7pnkViE1FNWzgS/qZ9/7sHj5S2gfHxqKOOKr9vuOGGxVgZqRrk6yJqybtaC1hhZLzhhhvKgUEMpsaMM+JnxoyfMaJGGgyHFjG0RtSCfvBSw5X1jxiXObDmfm67umIhCFieG5E3cQp9fFdFtsix2w5p7Qq7bGc6EUgBq4N5SQFrcJDDVZmrNHFJqJy/eXERWAgmvRJGs0BR6cXnK5JehtWrX+vqRTq8LJ2gZ/FGBPzdYowMCHmTG4A3Uwg+FgIERhJy4teDH/zgIiqxzMkfRXTjcRUvX+RBknOhccSwdv+1Z7znnXdeIT9EMfdHzi55uniA6UedHyvqj/9Z1XgswUmIn7FoS7+54MJObivJ5GsPNq7wwwpY+qaPCKOjlxUkh/VNAvhaoPNZzKuf9YsnnTBR3mH6rYRlkVCIhME+cl9FKKJQyvD9gqvLAAAgAElEQVTAkuuhzk0x+FOWVy4LAilgLQt6eW8ikAgsBARSwFoIs/S/fRxWwOLNRCjq5YEVBjMGNWGCjIs4ZhwExKgmIoDXvjQI+B2DKMNbCFhhsHONPQCjKlGq3ymEPOB5LRHG9It3U30oEA6F1+HEOB7eFP1keMWbbP71TRuMrFJK1AKWUwZxNoZSXmdysYYHVvA0vE6qDknk5TTl4R8ck6e9+0UvEMLahlQCFqzwY572+GDN/RbWE7W4ersQBCyiscOqGOKj2PvZE7XzCy+u2cnRzAeBFLDmg9qQ96SANThgsdj5n8sygSlC9HhT9Ur6HQKQxZmVSLGg9xKL2j3xUifgeHEiBE4+DOLKmkbEQjzaIYuukXOLlUouKxY/QhPLFgugviM/ThwUskfc8nM78Wbdn/A8Qy6QBv+7h6u2vgiz63VqX51UlDgkwab79YEFUCii2HEJ8UMQqj3YkDKeY0GIJKR3/Ww5sGCuvyx62lD0jdu5/s51r/uJjdr0v0T52jRG/3PFrz3tIh8Ysklo9HvMcb+TDAd/6vLKYRBIAWsYtPLaRCARWIgIpIC1sGaNYHPNNdcUzyObXh5GEYLXayS4G1GK1wehSB7V4Bk1p1If4Qg3JJIxzuFUeFLk5sSDcC9cEN9j1MT1cCs8kSjkPp/hR70KvqcdfXA//qoEZwzOpd84ZvSHqIRf4ncMlT4PoyIPLfXol4LrwsiYiU9PfOITy2dtkQmPxon1Wzv4JA5qvDgxHq5fbV7sWp716nO98aaANR3fo4UgYDlFnaHefiCK7yUvSM9elkSgRiAFrA6ehxSw5gdyeCC5ezZBpF/tkbtgPq0PuujWgttc/ZyrP0GeIp+A+qJ+45+tT0FullXMCVfyucYyH0zjnvY4wruq1xy3/xYYRV2zCYLL0se8tz8CKWDl05EIJAKLHYEUsBbWDAe/Cj4xG4cJo2gvTtWLjwQP6cXh6jqCP7kOF6t/x1WCx91jE/Y/J03Xf5uNK/bqc/tvNY+rOWR7bJEvq2671+mGbSyH5ccL60lanL2ddgFL/+ScE7Zbf4dFXMjLFsb3xTk7Oar5IJAC1nxQG/KeFLCGBCwvnxgCXQhYgwxuLrFuPoLmIO3mNXMjkALW3BjlFYlAIrCwEUgBa2HPn97XfKY9mn5Gwdnu6VdH+++1QNYWq3rVPy4+00/sij71E9QGFagW/hOydEYw7QIWT0eHU0n9EoXX4oknnthst91283JiWDqzuzRHmgJWB/OeAlYHIGcTI0UgCcxI4VxUlaWAtaimMweTCCQCPRBIAWtxPBb9BKle4s2wI56tjtnEoV7tjEvEGnZMef3iRGCaBSzfUWlM5C4WrhrfHV5XcgrLQZwlEbiXAeH/DWNuSPzmhUAKWPOCLW9KBBKBKUQgBawpnJTsUiKQCIwUgRSwRgpnVpYIJAITRGCaBSw52Q444IByaqUDABQi1jOf+cxyAEJ9WMAEIcympwyB9MDqYELaApZ43iyJQCKQCCxEBFLAWoizln1OBBKBYRBIAWsYtPLaRCARmGYEplXA4kPjwACnDDokIXxqHJ714Q9/uJzymblup/nJmlzfUsDqAPsUsDoAOZtIBBKBThBIAasTmLORRCARmCACKWBNEPxsOhFIBEaKwDQKWMQqJ3V+6lOfanbdddfGSaIhYDl1/sorrywnhGZJBHohkAJWB89FClgdgJxNJAKJQCcIpIDVCczZSCKQCEwQgRSwJgh+Np0IJAIjRWAaBSwD/OUvf9nsueeezWmnnVbELEX44P77719OJcySCPRDIAWsDp6NFLA6ADmbSAQSgU4QSAGrE5izkUQgEZggAilgTRD8bDoRSARGisA0Cli8ra666qpms802u0f44IorrticcsopzSabbDJSDLKyxYVAClgdzGcKWB2AnE0kAolAJwikgNUJzNlIIpAITBCBFLAmCH42nQgkAiNFYBoFrLvvvrs5/PDDmzovNO+r5z//+c0nP/nJ5mEPe1jxxsqSCPRCIAWsDp6LFLA6ADmbSAQSgU4QSAGrE5izkUQgEZggAilgTRD8bDoRSARGisA0CVj6IjH7dddd12y00UYz3lfEqvvf//7NEUcc0ey+++5FvEoBa6SPwaKqLAWsDqYzBawOQM4mEoFEoBMEUsDqBOZsJBFIBCaIQApYEwQ/m04EEoGRIjANAlYkaI//jznmmOaAAw4oidvr5O32zI9+9KPL+FPAGuljsKgqSwGrg+lMAasDkLOJRCAR6ASBFLA6gTkbSQQSgQkikALWBMHPphOBRGCkCEyDgGVAIVbdeOONzc4779xcfPHFM+O8z33u0xx00EHNm9/85uKh5V8KWCN9DBZVZSlgdTCdKWB1AHI2kQgkAp0gkAJWJzBnI4lAIjBBBFLAmiD42XQikAiMFIFpEbAMSl8kad9jjz2a3/zmNzPeV6uttlrzuc99rll77bVn/pYC1kgfg0VVWQpYHUxnClgdgJxNJAKJQCcIpIDVCczZSCKQCEwQgRSwJgh+Np0IJAIjRWCaBKw777yz2XrrrYv3VYQOGuw+++zTHHLIIc0DH/jAMnafpYA10sdgUVWWAlYH05kCVgcgZxOJQCLQCQIpYHUCczaSCCQCE0QgBawJgp9NJwKJwEgRmCYB69Of/nSzyy67NL/97W9nhKoHPOABzTnnnFOSuqdoNdKpX7SVpYDVwdSmgNUByNlEIpAIdIJAClidwJyNJAKJwAQRSAFrguBn04lAIjBSBCYtYEXuq5///OfN5ptv3lxxxRUzQhXBaosttmg+/vGPN/e73/2a+973viMde1a2OBFIAauDeU0BqwOQs4lEIBHoBIEUsDqBORtJBBKBCSKQAtYEwc+mE4FEYKQITFrAMpg//vGPJffV3nvv3fzqV7+aEbAe+tCHNuedd16z7rrrljFL3p4lEZgLgRSw5kJoBJ+ngDUCELOKRCARmAoEUsCaimnITiQCicAYEUgBa4zgZtWJQCLQKQLTIGDJfbXNNts0F1100Ux+K55ZO+64Y3PCCSc0f/EXf9EpJtnYwkYgBawO5i8FrA5AziYSgUSgEwRSwOoE5mwkEUgEJohAClgTBD+bTgQSgZEiMGkB63e/+13zxS9+sdl+++2bX//612VsQgdXXHHF5uSTT2422WSTzH010hlf/JWlgNXBHKeA1QHI2UQikAh0gkAKWJ3AnI0kAonABBFIAWuC4GfTiUAiMFIEJi1g3XLLLc0GG2zQ+P8Pf/hDGduf//mfN5tttllz2mmnNcsvv/xIx5uVLX4EUsDqYI5TwOoA5GwiEUgEOkEgBaxOYM5GEoFEYIIIpIA1QfCz6UQgERgpApMUsLT9/ve/v9l3331L6KB/vK9WWmml5vOf/3yz3nrrjXSsWdnSQCAFrA7mOQWsDkDOJhKBRKATBFLA6gTmbCQRSAQmiEAKWBMEP5tOBBKBkSLQtYBFpFIIVdddd13Jc+XkwSj3uc99ml122aV53/veVzyxMnH7SKd7SVSWAlYH05wCVgcgZxOJQCLQCQIpYHUCczaSCCQCE0QgBawJgp9NJwKJwEgRmJSAJffVMccc0xx88MGNPoT31WqrrVZOJBRWmCURmA8CKWDNB7Uh70kBa0jA8vJEIBGYWgRSwJraqcmOJQKJwIgQSAFrREBmNYlAIjBxBLoWsAyYWPXtb3+72XrrrZsbb7yx/K7wvtp7772bt771rc0KK6xQ/sZTK0siMAwCKWANg9Y8r00Ba57A5W2JQCIwdQikgDV1U5IdSgQSgREjkALWiAHN6hKBRGBiCExCwPrtb3/b7Lnnns1JJ53U/OlPf5oZ+xprrNGceeaZzVOe8pQUrib2RCz8hlPA6mAOawHroIMOag477LAOWs0mEoFEIBEYPQIpYI0e06wxEUgEpguBFLCmaz6yN4lAIjB/BCYhYJ177rnNa1/72ubmm2+e8b7iaXX00Uc3e+yxR/HESs+r+c/pUr8zBawOnoBawPJl5jrZ5Ze2y7Y6gDObSAQSgQkicPvtt5e8BdzB11lnneYb3/hGp++zCQ49m04EEoElgkAtYK277rrNySefXJINZ0kEEoFEYKEhwAPqNa95TXPJJZc0D3jAA5pbbrmledCDHjSWYXh33nXXXc0OO+zQnHfeeTMnD+KMuONnPvOZZuWVVy5tR06ssXQkK13UCKSA1cH01gKWkxYIShEL3EHz2UQikAgkAiNFABnyLnvqU59aTpZJkXyk8GZliUAiMGEEQsD66U9/Wt5v/nnnJXeb8MRk84lAIjA0AvWpgMstt9zYBaxTTz212WuvvZpf/vKX5b3pfbr88ss3J5xwQvOSl7yk9D9OHkz+OPR05g3ypv2/XI3H/iDUAlY01uUXNqd47FOcDSQCSwYB7y5kxP8ErPTAWjJTnwNNBJYMArWAZdBpeFwyU58DTQQWHQKx5+RFer/73W+sAtb111/fbLrpps0Pf/jDIviH48aGG27YnH766c1DHvKQGaNniFiLDvAc0NgRSAFr7BA3TS1grbnmms2Tn/zktOJ1gHs2kQgkAqNH4Pe//33zhS98oVScAtbo8c0aE4FEYPII1ALWiiuu2Gy00UaT71T2IBFIBBKBIREID9JLL720CFdO/pOXahwhhL/73e+at7/97c2RRx5ZEreHgPWoRz2qhA4KIexVunTqGBK+vHxKEUgBq4OJ6XUKYXpFdQB8NpEIJAIjR+C2224r+Qts8FLAGjm8WWEikAhMAQK1gEW8uuiii2ZCXqage9mFRCARSASGQmDLLbdszj777BLKN44cWN6Z3/zmN5ttttmmuemmm2b6xutrn332aY466qi+zhspYA01lXlxhhB28wykgNUNztlKIpAIjB+Bn/3sZ80jH/nITOI+fqizhUQgEZgQAnUS94033rg5//zz75HrLzdcE5qYbDYRSASGRsD7aquttmrOOuusksRdbr9Re2DhhjvttFOJOvL+jPL4xz+++eQnP9mstdZaffMI5vt06Cld8jekB1YHj8C4BKz8wncwedlEIpAI3AOB//qv/0oBK5+JRCARWNQItAWsCy64IAWsRT3jObhEYHEjMG4B6/jjj2/22GOPGS8r+a2EKx5yyCHN7rvvXsSrPMl1cT9jXY4uBawO0E4BqwOQs4lEIBHoBIEUsDqBORtJBBKBCSKQAtYEwc+mE4FEYOQIRAjhqD2wvCuvvvrq5pWvfGVz5ZVXzvSbk8Vmm23WnHLKKcXbK3JxjXxgWeGSRCAFrA6mPQWsDkDOJhKBRKATBFLA6gTmbCQRSAQmiEAKWBMEP5tOBBKBkSMwSgFLHmf/iFJ33313c9BBBzXHHXdc88c//rH0298f/vCHNyeffHLzvOc9Lz2vRj6bWWEKWB08AylgdQByNpEIJAKdIJACVicwZyOJQCIwQQRSwJog+Nl0IpAIjBQBYpMQQkncR+GBVR9Eds455zSvfvWrm1tvvXUmzFqo4P7771+ErVHn2hopMFnZgkUgBawOpi4FrA5AziYSgUSgEwRSwOoE5mwkEUgEJohAClgTBD+bTgQSgZEiQHDigUVsGoWA5f0op9VPfvKTZvPNN2+++93vzohXvK9WWWWV5rzzzmvWXHPN9L4a6UxmZYFAClgdPAvDCFiZmL2DCckmEoFEYN4IpIA1b+jyxkQgEVggCKSAtUAmKruZCCQCcyIwagFLfX/4wx+aww47rDnyyCOb3//+9zN9IJB99KMfbbbZZpsiXkWo4ZydzAsSgSEQSAFrCLDme2kKWPNFLu9LBBKBaUOgLWBdccUVmZxz2iYp+5MIJALLhEAKWMsEX96cCCQCU4TAqAUs78dvfetbJUk7ThjOF7yydtxxx+YDH/hAs9xyy93j5NYpgiO7sggQSAGrg0lMAasDkLOJRCAR6ASBFLA6gTkbSQQSgQkikALWBMHPphOBRGCkCIxawLrlllual73sZc2ll17aeFeGgPWYxzymOeuss5q11147xauRzmBW1kYgBawOnokUsDoAOZtIBBKBThBIAasTmLORRCARmCACKWBNEPxsOhFIBEaKwKgELO9FoYPvf//7mwMPPLD505/+VEIElQc+8IHNwQcf3Oy9997Nfe9735H2PytLBFLAmsAzkALWBEDPJhOBRGAsCKSANRZYs9JEIBGYIgRSwJqiyciuJAKJwDIhMAoByztRPZdddlmz0047NT/4wQ/u0SfhhGeeeeaMeJU5nZdpyvLmORBID6wOHpEUsDoAOZtIBBKBThBIAasTmLORRCARGACBSBAcSYX/4i/+YoC75r4kBay5MVrIV2Ri6YU8e9n3YRFYVgErvi//9//+32bXXXctJwxGIVStuuqqJXH7RhttVEIK5cJKAWvYWcrrh0EgBaxh0JrntSlgzRO4vC0RSASmDoEUsKZuSrJDicCSR+CXv/xlc/zxxzfbbbdds9JKK5UN1LKUFLCWBb3pvzfy9thkx4Zbr1PYmv65yx4Oj8CyCli+I/4dffTRJXSwLsIF3/zmNzdvfOMbm/vc5z7lo/weDT9HecdwCKSANRxe87o6Bax5wZY3JQKJwBQikALWFE5KdikRWIIIRO6VP/7xj81JJ53U7LPPPs0aa6zR7Lzzzs22227bPOpRj5q3F0AKWIvvgWpvqv0e//78z/88N92Lb8pzRP+DwLIIWPGe/epXv1q8r/7zP/+zvFf9naHghS98YXn/PvKRj5zBOwWsfPTGjUAKWONGuGmaFLA6ADmbSAQSgU4QmK+AlYSmk+nJRhKBJYfAv//7v5ecLFdccUVDiHB8+9Oe9rTmDW94Q/OsZz2rJBcetqSANSxi03299eeGG25oTjzxxObmm28u4ua+++7bXHvttc2nP/3p5u677y7Pystf/vLmfve733QPJnuXCAyJwHwFrBB4f/7znze77LJLc+65584Ivd6RvF0/+9nPNuuvv/68jQVDDiUvTwQKAilgdfAgpIDVAchjbqI+JjYsDxnfPWbQ+1Qf7v69BJGwFOXcjG9uhhWw6hw1v/jFL5qHPOQhSXTGNz1ZcyKwpBDgfeXkq3e9610zp2F5//v34Ac/uIQU2nittdZaQ+VlSQFrcTxGwQluu+22EuJ08sknF4HqyCOPLN4kt9xyS7Pffvs155xzTrP88ss373vf+5qXvvSlTeRSSy6xOJ6DpT6K2QSs2Xhz5BY89thjmze96U2N963C84qx4B3veEez1157FaNBlkSgSwRSwOoA7RSwOgB5zE14if/whz9svvCFLzR33nlns+KKKzavetWr8qjYMePeq/oQsAgpn/jEJxq5T1hTX/KSl5QNSxLO8U7KMAJWECP/f/e7322QoK222qr5h3/4h5kNwnh7m7UnAonAYkXAe+WOO+4oIYMXX3xx86tf/aoMtd6Q2WQ9/vGPLyGF22+/ffOYxzxmICErBayF/9TEc4Aj2Ghbf+TrIVwdcsghxZhiQ37VVVc1e+65Z3P55ZeXMKjjjjuu2XzzzWfy+Sx8JHIESx2BfgKW74Z3qPdi5K+qsfIevOCCC4pnouuieK8++9nPbk499dRm5ZVXXurw5vgngEAKWB2AngJWByCPuYmf/exnxXrH/ZxlDhl63eteVywQWSaHwCtf+cpiUTUnBx10UAkZGdUpVJMb1XS33EvA6pcw+U9/+lPZTP74xz9uzJUcCqusskpJtrzpppum2DjdU529SwSmHgHvFydjHXHEEc1nPvOZ5tZbby3JhsNT2qYsvAae8YxnNG9/+9tLuEuEFfbzPkgBa/RTX3tNd+UtrR28bf/99y/Grn/6p38qm27PhXXLPCvf+c53ymfCDNdee+1iHHvCE56QebFG/xhkjRNAoJ+AdfbZZxdvRO/PDTbY4F6czPt0xx13LCJWbRzA44QTPulJT1rmAzMmAEc2uQgQSAGrg0lMAasDkMfYxO9+97vm0EMPLS94ghVrr3AF3j5ZJosAsvma17ymWN9XWGGF5t3vfndZbFNYHN+8tAWsb3zjGz2FKITJ5uCaa64pLuaXXnrpzGZBouWjjjqq2WKLLTojP/02TKPYSPXL75V5v8b3HGbNiUCNwG9/+9siQvCeOf3005vf//73Mwm64zrrgnWCF+juu+/ePPWpTy0f+Xvbc3dcAlbtlRr9are92LyIGTJCVCQc+b0Wj+I9GaGfcBkVBoyPL3vZy5ovfelLxbuKMLXRRhsV6Os2iJx43uGHH14+I3T+8z//c3KJfM0sCgT6CVjEqwMOOKBZbbXVilHe/iYiGXi0vvOd7ywCVxgjgSFc0H7I9clxFsXjsSAHkQJWB9OWAlYHII+pCS/nj3zkI8Wz56677mq23nrr5qMf/WjzoAc9qLzQUygZE/ADVmt+nIgiz8k3v/nN5i//8i+bM844o3nOc54zYA152bAIDCpg2UB+73vfK+Toy1/+8ox4FRuHRz/60c0HPvCB5kUvetFAItZ8iVJsGHttFuvPYjMzbDuur++pN0XD1lXPRa++xeejEN2Gnfdhr5+t/8PUNa6xzrd/873PmJfleWjPfY3hqDb7w8zLNF5LJLFO8xb4P//n/zT/8R//UX739/o5sm4//OEPLxswBo/2aYXwHJeABTceqa997Wubn/70p8UbzCbxYQ972Ayki2k+5T00Von2GS7kmIqQoy9+8YvNW9/61ubXv/51uUYYX6/39HyfNXMo7cOLX/ziwteEQX3wgx9sHvCAB5Qq2zj/4Ac/aJ7+9KeXUClhp//6r/9aQquyJAILHYF+Apb3H49EgrLccPK/MQr/7d/+bXPeeeeV7wwjfhTvTikgPvzhD9/j1MGFjk/2f+EhkAJWB3M2LgFrFGS4g+EvUxPtzWHXpJ31Tu4MG3DWu9NOOy3FkWWa0eFvnmsD6/Sgs846qyTqZYV/9atf3RxzzDHFSrSYNgLDIzeeO/qFENaCrjm78sormwMPPPBe4lVsHBAmIpa54hHh937zNdczMNtI2wJWvXHp9Vmvjc1c9bffxaN47uYSsEbdRnuMNebzaWtZhJ66L8sy93PN27Cb5dnE0EHbGvb5inr7PavzrW9Ub4dRfIcG7ctc3wn1uIZwceONN5bTsU444YSGMBEeQBFa6FqbMacVymcp5xEDSNThf+KF8MSNN964iGL192A+34kYJ6PL85///Oamm24qJ9996lOfKiLasM/joLhN8jrrxQtf+MLm6quvbp785CeXOeHt4X3v9D/rtg2yFAC8nkb5fSeePe95z2u+/e1vN6uuumrzyU9+sghUveZOu7ywGFWki3ANDywC27LM9SSxz7YTgXr92HLLLcthBQRc4rl0G5tttlnhaPGM+16us846xWvR99PJrhFm6xrC7imnnFKuyZIITBKBFLA6QH/UAhbrnVAp4opYfeE53OIXYzFG4XqIHgJiQxynmF100UXNxz72seYPf/hDsaIioKMkgDxIWO/U7WfCiNxXGTrY3ZNWW85n83azGLMamS/H+lqkfTf65WbqbgSLr6V+SdxDxCFksbY7sUaOhCA/vZBAiIhYwgmRq/vf//4DAzbbhr6upL3pnW0zMledc4k67c1XP8Ej/r4sRohhNlXDiAzta+vfe/U7jAy9hJTaADEItr2uqdvs9XD0uieeuX6Cx2xjrAl/vz4v699rzPp9L2bDq1f/ZxN3QpQZFt8QgwLP9nc53s/xf1wf42v/7rr4V/fJdd4b7b/F7+4hLrT77+/WZkYMXjNyHFmfH/rQh5YN2W9+85uSmJtXLjGj33cGpyCy4FLrrbfeTDLjcQpYhJWf/OQnzTOf+cyyUVysAhYORwAkYD3lKU9pPve5zzWPe9zjylwYt5AlApb1YtQC1r/927+VefUcOORF+GCvRNX1d/7mm28uRsof/ehHzXOf+9wiej3iEY8YeF3KCxOBaUTAu7MWsJy+efvttxfjoe9m7YGu/wzA3sner1G8W3m2+s4mt57GWV5afUoBq4P5HrWAJc+Dlw4LI9GGiONUvFGX9masXf9sny/Lxqxuh3C1ySablFAALq0EChteRWgfUcmpMuKx995775mX8DCbu3642ahr2+lpXN4liGW9q8nOfMOO5jtXNa798J9r3ubbdr/N4yiw7lW3hZPVO9yXWYr6HdVrzPKeSBSOrApHEJYh1DPLaBGYTcDSkveS7+WFF154rw1nuyeR84R3I1HeZqPXe6YWMmtxov2eqYWBtkhQb37b18VGuf1/vRGv+xV/r7052kJLrzaijno8dZt1G7VYEEJAuw/td1H0IcSA+vN+Y2v3Ja6L/vs8cthE/SFCRF6M+u9xf31fL+GiPc+8J9tzVt9X/1xjXfehHn/73rYYUz8P2m5jFvf3em5qbGKcbYyMz9+if+3nNvoT99V4xH21MNTrGYh7vCND4GmLPK6JPta4+dk9dW6T9r3RZvvZbs+dzUx77vq9ddohtnFdewMVv88lOEff9MG/SNheexSE91UvbPwtjCN4lENBvIfc04WAtdg9sCYpYB199NElhN0z8aEPfaisS/1KPBvCGRktP//5zxejKZGNl16WRGAhI+D5DgGLwwMBi5c8MQpn68WB/K1+D/NUlSMuDAQLGY/s+8JHIAWsDuZw1AIWQYWwghiIRZaTqQsBywtwNvIZBCA2dcMKG/X9MS1erH//93/ffP/73y/u5wQsYpK6jdsLlUWNl5ZTZnrVUW/iYgyD9O0rX/lKcT9H8B2/TShEdMPyUOPRxqb9WEV4VU3yY/Me985VR2xE6vvqBaa9WW2PMUh8e8NQL1z9NhGzkb5BsKzv14/2hqe25sRGjxDFXZl3lTY8C7yr/Bxjqdu+7bbbSnJWz4oTpoQNrL766h18w5dWE/1yYHl+Yb/vvvsW8areGM+GUDzPcsCsu+6697q07d0R34P6/7ip9ghpf+/ju9f+vxYWet0T3496E1/3qf68rrv9ffxVl/gAACAASURBVGy32+5zWyjpJV60r2kLC/X7pZ+gMNs4ltaTPPho2+/Fwe/sfeWo61vW/ozj/n5codeaNdv6Mtv1bUGqTgwePCTWlloQ7tVevIeE9sl91IWAVYcQMrbwyPIO1bYwO55K1rLoW93v4AsMPTzPrrvuuuKpzov1b/7mb4r4ghtZN3lawOGJT3ziTP4nQg3PC8WGVH4q9fA88k94kXrwreWXX/5e3ms1XyGguvfaa68tffAux9cYJuQgm48HVj0+HnY8o/TLz/pqfDBjwGwX97pujz32aD7+8Y8XfswbmHfdbMV9sOcR/Ja3vKWMmaApL1CWRGAhI1ALWBFCKJx3v/32K9/d4DH1//Huda/vshMLcbT0vlrIT8Li6XsKWB3M5TgELBZCG0kJkAk5kbthWDGh1/CDONSEz89hpezVRogSo4AzTqgJ0SI8sNZaa615CVjRt0H6GIRYH3h1yX/gvpNOOqnZYYcd+gp4g5LyQUSquQhWEPPoa6/FZK52YnPbnsthn594RnoR7F6kUruDLH7wDwHLMb6ePUQ8XPl7iaSsrJLA+j7ol7CRf/zHfxzFI5l1VAj08sDysc0XC/f5558/p+dVDegwz1x7wzqqiYnnaVT1RT3jqnfU/cz6EoFJIFB/P6ZF1HMyoZNVlXF7YFnTeHXjGu9973vLBlEJ8Zp3lqTnQu96vSeFRRJYDj744LIJdY21knDllEVh9YQY3uNEqq9+9avl2HuFJ7+2tcVIKO8Tz2UHb8R7VlJn3kh4EONR29BkndausKJjjz22eEsHz8JJbY55fTAAfutb3xo6hJBnJGPI61//+nJYi/bimSGs8bJ2sI4NeY2P6xi+CE9f//rXmxe84AXFABnJ4+d61qUggJ065OY67LDDMg/WXKDl51ONQC1gEcUJwr6zhxxySM80D22u5Z3iMCsGSoLwMLxtqoHJzi1YBFLA6mDquhCwWLx4ZF1//fVlkWe9E2rXL94/BA7/Ix3u80IT4/xXf/VX5YQeRISbKUuWl9Uqq6xSTqlQiAs2rIp7qPMsgfJzscCx2LGQqWe2nAMBP2sgCyKxAtHieeMlGyGErJLDCFjqjResHFnqZb0z3n7YxAvbfTDZaaedivu4flx22WXNmmuu2dMSKvcG7N1nvPJp/PznPy/jMS+sqJGgOtogthgbfM0XiyIMe1kT24+oexGrH/7wh+VepMz9cI6+uIfYE8fhus58mSNtmMvAp16IjFu/9NM4jKfXQqUP+u7aeN4Q3Ln671rz4F5tGbP5iFC/eC5ZjNW96aablrnTh4svvrj0RxsW0HYuMs+rkEPhtepGem0McqEd7Uuul4B15513lhO9JCOOEJ5hWu01R71E2PkKWHNtjsclNI2r3mGwzWsTgURgMARwj/e85z3lVNuuBKxYN63PeIL1zTrtXUeMsra///3vL97gdSHoyBtF9CL0RAil/93vf55P1lJiFS4iWTMepfDkJ2C51loa/MH/2sabog9OSuTJhBvW7+BrrrmmpG6Qa8p73xocfC+8znlF88ySDJ8H2KA5sHCZQw89tLQb4hyhSv3WG0VKASKVg0CCD0T/cFopNuD0ile8ohFOaH4HKUKrPAPqcC+jWPKIQZDLa6YVgbYH1g033NC8+c1vLqcJ9ir19zwiJrybOE843GCDDTbIU9indbKXSL9SwOpgoscpYLGcsRCdeOKJ5bQIwolCdEFeWMBCQKmHimiw3p155pnlBYbkEJG8oIgExJt/+qd/KlY5Fizkxwl86lJY01jVkB/JMYkGlHwLvnoQLwLINtts0+y2225FcAjvm9rDS3+PO+64km8AYUHE9OGxj31suY/lUf3EID8PGkIYwhzChvw5hYjoZtziv5FCG+5nP/vZRWxTwivJz0QWp3CwxMq9hET183KT5JOFEpnS57/+678uIY0EJvj7W5BCfWBRRKZCHNSePiGH0adeJ+jBRnJs1lY4c83XZ/cahxDKb37zm8VaiDwif05QRLx+9atfFUslgdHYWWQj8X+9uXc/iyuceNMQgepCzPza175WXOzDnT8wJaRJgisEIzCNe5FbIX02B5LqGou/IaSETp5TkePK351yImE+EQuR1sc4ucg9b3vb28oz1yaVnmmhCwQ+nnshQHbwNV8yTfQSsMyZjdQ+++xTBMdBwwcDNPPYDiudr1hV11mLYLWYVIvV8d2f7wTOJlL12/TM1f5sm6Ual7k2Ve125hrjXNdrr5fw3aveXte1Rcm5xlK/m2Yba/uz6Gevvw/iAWo8c9XR6/ms24vP2+31w6/+e3wfZpuvueY+6ujVp/o70m+cgUEdNh/3tQ0y/u5v1jn/QkyJPvhdPf7163d9CmlwhV71xP2Ba/xuPbS+WjsZRoTAKXjFpZde2ggxbz9v6vCu0meeV7yVCEXqcG0XHlj6j1/hU7gOYw7RBUfAvfRDqghe4HGAjbHKRSNvoPVXAvhdd921rHnWdQIMjy6GP+unMRJvpEXAo5QQsBh7tIH38driMaUQvazzEdLo3a69mFOcQgoHXMLf8Aohe5LSK5dccknhdmHk0gfeX7MJWDikYkz6j+vgHEQ3XCpCAK+66qrimUY4Y1QlorkXd4x3DHENHngWHuNz3GGQgi/iv9oR5YCfzvV9G6TevCYRmBQCtYAlzNieisfleeed17dLNR+of/ZeJJ4TeRfrAWKTmqdsd3AEUsAaHKt5XzlOAYtYgnx5GUWxmQxSSiV3LHBY3eIaQgaBgPs5ESpIariuIwIEHEIVl3Lkhvs5LySFR5ITWggRhBd1cIePMMMILVPPFltsUcgIUql4EfocMeKSSmQKa1+9iUVAkQeCBxI0jICFtHKPlbjTz9pDXrQdHmVII8KF3MRLOF7Sxv3yl7+84MragEi1RZnAUhtEKkRKf+WVkHRegbGTE80HcYWohIj6WVvIKgyNX4GRRQVZrBOQI+ZEHQSb2FhvjmIDTUBCwrm/Gy/ySITyOQumRKSEL1ZQhL6XBxNCSIByv+Sn+h/F34hjxx9/fNkMKEH0I3RAn7UJs8jL5j7twTrIMIHVGJBgBf7ELc+c5/mDH/xgcVWuvXmCOLvW3BLa2qSSeIrsI+obbrhh8Qhi4c4yOgT6JXH3DEukb6PhOzeoiFVvSMPDznepTsZcb+5jg1JveOtN+GzCQ7/r4jvU63PIxd/bm2aftf9W11GLF+3+xu/ttuv24uf62qg/PouZrb8LvkPt6+rf6zbaePX6Pa6P8KR2Xb2erhA02n2PawOb2nOkxqg9Lm1aT/rNRRv3OuS9vqeXgKXeup/tuarHV/e3rrd+Ruu+h9dy/beov3524v3W7ms/AawWhOLeup/96htk7tt97fWM9Zrz+ln2eXxX2+/p+b6Nov4Yg7Ul6g6Pn/jM2kIAsl7JaeX9VKdFiOsY5QhHBCDGlMC7l4AV/KT93Rt2PAQqQhleYx55QjAWxvOtbTxC2gJCE/GJIGTtNl7rG4MUAyBvamN0cp6NqXtxCsINwxCvZOPGd3gx9xKw3OdQHEYhz6txuoexSjve+bgFg1AYRIXk4Qj4iAN2GEL/7u/+rozHvTgLgxtRjKCm34xLgwhYtec9b3weULzA6mcKN8MB1M24KMeV/DzBjRgfCVi4j1BDXLPXd7/X3BkTLofn4tBwm018HXb+8/pEoGsEagHLXohATaSNPHi9+tPLSBPX4eFEd+8A781RveO7xiXbW7gIpIDVwdyNU8Dy0kBuvIi4dhIUiBTICBHFgs1KxnIW1icLuuOKCVuEJ0IDsQYBUhAmYgkSgYgghrMJWO4RrsZr6xnPeEZpE3ngFYZE+R2BIMoECSDgEDR4dfmcCMYVHAGycSVa+Yw3h+Jvg4QQxrUEEIQFaUX6dtlll0LcjIc4ZXzIFeyIMkQXfYsXNsLCe0loIG8qFr6w6LYfGQIW0ck4XIOEsjQill7w3NhhyBMMUSX2IHxc0xE6feSdhKTx2rIwIIMvfvGLZ05VQliNgUhoHolMLKVwF/rJk841+h8eS+Z3VAKW/psPhJj1l3CK8K+99toFU4sgLzVWT88g67D5hanxGitLLWxg6VmFl3mWP4Pg4Tn80pe+VDCBA+unZ8rzqh7CHxLumTendRhkzAnS7B75rwh25llfs4wOgX4ClufA95S1moApJKa9YezVC8+BuXeCJI9Sz4h/dX61uK8WCfpt2msi1SZVtcjRFhzadfdrc7Y6Y2PbFo/qDe9sfWhf166vPbZ+pDFCeecafy/RZXRPyuhrmstja1QtDtNO26tsVH0YpJ7aKj7XBqR+Foa5r/09mKtf/az2c91Xf97eOM21OYo5CEMY72CijiTFOET7hEb1MbbIjcRrmDgSIma0XQtYwuB4To9DwOJVFbmp9FMbsW7y7OYFpb9EOP3wOU5C8HIdAxxegRfU4hs8eVfgIPjWbAIWbsWDlhEsxFXjt3bjj7zMfUa0IrzpZ6RYCIOT39vz5B1uHvAGZRABS7u4jPQBeId74VDzL+3grjiB8bvHWo+z1QKWKARjEGLIu33QwhBmLWLQq3OizfUcDlp/XpcIdI1ALWARrIn73icRjjvX+lF/7h3hfUIgFg3B+zK/G13PaLaXAlYHz8C4BSzkhYdQvEC8XFjrCELyDsiFxZImLE8hzhBHiAYEEMIEK1NtWSYesMaJk/bi6yVgBTlgsUNstFcTKCIC8oTssIyxvOmLQuwg+iAXxB731yeQIS4IGxFEH5RBBSzClPERU+IYZK7ntfWWSMfCRvwhcCBvTtyJDeMXv/jFUof+EeKMo98LOjyw3AsL4o0EoHUYIIEHxgQWXmw8VZ7whCfcwyKIxBJ6jJfA5XeeSuaJq67nCFlk8SAQ1B5aLIYImnqRePMwKgELCSVmEhcRYc+MdiSYjeIZIQyyiBJQiUueOdfyeDMeohSvL5sLfYcnfImrPPT0WVgA3BUk0pwIB0Re4cJDrd4w1nMSAgqhlIBJ5EJqEdAso0Ogn4AVc2F+iJVCWn2/epV6I+iZ9ux6j9nMZUkEEoFEYFAEarHLZsza7X3C+BTruf/jnRMGM2uodb1f3kbrSYQQMu5ddNFFA3vwzNX38MBikMJrCE0EImPxL/rKkMWD2xpqPccD8Ao84ROf+ETpO5GO2NLLu0goHF7GS2k2AYtBTD2MZ/WaiodZn4lluIiwRoYr2BKLGJysyQ7uCM+u9tiNFeeBp2vCA8t11omdd9658AAhSQyrvMeM1fwYHwNgew2POcf1cBEcEwdmtAxDLT5CbPNM4GTqG9QDy/i0y8DGk5ugliURWMgI1AKWd4joBClefMf7leDa/sfTXOsdgc+LBmEASOFqIT8VC7vvKWB1MH/jErCEcfEgIhQQYcJyZkgID48GLymiCo+oOH3GQm9B90LiDcO61T7FBdngLs6Dh5Awm4BFmEEi5GGoC1GFaz7BjIcVoWydddYpZMOLU6ibFyOBqD7hzwsxPL/kLeC95fe5BCyhS16wIZypRxLvCO+LcIOwLPpM3a6TW4tXkOJzfUPQ9BVRDFGl1+MSHljqIcKZb0JNHU6J+CGi+udnBLv20lAvi6K/n3DCCUWwIULCC/mU40pfEEFklxjZFm+IlUQ5xM1n8wkh9CwhfRFCKORRMb/EKX1AZokN4U0XpNDYPFcRdogQs6K6xwZAjjbPIqup0wEjXIIgIhzAdSw5Ng3KsAKWeQsiy0It1EFbsMsyOgTmErC0RETlieV55gHR9qiIDaX3Fws/sStCTkfX06wpEUgEFjMCsaYTPYR7MYRYf/0eJULa/M6gwihmPQ+DVT9RoysBy/qEpxGCag7nnWn94iGGzxkb8ci6aV3lEYa3EVkYa3oVHBEPxG9mE7CkebDGR+hx1AUDxkU80MY1BCzGJPdIL8ELmxDVK9eqevQBd8MH9ZO3eORSNW6e5bgPAQvfs+4z0jFC9Su9PEv10bpPaPM5oyFhTxQAYYunCM+TQQrRLXJgMeTqc27UB0Eur5lWBGoBy/5C7mT8fi4vefd553g3yFNrH0DUjRQk+b2Y1hlf/P1KAauDOR6ngCVk76yzzioCU5TYLCIDRx55ZLFuWYCJGwgS8sYKJm/AqaeeWnJZ1cQp6pGvyD0W89kELFZMIk478ThvI30QIqYtZIzLKY8aAgZRDWmTH4nApUTf47hkScV5+gwSQkjAkvdCe17MXrg8oVgLQmwJC2eEKRKn4CP/klwNsbE2Z8Q3YxDax+I5mweWe42fhZTLvGvrnByEQlZF/UCmeCgpFpJ6AWHlDdFR6AAvNe77SJ57uenzUmrnuFGXMckbpR2ln4DF84trfK8cWNyKPQ91Diw/hwAHP4Ig0qq9OuxSmzYRvJ4UhJRop6/EQs8CYQMRFrIRC6Fnq00s4TdfAYvA5hkg6vL08x3JMjoEBhGw4nnkDeG7YRNRP+fm13NBuCKGyi9Xe9aNrrdZUyKQCCxmBIg7DCc4iHdTr8JwwhhkHeNJ3C/Etr63FrBs2HgbDerBMxfedQ6syNXYNgBq39rv/WktlILA+q/veAbRyLqJq6ijV+HhhZ8xhs0mYBFpGP7a48Nh4CqMrxawGCVwOOIZ7oaDxinN7X7wwsU5jKFO4u59z0haC1g8sFyH++AL+IV64wCdqDuMfzDyT7+NAd+LzTb+Ks0Cj3AiHk+yQT18GQ0jByoPMSk5RjX3cz0b+XkiMA4EagErRHCG+rmKa7078Wohh0TzMM7PdW9+ngiME4EUsMaJ7v/UPU4Bi4WJCIOcRImNokTXkXPJNbyebBpt6BEPIgpSFqe7tXNk1ELTbAIWi6a22iIYYYjVkOu2/vG04pYttE9iUCROniLiWrjP19PhhSvZPLGDS/cgHliSmhJxiChBcmazsIb7LFGJ6BUJdwlJPLBYDVn1hKXNlQMLmSTaeNHXbRLVWE5ZOJXZkoGG55n7kUYCpH+shwQyfSEgxdjqsEg/E26MRZnNA4uAVYcgul7bngseWIQmVlD5wcyj50geiXa7bVGv7j/yaB7gwgorHMI/hDaSQRPRzC9rJwLKeqoMK2CFMMmSyxKrXSIbgTY8Dzv4qi+JJgYVsIDhObK58f3xPol3E8HKxsVzxSsiSyKQCCQC80GAtxVPT4amWiSPlAjC1qyZDgjx3hnUY6ArAYt3cnhg1ePXPq91AhYOEQIWjiJ8BxewucRbGAJ68RwGQAZLPGouDywCFn5Yl34CFszxI+92/cFtHJ4S2Mb/kQoC77NG1yGE/QQsawYvcxzR+Hh045h1aGVwBP+H0dP4Xa9NPzOaCJ+MXD8MqDzX5zKUwN3GHo+w1sFa1EJu2ufz7cx7pgWBWsDy/ZTOxXckis8947Enst8gWPmei06peVovh4dpGWf2Y+kgkAJWB3PdpYAVG3nD4lVEUCFA2MgjMggKLygn0zidTZ6pyMXUFrAkYSZCOK1ivgIWbyGCSi1gycugXknmnTCDrMhV1auwolH/eULNJWAhcfIdcI3lfk5wIs61PY3a7XgZ87Bi3QwBi3eYF7d8TeF+3u8I5gghJNTYkPM6qskkCzECHaIaN/pBjp5FvpDXwBA5UzdC1Q41iBPfiF0+7yVgEYqE6sGc15vwrSjmnkeVcE9EVH0ELOTYzwgcLyrPD8+mtvjVxlR9PLngYSFECiVjlwfLqZOev2uvvbacosTiao48nwQzoWRtAcvYWZNny4Hl2Yc1y7CcHDz3bAAiJLGDr/qSaGIYAQsgNjvCXYhYNlLmkqXcs5Fhg0vikclBJgJjQSD4DqHG+m19C0EDvyFaWdutedaUYUSILkII5ZYcRsAyFjxDeDYPIdyOR5kwPwnS6/ERvazbhC+i0CgFLNjwevPPmosz8FKyyQ0jF94grQGDYhjvBhGw1I33MaS5n5EWn7OOB0c1xz5jFGXcxDF4WQlNjPZhY53Bu4wdJxgkHyascB3eYHiW+4lpuWkfy1c4K+0IgVrAivdEvV/UDc84IzKjr++OPMfBnyNce1ADQEfDymaWMAIpYHUw+dMgYPHAEhLn5UMUkWfJi4o4guT1InbcqOU54DkxHwHLxhV5CgGLBQzRQXiEJhJLCEYSZPLEahcvVyFIYb2bS8ASQqhN7bDIElsQO4JG2zoZJDc8mFzrmrDeEde43ktmT1hBoPq5n88lYGnLZl2+LTgbE5f/tiWwzhOkLxYMIhziZR78Ltmq8M/20ewh3vD04pbfFrCQWUSZGLn66qsX4ZLrf/TB/wQsIQssjyFgsX76zPiFQfoZvp6lOnywlydWeJrVpDPG6BlAQBFbJJQ3niLkT3iEUocQmh8Clk1JjVNbdDVOgqewAcQXFnOJbR28AhZVE8MKWAbv2bXpIi4TNoWH1GHPiwqgHEwikAh0hkCsXbzAGewIPPJy8vy2zloj5hP+VQtYPBEYXYYRwGYDoA4hHEbAEs6GEwjhw3EiN5O1jgGPccxaSdSxruJfOJGxMFjhXJFs3UE2T3/604sIhl8M44FlbNbvCCPER3hRE6vidGDiHJ6Jg/GMNg/1KYT9PLD8XZ/wufCqw1mlHIhcr3JwEczwV3NCmLK+MHDVRdgg7oXbSO1A5AqBq9/84Lva413GsMoIhp/O5xnq7EuQDSUCcyBQC1ghVtUCFhHY+4NI7ruWOa7ykZp2BFLA6mCGpk3AQgos0F5eiA+SEe6hsbgTD1ighKQhP6MUsLSBnMjVhFjwTkI0wsMpXqrC9yQwJUK4B/GSjFS4od+NQwJohI07PQKnr/I9CEfj8UOMMQ45FNwTubUQPG7iTtUjcCBwtXePewlY5557bklOH6c49iI/gwhYBER9QcyMV44Hnii1CMSdl1jFKwkhZFFGxpE1RNznPLeQVqS3JuZw5CpPbIs8IHUIYbRLIDJecx5WRV8BmMPC/UiuwtuLR5R2eNDwmkNE/U/Q8kzEXLlGu5514YJIthAxIRs8+YheRCvzIBzA+MLrC8bCW+u8W9pHvCXajZPsEGJz388SpC8s8bAxXgTf85vEc7QvufkIWHrAsk1AtcFp53sZbQ+ztkQgEVgqCIQRxvpgbWUks57U3p3z8RroJ2DVxq/5YjxfAcuaGnkz5ZvEKXid6at3qnyf+BBPV15M1no8gygzSg+sMErgY1IdWKNhzCjGC0oftM/jGk+wluM1g3hgBabGZT7xOZiLFOAZYqPtM4fVxME2UlXwFmnPs5OcJbzXPr7DQIcPzCZEwg7fwlvUKbwzvMLnO995XyIwaQR8h+yLnLiuxN4DF+ehyvhtPxgpZSbd32w/EZgLgRSw5kJoBJ9PQsCykIdFMkIIhaRZvIXw8XKx2Ud8WPV4RBAXfC5cj/gR+Y9A0EvAYpVUNwLTLwdWrxBCfUNAhHgRqYgcxCf1+FmfiCnaJ1LZ+NYCVri09hKw9NW9LAjIlZe0xK2IX3gt6TPPovCIElpHFCLiecnDwP+sua5RvPR5jfUqBCxEC7ESvif0ri2aEAR5T8kxRYTiok4gI1CFeKSfhC0iGwJ+8sknlzrvuuuuYmlUN2xYSQhRYW2NhPTEPCGPISoRmRBc2LlPHazSfmZ5RebMK4z0T52vf/3rZ7zQCFhwcr05IPLJmaboC48sY/E5zyc4wExxshLMEGj9ZyH13BmvkFF52GCEWLJss97qt1xfwh4UYpl6EFWYELqIU4q5bOcS00cnahJD9cl4YJxltAjMV8AabS+ytkQgEUgE/tv40vbEnY9g1cayl4BVr+vL0sYgApZxRRL3yIEVApa++vzf//3fixGPt7z1T4lcUNZ2Hq9EHCIMDyw/R07IZfXAij4QmBiLeK1bs0PgI7QRrCIvqPW/PoWwnwdWzIM1n6ERN+RdZXzqj6J+G2/GuF4e/K7DL3wmXQEDJW+q+lTi9hziUrgwDgFHfAknaT9j+b1LBBYaArUHVoTD+k7g8ZFDb1neaQsNj+zvwkcgBawO5nDUAta3v/3topTzdGFdkt+qTuIeiy1RidBAkHINASvEDWFovJu4ohMCeLqE9Y64JHSOFc1nvJFYoBAVJ8IorH+sUwgFjxoJvnslcefCThSpc2C5H1EgMPDE0j+ChPbXWGON0kfHMyNnwhxdGzmwuHXz4EAuCVgEmtoDK0jVFVdcUXJEsAASTQg2QhCNRxJ5OaCINlzSCTvygtVF/Z/97GdnMHMaII+xXt48EpPzaEOoCChCJtvXIWMEQ4IKIkeY0idjtmjAmwcVLyUWEHkXhEGE+MQLS0x6hDEQ29Zdd90iOnLlN17CHZzvuOOOgk8tYMGUZVEdclApwvH0gWhI+OIdQ9zzD6bGQcCKPriG0GRujFWonn8svPrvmUC0eUkRQIV+htebZ5EwhVASID07LMbCAiXMJ4roh/n1mYKwIr+eLeMxVxKzE8UIsATUush/JjzN98PzBG+EORfl0b7kUsAaLZ5ZWyKQCIwGgTokZlk9b9s5sHghjyqE0FqNXzDuSKbMa8z61y44kPXaWsh4QxCKcVnXjBcPtPbiFfic9dha+cxnPrOssTyqCWY4h/U7Qrfd5yRD3ATniFOq6z6oHy8gfKmX0RGPCp4V6zt+Yr3FMXguSbegDzyZtIdvEqPwE+34PAQ46z+s8Rl9brePf8pJKi0AL3S8DWa8vfQnvOt7PUFh+JImA1eV1xQvYngLoS2Mlq4lwsm9ZY0T7oiPwCZLIrDQEfB8i55gQMbfCbNCgKUU8d0Onpxi7UKf6aXT/xSwOpjrUQpYXi426IQrBISQxVOnzicTJI54xAJHNCCIhICFABFKiCHyAyA+RIsQKrzMiAw8ouQoQo4IJkgMoUvxNwu9emY7hTC8fvSPpYwXTxAH9wqt43VEyCBUxQkY+sBlnGeTMDAEjNgTIYTqUJ/PFclEWcuC1KmH5w4BxIl7UTeiFCfgsUS6zzjap++oX0gCAoacGTfCidTURX0ELGIg0YRIw5rRi+jqExFQuCMsESpz95bL5AAAIABJREFUoW+KRYU3GBGMlTD6FGGPyJXxIHwxHv3UB8TQ4sSiwrvLPbWA5Xp9Itx5JpDNsJZGKCNxSPw7i4z7I4Qwxqst8y5RPDLvmYn58lnE0OsjQh6nNvqMqOZQAV5aIbCpV9+NkygpYTw3f/XEZwgrbzqea0i865FPghjPwbpvng2ipefKcyZHRi3sdvBVXxJNpIC1JKY5B5kILDgEgltEx5fFeFELWHgA7+NlFcVGAWiMsZf3EEOfdd4aWqcYGEW7g9SBU4QBzPo/KsEvOK3xKcbX5mz9+sfLH/cl5OFH+DIjWXjauw9W+o2bRd5PG/z2idKDYJDXJALTiEBEUch/ywjMIF3n9V2Wd+U0jjf7tPgRSAGrgzketYBFUCFOySlAhOGFVJ9qF6IGoUMYlxcX13Ou1CHguIb4wGLmGpY+G1PEgIWNMs/KRQQgnMhPRdDgtaMQlAhP6iO2EA7aHljaJZJx/9Y/QgSRpC6EFUKT3E8sbPogeeB6661X4rV5YBE+iHU8ewhFcXoeQsIl3FiE3DnqNQSsIDzuI2zwupIHAsFCYlgyCT4slL3EK310LS8vp6cpQgOJPzy6lCCS+sHVH3abbbZZERX7LQbw4jEFc27t+hQCFGyMGca9QiK0x8tI7i4iJoHNdcbAg0yIolxTMAoBS3hBXZe2WELNCRGLJThOHdH3CD01PngSlOqiD+7Rf55Y+mCeLYTCBGFqnnolzUc+9dt8uI/1WdvEK7m3CJTui3sj1xURS4inBZeHF2LMksr6GoUoJoEsQdTiTHjloTUqAt3Ba2LBNNEWsFjHk/wsmOnLjiYCixaBpShg1V5n3sOTfBfHmh2i0KgetH6i3SDeIq6RR1WYI+7DuCWxfH0KcxgX8WQeZPinJPhhsJ0kpqPCMOtZ2gjUApZnn9NA5B3O53tpPxsLdfQpYHUwc70ErGVptnZ97kVY4nNkoi0qxYJfL/x+9nLjqk0cIDaFdSoEoRC+2mJGCDn9iFMQmkFekDzF9EH7RKL2PXXfByVINaEimCAq6ud1NFsJDAktXN6vvvrqEj5JIHFsdS1gDTK2Xm3pmz6FV5E+tccY97UFLX+HlWI8YW110k4IWML4hAzWWNUEHxZEJcJbuBAHGR6ECLuWO79nRx8IgbNhEWPTrrnmKWWe69CJXoS0Jq/9PieAErUIfES0NkFdlu9b3ntPBAhYRNMI+xC+Ot/vQGKbCCQCicA0IsC4JiE5QUNoG6/j9um/09DvfuLOJPo2rr4MIlTNNl6GL57j/jFqOY2Qp1WEEjJw+hujnmgD/IFBsA6tmgSe2WYiMCoEeBjixriysFsGYdw7uduoEM56ukYgBawOEB+1gNVBl7OJ/0HAJl0id+FtPLJ4NPEI60Vkp2EhEKIn9JNIFALWNPRrHA9UkGUhAjy4vvKVr5QFmdegkIEs40GgLWDxwMqSCCQCicBiQoBhhgcOj3f5KG38ehnWFtOYF/NY8AS5SuUUY6jFj6Q6sLGX7/OMM84o4hYve6kp6lxjixmXHNvSQICxmoBFiCfSSh3DA2sQY/XSQChHudAQSAGrgxlLAasDkMfYBOIjjFCYoJA3ecOIRDyXao+maRCKQsBiPZYDiwfWNPRrXNMjdFCeCqGTyKf8YXJ4RR6tcbW7lOtNAWspz36OPRFYGghY2yUKdxCMU3PljolUDYt5TV2ss2s+cTnpLxRexNIXELD8jUc7gVIqh1GdNrlYscxxLTwEPN9SwxBwQ8DCk9tROgtvZNnjpYpAClgdzHwKWB2APOYm5Apz8p0cThKDCyVklSWaBJmdBlIrobyk+gQsFkanJ05Dv8Y1PVz9Je9nXeJ1xTtODqws40MgBazxYZs1JwKJwPQg4NAWuSrlRDr33HPLaczLGs42PaPLnkBg2oyQOSuJwDgQYOyV01akwqqrrlryAocH1jjayzoTgXEjkALWuBFumqZfEvfFLCx0AGunTQglZKWT0N68OSFxjTXWuEcfpmE+nczITX6pCFgOAJAUn5BoTh772Md2+lwsxcZSwFqKs55jTgSWFgKEjXXXXbf5zne+U/JeOrjEwTZZFhcCKWAtrvnM0fRG4NZbby2HXTmVXWg07pwh0fm0LGQEUsDqYPZSwOoA5I6akFtqmnMjnHLKKSWkTv4OR0LvvPPOHSEzmWbqE5j0IOP5xz8P9SmENniZA2v8mGcLiUAi0C0CjFaSt3u/ObXYSbirr756t53I1saOQApYY4c4G5gCBBxI9ZKXvKRx6I732de//vWZE9WnoHvZhURgaARSwBoasuFvqAWsAw88sDn88MPTDX14GPOOARD4xS9+UY6KVoQ7POQhDxngroV9SX1yop/r/BULe2TT2XuWvJVWWqm8w572tKc1l19++XR2NHuVCCQCicA8ESBgbbLJJs1FF11UvHs/85nPNE960pOSu80Tz2m9LQWsaZ2Z7NcoEfj+979fTuq+6qqrSvqTCy64IHPFjhLgrKtzBFLA6gByyT8322yzQnxSwOoA8GxiySBQk88Y9DSEci7GCQisCVhCaVLAWoyznGNKBBIBCBCw5FX87Gc/W9IFnHrqqUWwz/VlcT0fKWAtrvnM0fRGQMjg9ttv3xCynL55+umnl9M4832WT8xCRSAFrA5mzvHLBCyE6IADDigeWPnS6AD4bGLRI5ACVndTHFjLORa5YNZff/3msssu664T2VIikAgkAh0ggK+96lWvKifcrrzyys2JJ57YPO95z+ug5WyiSwRSwOoS7WxrUgjIfbXDDjs0N9xwQxGy5Mu9z33ukxELk5qQbHeZEUgBa5khnLsCrpoELPmT3vCGN5TcRClgzY1bXpEIJALTg0AQ/VtuuaUcP+53ruiXXnrpTCfzvTY985U9SQQSgfkj4P128MEHN+94xztKKP4HP/jB4pGVZXEhkALW4prPHE1vBM4555xm1113beQwlSf3kEMOuccp6olbIrDQEEgBq4MZI2Bx2XQy3P77798cccQRqXp3gHs2kQgkAqNDoC1gqZmAdckll6SANTqYs6ZEIBGYAgS873gpvPa1ry2eCgyP++67bxofp2BuRtmFFLBGiWbWNW0I8CRlWPz4xz/e7Lbbbs3vf//75rjjjivepXno0bTNVvZnGARSwBoGrXlee+GFFxYBy8lw++23X3PkkUemgDVPLPO2RCARmAwCQfRvvPHGchoX8vOsZz2rufjii2cSG6cH1mTmJltNBBKB0SNw1llnlZO7gru9853vbO573/uOvqGsMRFIBBKBMSFw9913F8eJQw89tHhdyX+15ZZbjqm1rDYR6AaBFLA6wNkGb/PNN29+85vfNHvttVdz9NFHl5dIlkQgEUgEFgoCIWBdd911zeMf//giwssJ45TVEK5SwFoos5n9TAQSgdkQ8L5z1LywwZtvvrl50Yte1JxyyinNgx70oAQuEUgEEoEFg8Add9xRPEnPOOOM5uEPf3g5mILxMUsisJARSAGrg9kTYrPVVls1v/jFL5rXvOY1zbHHHltOf8iSCCQCicBCQSAErKuvvrpZa621ioBFmP/c5z6XAtZCmcTsZyKQCAyEgPedhMcErCuuuKJZc801my9/+cvNSiutNND9eVEikAgkAtOAwE033dRssskmDeOj99i5557brLbaatPQtexDIjBvBFLAmjd0g9/o9Idtttmmue2225pXvOIVJf54ueWWG7yCvDIRSAQSgQkjEALWlVde2ay33npFtNp6662LO7qS3lcTnqBsPhFIBEaKgNCbnXbaqXgu4GwELO8+eWUI+PnOGyncWVkikAiMAQF70Oc+97klD/MLX/jC5swzz2zuf//7j6GlrDIR6A6BFLA6wNox8/IocEPfdtttm4985CP58ugA92wiEUgERodACFhOHdxwww1Lxdttt13z/9k7D3CrirNtj0qRJgICCvYWNfbYS1RQUaLYOxYg0dgLdo29d/SzN7Bh/USNoKLGqBgbdrB3QREBFREUjP9/T/Lub1jufc7ue5VnXde59jlnrzVr5p5Zs2aeed93brnlFllgVQ+zUhIBEYgJAYQqLOZPPfVUv4v0EUcc4X/Hgl7iVUwqSdkQAREoSIB+i51U6bfatm3rTjzxRHfSSSeJmAgknoAErDpU4SuvvOIFrI8++sgHzrvttttcu3bt6nBn3UIEREAEqkPABKyRI0d610EO4ipceeWVErCqg1ipiIAIxIzA+PHj/SY8uOHgdvP000+77t27K45pzOpJ2REBEfgPAcZqCOx8Tpo0yY/XmIcutthi7sEHH3SrrbaaUIlA4glIwKpDFY4bN87tueeejtgxm222mQ+g17FjxzrcWbcQgcoJsAptR6FVZ61GV8457imYgHXHHXe4/v37++wed9xxfnt5+07tIO61qPyJgAiUQgALhn322cfdddddXrRCsB84cKB2ki4Fos4VARGoC4FwLMbY/eabb3aDBw9233//vevXr58P+dCiRQtZkNalNnSTWhKQgFVLuv9N+8MPP/RxFPBD/sMf/uCwYFhooYX8t5rw1aECdIuKCLB75rRp07zbBD/E/mjdurX/3VZ6KrqBLk4EARsYEcPvsMMO83m+8MIL3VFHHSUBKxE1qEyKgAiUQ2DEiBF+EZKYWFtvvbW76aabvBWWxm/l0NQ1IiAC9SDAuJ3FxlGjRvkxO+Fr6Mc096wHfd2j1gQkYNWasHPehJPdBzHdxASdrZm7deumTqQO7HWLygggWrByw4vQxCoG7Wwl3qlTp8oS19WJImAC1sknn+zOPfdcn/fhw4f7Xbo4JGYmqjqVWREQgSIJfPHFF34Mx0Swffv27tprr3U77bSTdpMukp9OEwERqC+B2bNnu4ceeshvHIbwvvHGG7sbb7zRLbXUUhLe61sVuluNCEjAqhHYMFksWA4++GA3bNgw7zqIK2HPnj3rcGfdQgQqI4AoMX36dPftt9/6nZdMqGD1mYCQOrJDwOp/wIABucDtb7zxhlt55ZWzA0ElFQERyCQBXG9wJZw1a5ZbfPHF3ZNPPumWWGIJPxnEtVCHCIiACMSFwGeffebWW2899/XXX/sdVHF9RszSIQJpISABqw41iQjAzg8XXXSRH+ww8Fl//fU16KkDe92icgK0X8QLPlnV4RNzZA3aK2eblBSof/ouhExM0B955BHXoUMH9+abb/pJnA4REAERSDMB+r5BgwY53Al5BxIWAhfqzp07+2LLnTDNta+yiUByCNBXsdPg1Vdf7fuq7bff3sfCWnDBBf1uqoQBUX+VnPpUTvMTkIBVh5ZBB4LJObFiEADOOOMMvx1zmzZt6nB33UIEKiMQuobJTawylkm92kTMl156ybvSIFxtsMEG7v7773ddu3ZNarGUbxEQARFoloAt3nz88cd+J2nimmKBfOaZZ7r999/fWzjo3dgsRp0gAiJQYwJYiN56663umGOO8d4TPXr08KL7GmusoY0nasxeydeXgASsOvBmYEMAdwY+KOOYdZoFQx1ur1uIQNkECg3KNVgvG2kiLzQLLPotzNCnTp3qDjnkEHf22We7du3aJbJMyrQIiIAIlEIA64Xbb7/dHXrooT42JJvxXHLJJW733Xf3FsmhVYMsHEohq3NFQAQqJYCBxN133+2NJb755hs/Nrviiit8nFJEdh0ikCYCErDqUJsMegiCvckmm7jx48d79yssGJZbbrk63F23EIHyCUioKp9dmq5EwGJwdPnll7sTTjjBT9TYiWuvvfbSql6aKlplEQERaJIAi5BYXl1//fXuhx9+8PFM+XuHHXbwm5vYIQFLDUkERKBeBIi1zEZhp556qrcQRbAaOHCg75usX1KfVK/a0H3qQUACVh0oIwKwCwSqOK6EHAR0JyCoDhGIMwFECwRYXnz4zduPXoRxrrXq540+bPLkyY4A7uzERdwXBku4EeoQAREQgawQoC/8+eefvRXW0KFDvbBPf3jppZf6WDPEBtT7MSutQeUUgcYQsMVlPhGv7rvvPh+aBlEda9Bdd93V3XDDDa5ly5bevZkfxu86RCAtBCRg1akm8Ut+/PHH/dbLDH4Qr9gVgi2ZZeVSp0rQbUomMGXKFO9Hb20U68FOnTrJHLlkksm+gPp/9tln3ZZbbul++uknt/rqq3s36G7duiW7YMq9CIiACJRB4Msvv3Qnn3yydymkT2SiiKiFazUbW2iyWAZUXSICItAsgXBH8C+++MK7CRKwHUMJLK923nlnH95h0UUXlZjeLE2dkFQCErDqWHMMeFihe/HFF/02zPgqr7vuunXMgW4lAqURwOoGAYsXJgNyhAxEC1aZdWSHAPV/8MEHewtSBkiDBw92p59+uiZp2WkCKqkIiECEAJYPxx9/vF+M5N2I5cOSSy7p42JtvfXWrkWLFmImAiIgAlUlYJvqPProo77/efvtt72nBMdhhx3m3QbZZEK7DVYVuxKLGQEJWHWsEEzNGegcffTRfrBjHQ2B9mRyXseK0K2KIoBo8fXXX3vzZNqn/SBgaQfNohCm4iT6KnYfJN7VBx984JZddlk3evRob2XAob4rFdWsQoiACJRIgL7xu+++c3feeac777zz3Oeff+5TwKUQAQtLiPXXX98Hew/7Slndlwhap4tAighEn3/+jo6lzO3Pxt12DovKzz//vLv33nvdww8/7DeTQLxiPMbOg7gO4iWBmK5DBNJMQAJWnWuX4O1bbLGFjydDYD06oU033VSdTZ3rQbdrngCCKwIWLq+s5CBo8VJEwNKOJs3zS8MZDJqIqUD8PuK90AYI4n7WWWfl3Eo1GUtDTasMIiAC5RLgXfnaa6/5fvGxxx7zLoX0i126dHFrrrmm69u3r+vVq5e3vMcNH3dDDrPQsl1eo5NYy0++CW65edV1IiAC8SOQbxw1Z84cxw9j8M8++8w98cQTbuTIke7VV1/1uwxyMBbfbLPN/LhsnXXWyfUtWliMXx0rR9UlIAGrujybTY2BzjnnnONX6xjksErHbl7du3dv9lqdIAL1IGCDZQbVuA8Sv42DVR4G3Kwu2wC8HvnRPRpDwFYAiXW19957O3bfYudUXJ9XWWWVnOWVBKzG1I/uKgIiEB8C9IPEjMQaC7GfHaeJScOiDwtALFguvfTSbqONNvIxBJdaaikfAxVrZtx9ELY41z4thhb/48csMeJTYuVEBESgGAKMpW08ZZ/8jzG17fDMfJD5IZ94PTD2RrQaO3ast7jC+p0xGOfQH7Rq1cqttNJKfqdBrK4Yl0u0KqY2dE5aCEjAakBNYnK+7bbbujFjxvgBDC6Fxx57rO+QONQJNaBSdMscAROw7NO+sJct4pUC1Ka7wVjdv/POO26PPfZwb7zxhp9kEbQYayzrq9JNQaUTAREQgdII0He+9957fpOL+++/32F1z2QUSwqLk8WklfcoC5e4+/DTsWPHnJAVilj0teW8czWOLK3edLYIVJNAOH420YoxtI2jzbKKT4RuRCs+p06d6j10sLDib5sT8jyzgIzgTezkHXbYwVt1Lr/88tXMttISgcQQkIBVx6qiE6PzQj1nK/r+/fu7adOm+ZW5hx56yK/MSRioY4XoVgUJyGUh243DYrscdNBB3qKAo0+fPm7EiBHeQkCHCIiACIjAbwmYRapNVseNG+duueUW9+CDD7qvvvrKW1yYiyFXMx40Cw0mqdGFI7sD51mg5nzcQ8FK4pVapgg0hoCJVaXcPd/zan0BohUCdteuXb1ohcUVlvAI27LKLIWyzk0bAQlYDahRBiG4ZV1wwQXu4osv9io7ndNtt93mevfuLQusBtSJbll4IC422SJgrjBsw8zWzEy2Vl55Ze/qvNZaa6l/ylZzUGlFQATKJGCxrRjzMc7DDejjjz92n376qZswYYIXtLC2IBAzlvlmiYE1BteEk2FbAC0kcEUtPsrMsi4TARGoIgFEJtsN0AQn/kaYMutKrNvNlXjBBRf0cWaZEy666KL+ByurZZZZJrezoIneErCqWFFKKnEEJGA1sMoYtBx44IFu+PDhPhfs7kXsBALxafvlBlaMbu0JYNpcaCcTrfCms5EwCaJfOvXUU714RRtgIMXvuD2rX0pnvatUIiAC1SfQVHxAYtkgWLFAQJBm+lqz2sonXpVi2VFI5Kp+CZWiCIhAUwRsrByKTSZqmbDFOJuxlcW2wsqd4Oz5QjUo5qjamwj8h4AErAa2BDqijz76yA0ePNi7EHL07NnTB3jfZpttvGuhDhFoBAETMuzly4vW4nJo1acRNVLbe9rk6P3333eXXHKJdxtEyEK8YmetAQMGKHB/batAqYuACIiACGScAO9is9wrZqGwmHMyjlTFFwERSCEBCVgNrNQwUDKB3EePHu13mFh44YXdfvvt54488ki30EILKS5WA+soq7emHX755Zd+RdgGSGw4QKBZs8LRwCk9rQMrgKeeespdeumlfqtm+iYCDJ9yyilu33339auBOkRABERABERABGpLgPcvQbwnTpzoVltttYJx0ciFxmG1rQulLgIiEE8CErBiUC+8rNgeFcGKLeqZTBK0j50m/va3v7n111/f+z7rRRWDyspIFnBpYPBkljlmdYW4quCRyW4EYYB+BEpisQwbNsxddtllflMJDoKEsuPg7rvvLsurZFe3ci8CIiACIpAgAswBrrnmGr+DJe77uJYVGv9rXpCgilVWRUAEqkZAAlbVUFaWkK24EANryJAhPrgn/2vXrp2fRG633XZ+l0KsYOww/+nK7qyrReC3BBhAYYHFYYIHLoRYBCKucmjglMyWQ6wV6u7dd9/1Vp933HGHe+mll/z/qNvNNtvMHXvssW6TTTbJ1bHqOpl1rVyLgAiIgAgki8B7773n+vbt66ZOneqefPJJt8oqqxT0xNC7OVl1q9yKgAhUh4AErOpwrEoq5vv+/PPPu4MPPti99dZbuW2TscAiyPugQYPcLrvs4t17FIuoKtirmkho3VLVhOuUmAWIZJdMRNRQwMKNrEuXLt6FUG2vThVS5dsQW+OFF15wV155pXv00Ufd9OnTfQBhcws97LDDvOUV8fcQyHWIgAiIgAiIgAjUjwCbqLALMOMsFq6Jkctidr5DAlb96kV3EgERiA8BCVjxqYtcTrCQmDRpkrvvvvu8dcQrr7zigzqaRRbbrbKl6qqrrupWWGEF16NHDy8sYJ3VoUMH/6LDksJ+MD/mJ7ScMQFCQkT1G0AtdwkpNu1wF6JyBji0N7bytt2RoISogRWWHeWkW33a2UnR3Dn5pI8wwdt2riJuGcIj9cbnDz/84KZMmeJXcT/88EM3btw49/rrr/tt26lXzicNrOrYYXCfffZxa621lndXjh6q6+y0M5VUBERABESgvgRsbMd7mhi4Y8eO9e9nQjaMGDHCbbXVVhKw6lslupsIiECMCUjAinHlMEn94IMP3OOPP+7uuusu99prr/n4WLbFMlYT/I6oQHBthCt+ELhC8QpLCn4QsTii4pVErMKNIBSC8m1NXc+JPfeqx/bYhe5h7aQeeYjxY1nXrBVqfyZa8b31B3wiXPFDPzFjxgwfWw9BywRwGyTTdxDPrF+/fm6HHXZwa665Zk74zlfAerbzugLWzURABERABESgwQTsXX7BBRe4008/3S8y2ZiLXYAvvvjivDuT693c4IrT7UVABBpCQAJWQ7AXd1MmpAhPCFnfffede/XVV72YhRXF559/7gMus1OJxbThXJvMhkKVWW6Ed9VLr7g6CM9qtIBldVqsgGR1XOz5cStr6TWU3ivy1aG5+OV7vq2t8Ml5uH9iadWtWze31FJLud69e7tevXq5nj175qzqmhIo1V+kt22pZCIgAiIgAo0nwIYqffr08dbSdvDu5b09fPhwH5cyfLdHf298CZQDERABEagPAQlY9eFc9l3yuYLNnDnTEeQREYs4Rbz02DEOVyHcg7C84Bw+Q4strDDCn0rdzMouVIourPfEPipkmFVWU+JaqQJWvjJF20qpaaaoyutalKh1pG3cYLsSmWswFlX84G6w4IILendiPomVt9hii7lFFlnELb744m7JJZf0v1vMq7oWRjcTAREQAREQARH4DQHG5sS9Ouuss7z1VfTo37+/35EwuiN5vcegqjoREAERiAMBCVhxqIUm8lBImAitLsz0mBegHdHv8/2f/+nlF/MG0KDsWbtT+2hQBeS5bb66CP9nv4eilwld/E9B2eNTl8qJCIiACIiACBgB23nwk08+yW3eFNJhQYq4uOwSHB4ao6kNiYAIZJGABKyE17oJVWaJo0lqwis0BtnHao8A4LQts/AhploYwD0G2cxMFixuVbTA4bPf1ICW8xC3Q5dD9ROZaT4qqAiIgAiIQIwJEPqDGFfsPoj1VbgYbdnmnU28yhtvvHGuWFgSsGJcscqaCIhAzQhIwKoZWiUsAskkQGw1gn+HAyd2t+zcuXMyC6Rci4AIiIAIiIAIiECMCCBUIUCxYLjRRhv52FeFYlqSbeJY3nzzza5v3765UkjAilGFKisiIAJ1IyABq26odSMRiD8BBlRsGICAZauAWGFhvs6PDhEQAREQAREQAREQgcoIIFbNnj3bDRkyxJ100klzbcKUL2XEqr333ttbYZkVtQSsyupAV4uACCSTgASsZNabci0CVSdgsdTYDGD69Om5LZwZKGF9hRWWDhEQAREQAREQAREQgcoJvPvuu27jjTf2O4oXOsKYpF27dnUPPvigW3311f2mLRKwKq8DpSACIpA8AhKwkldnyrEI1IwAsRgYSM2aNcubsvM38a/Yxnn++eev2X2VsAiIgAiIgAiIgAhkhQDjqwsuuMCdeOKJvsjFiFEsKPbq1cvdf//9rk2bNtqcJSuNReUUARGYi4AELDUIERABT8BW+QjizsCKnzlz5vjv2rdv71f7dIiACIiACIiACIiACJRPgPHW+++/7/baay83duygx7qZAAAgAElEQVRYP/4qRsDijghXCFhbbLFF0deUn1NdKQIiIALxIyABK351ohyJQMMJhCbrDc+MMiACIiACIiACIiACKSHAboNXX321O/roo3MLhVa05oQsvh8wYIC77LLL/OKiDhEQARHIGgEJWFmrcZVXBIogIAGrCEg6RQREQAREQAREQARKIMAGOR999JHr16+fe+edd3LW7/kErHxjMf5HXNKHHnrIrbfeenIjLIG9ThUBEUgHAQlY6ahHlUIEqkrABk0k2txqYFVvrMREQAREQAREQAREIKUEELDOOOMMd8455/hdCFu0aDGXFVY45mpqMXHHHXd0Q4cOlRVWStuJiiUCIlCYgAQstQ4REAFPgIESAyuLxcAnAUNtu2ZhEgEREAEREAEREAERKJ/A+PHjfeyrN998c67xlo3DLOVCC4k2Rmvbtq2755573NZbb11+ZnSlCIiACCSQgASsBFaasiwCtSCAeDVlyhS/EohoxSpg69atXbt27dx8880nS6xaQFeaIiACIiACIiACmSCA+DRy5Eh3/fXXOzbMiR5ffPGFGzdu3Fz/XnLJJd2KK67oFxjDg3Fa37593QEHHOCtuHSIgAiIQFYISMDKSk2rnCLQDAEGRxMmTPC7D3LwN8LVIossoh0I1XpEQAREQAREQAREoAICLBASwJ0jX3iGe++91+277765OyBSHX744e7MM8/Me1e+Z4doWcpXUCm6VAREIHEEJGAlrsqUYRGoDQEGVRMnTpwrcQZFiy66qB9oKRZWbbgrVREQAREQAREQARG466673O67754DwSLiUUcd5S644ALBEQEREAER+C8BCVhqCiIgAp7AjBkz3DfffDPXjji4EC688MISr9RGREAEREAEREAERKCGBCRg1RCukhYBEUgNAQlYqalKFUQEKiMwa9Ys9/333/u4DBbMnfhXCy20kASsytDqahEQAREQAREQARFokoAELDUQERABEWiegASs5hnpDBHIDAHiX+FKiIDFT8uWLd3888+fmfKroCIgAiIgAiIgAiLQCAISsBpBXfcUARFIGgEJWEmrMeVXBERABERABERABERABEQgVQQkYKWqOlUYERCBGhGQgFUjsEpWBERABERABERABERABERABIohIAGrGEo6RwREIOsEJGBlvQWo/CIgAiIgAiIgAiIgAiIgAg0lIAGrofh1cxEQgYQQkICVkIpSNkWglgSId0Xsq3nnndf/sHXzPPPMU8tbKm0REAEREAEREAEREIH/EpCApaYgAiIgAs0TkIDVPCOdIQKpJvDrr7/6nQcnT57sRSt+ELHatm3rFlhgAQlZqa59FU4EREAEREAERCAOBCRgxaEWlAcREIG4E5CAFfcaUv5EoMYEELBmzpzpvv7667nu1L59e9elSxcJWDXmr+RFQAREQAREQAREQAKW2oAIiIAINE9AAlbzjHSGCKSaAALWDz/84KZMmTJXOTt06OAFLB0iIAIiIAIiIAIiIAK1JSABq7Z8lboIiEA6CEjASkc9qhQiUDYB4l8hXs2YMSOXxi+//OLFqwUXXLDsdHWhCIiACIiACIiACIhAcQQkYBXHSWeJgAhkm4AErGzXv0qfcQJYX/Ezffp070Y4Z84ch3hFDKzOnTu7du3aZZyQii8CIiACIiACIiACtScgAav2jHUHERCB5BOQgJX8OlQJRKBsAohXHPaJNRa/88lOhC1atCg7bV0oAiIgAiIgAiIgAiJQHAEJWMVx0lkiIALZJiABK9v1r9KLgAiIgAiIgAiIgAiIgAg0mIAErAZXgG4vAiKQCAISsBJRTcqkCIiACIiACIiACIiACIhAWglIwEprzapcIiAC1SQgAauaNJWWCIiACIiACIiACIiACIiACJRIQAJWicB0ugiIQCYJSMDKZLWr0CLwHwLEu/rpp5984PZ55pnHx70igLvFvuJ/OkRABERABERABERABGpLQAJWbfkqdREQgXQQkICVjnpUKUSgLAIIWF9//bX78ccfvYDFgYC1yCKLuJYtW5aVpi4SAREQAREQAREQAREojYAErNJ46WwREIFsEpCAlc16V6lFwBMwAWvmzJl+50HEK44ePXq4Vq1aiZIIiIAIiIAIiIAIiEAdCEjAqgNk3UIERCDxBCRgJb4KVQARKJ/A7NmzvQUWn4hZWGHhPtitWzcJWOVj1ZUiIAIiIAIiIAIiUBIBCVgl4dLJIiACGSUgASujFa9iiwAEiH81efJkN2fOnByQNm3auC5duuTiYImUCIiACIiACIiACIhAbQlIwKotX6UuAiKQDgISsNJRjyqFCJRFAOGK+Fd8YoXFDwJWp06dcu6EZSWsi0RABERABERABERABIomIAGraFQ6UQREIMMEJGBluPJVdBEICeBCSBws3AjtR4REQAREQAREQAREQARqT0ACVu0Z6w4iIALJJyABK/l1qBKIQNkELO4VCYS/l52gLhQBERABERABERABESiZgASskpHpAhEQgQwSkICVwUpXkUXABCs+sbYK/0bIst0IRUoEREAEREAEREAERKD2BCRg1Z6x7iACIpB8AhKwkl+HKoEIlEUAoSoqVskKqyyUukgEREAEREAEREAEKiIgAasifLpYBEQgIwQkYGWkolVMEYgSQKz67rvvvAUWFlctW7b0Ow/ON998OassURMBERABERABERABEag9AQlYtWesO4iACCSfgASs5NehSiACZRFAwPrss89ysa8QsRCwunfvLhfCsojqIhEQAREQAREQAREoj4AErPK46SoREIFsEZCAla36VmlFIEdg9uzZbuLEiV7A4uCzVatWrkePHrLAUjsRAREQAREQAREQgToSkIBVR9i6lQiIQGIJSMBKbNUp4yJQHgGLc/Xjjz+6yZMnzyVgtW7d2i2yyCISsMpDq6tEQAREQAREQAREoCwCErDKwqaLREAEMkZAAlbGKlzFFQETsKZOneqmT5/uBSwL5t6pUye3wAILCJIIiIAIiIAIiIAIiEAdCUjAqiNs3UoERCCxBCRgJbbqlHERqIzArFmz3C+//JL7+fnnn13Hjh3d/PPPX1nCuloEREAEREAEREAERKAkAhKwSsKlk0VABDJKQAJWRitexRYBs8QyC6x///vf2oFQzUIEREAEREAEREAEGkBAAlYDoOuWIiACiSMgAStxVaYMi4AIiIAIiIAIiIAIiIAIpImABKw01abKIgIiUCsCErBqRVbpioAIiIAIiIAIiIAIiIAIiEARBCRgFQFJp4iACGSegASszDcBAcgaAVwGOcyFcJ555skhsP9ljYnKKwIiIAIiIAIiIAKNJCABq5H0dW8REIGkEJCAlZSaUj5FoEoEiHX1ww8/uBkzZrh5553XtWjRwrVs2dK1bdvWx8DiCEWtKt1WyYiACIiACIiACIiACBQgIAFLTUMEREAEmicgAat5RjpDBFJFACurqVOnumnTpuWCtiNkde7c2bVv3z5VZVVhREAEREAEREAERCAJBCRgJaGWlEcREIFGE5CA1ega0P1FoM4EsMCaMmWK+/HHH70bobkNdu3a1VthyfqqzhWi24mACIiACIiACGSegASszDcBARABESiCgASsIiDpFBFIE4FffvnFTZo0yf3888+5YuE6iIDVqlUr71aoQwREQAREQAREQAREoH4EJGDVj7XuJAIikFwCErCSW3fKuQiURWDOnDlu8uTJXsCygO7EwDIBq6xEdZEIiIAIiIAIiIAIiEDZBCRglY1OF4qACGSIgASsDFW2iioCRgArLFwJEbFmz57t3QY7dOgg6ys1EREQAREQAREQARFoAAEJWA2ArluKgAgkjoAErMRVmTIsAtUjgIjFgYCl2FfV46qUREAEREAEREAERKAUAhKwSqGlc0VABLJKQAJWVmte5RYBERABERABERABERABEYgFAQlYsagGZUIERCDmBCRgxbyClD0RqCUBLLBkfVVLwkpbBERABERABERABJonIAGreUY6QwREQAQkYKkNiEDGCBD/KuouKBErY41AxRUBERABERABEYgVAQlYsaoOZUYERCCmBCRgxbRilC0RqAUBLK6++uorv/sgP+w+2Lp1a9exY0fFwKoFcKUpAiIgAiIgAiIgAkUQkIBVBCSdIgIikHkCErAy3wQEIEsE2HFwwoQJOQGLsrdq1cr16NFDOxBmqSGorCIgAiIgAiIgArEiIAErVtWhzIiACMSUgASsmFaMsiUC1SSAtRVugjNnznSTJk3ySfM/DiywFl54YQlY1QSutERABERABERABESgBAISsEqApVNFQAQyS0ACVmarXgXPEgETsH744Qf3zTff5AQsRK02bdq4bt26yYUwSw1CZRUBERABERABEYgVAQlYsaoOZUYERCCmBCRgxbRilC0RqCYBE7BmzJjhpk6d6pMmmDtHp06dfAwsHSIgAiIgAiIgAiIgAo0hIAGrMdx1VxEQgWQRkICVrPpSbkWgLAImYPFpwhUB3XEpxAKLOFg6REAEREAEREAEREAEGkNAAlZjuOuuIiACySIgAStZ9aXcikDVCNhOhPPOO2/V0lRCIiACIiACIlAsge+++849+uijxZ6u80Qg1QTGjBnjLr/88lwZGZ/17dvX9e/fX2EeUl3zKlytCSy33HJujTXWqPVtlH6dCEjAqhNo3UYE4kbArLLili/lRwREQAREIBsExo0b51ZZZZVsFFalFIFmCNjmOnYacUqj/xNEERCB0gkMHjzYXXTRRaVfqCtiSUACViyrRZkSAREQAREQAREQgXQTqETAitPEHqFBhwhUSiBObbrSsuh6EYgTAQlYcaqNyvMiAatyhkpBBBJBYPbs2Y6fFi1a+B+5Diai2pRJERABEUgtgXwCFmIQMRp1iIAIiIAIiECpBJjfWJgUu1YCVqkU432+BKx4149yJwJVIzB9+nQ3bdo0H0eBHzr49u3buw4dOii2QtUoKyEREAEREIFiCRSywJIlSrEEdZ4IiIAIiEBIYL755vMCVrgQEgpYCqGS/PYiASv5dagSiEBRBAiWi4AVdtwLLLCA69SpkwSsogjqJBEQAREQgWoSCAUsc8Nbeuml3W677dbsbSRyNYtIJ4iACIhAagnkewfwPwSsBx54wPF+sXN69erlbr75Zrf44ounlkeWCiYBK0u1rbJmlgCrEFOmTHEzZszwDEzE6ty5syywMtsqVHAREAERaCyBfBZYW221lRs5cmRjM6a7i4AIiIAIJJIAc5yBAwe6YcOG5QQsFkgee+wxt/nmmyeyTMr03AQkYKlFiEAGCCBgTZo0yc2aNcuX1la6u3fv7tq0aZMBAiqiCIiACIhA3AhEBSwmHghYo0aNiltWlR8REAEREIEEEDABa+jQobncSsBKQMWVkEUJWCXA0qkikFQCdObff/+9+/HHH30gdwQtfnr27Olat26d1GIp3yIgAiIgAgkmIAErwZWnrIuACIhADAkUErBGjx7tevfuHcMcK0ulEpCAVSoxnS8CCSVgAQ3Dz5YtW2o3woTWp7ItAiIgAkknIAEr6TWo/IuACIhAvAhIwIpXfdQiNxKwakFVaYpAgghYgENzK0xQ1pVVERABERCBBBOQgJXgylPWRUAERCCGBCRgxbBSqpwlCVhVBqrkREAEREAEREAEREAEmicgAat5RjpDBERABESgeAISsIpnldQzJWAlteaUbxEQAREQAREQARFIMAEJWAmuPGVdBERABGJIQAJWDCulylmSgFVloEpOBERABERABERABESgeQISsJpnpDNEQAREQASKJyABq3hWST0zJ2BR2YqBk9RqVL5FQAREQAREQAREIFkEQgHL4jFutdVWbuTIkRqTJqsqlVsREAERiAUBdlkfOHCgGzZsWC4/aBzahTAW1VOVTHgB65dffnHffvuto8ILHRK3qsJbiYiACIhAaggw4Wzbtq3/0TsiNdWqgohA3QhIwKobat1IBERABDJBAD1j0KBBXsAKN6qSgJWe6vcC1pw5c9xnn33WZKk0OUlPpaskIiACIlANArwXOnbs6Dp16lSN5JSGCIhAxggUErAefvhhN++882aMhoorAiIgAiJQKQFZYFVKMP7X5yywPv/8c4clFhMSDRriX3HKoQiIgAg0koC5nS+wwAKuc+fOjcyK7i0CIpBQAk0JWLZwqgXUhFausi0CIiACDSAgAasB0Ot8y98IWK1bt3Zdu3b12TCzO37XAKLONaPbiYAIiEBMCfz0009u6tSp/h2BBZYErJhWlLIlAjEnIAEr5hWk7ImACIhAwghIwEpYhZWR3bkELCq8VatWrkePHl6w4if0HS0jfV0iAiIgAiKQMgIIWF9++aUErJTVq4ojAvUmIAGr3sR1PxEQARFINwG0iwEDBiiIe4qrOSdgEQOLCkfA6tmzpyyuUlzpKpoIiIAIVEIAAWvixIk+CVlgVUJS14pAtglIwMp2/av0IiACIlBtAugZ7EI4dOjQXNLahbDalBubXk7A+vTTT71o1aJFC7fYYov5XFmMk8ZmUXcXAREQARGIE4Gff/45J2ApBlacakZ5EYFkEZCAlaz6Um5FQAREIO4EJGDFvYYqz58ErMoZKgUREAERyBQBCViZqm4VVgRqRkACVs3QKmEREAERyCQBCVjpr3YJWOmvY5VQBERABKpKQAJWVXEqMRHILAEJWJmtehVcBERABGpCQAJWTbDGKlEJWLGqDmVGBERABOJPQAJW/OtIORSBJBCQgJWEWlIeRUAERCA5BCRgJaeuys2pBKxyyek6ERABEcgoAQlYGa14FVsEqkygkIA1cuTI3J2Iz6pDBERABERABIohIAGrGErJPuc3AlbLli3doosu6ktFA7BDA4hkV7RyLwIiIALVIiABq1oklY4IZJtAKGDZuHOrrbZyCFgad2a7baj0IiACIlAOgX//+99+F8Jhw4bNpWOMHj3a9e7du5wkdU3MCEjAilmFKDsiIAIiEHcCErDiXkPKnwgkg0BUwCLXffr0caNGjUpGAZRLERABERCBWBFAwBo0aJAbOnSoBKxY1Uz1MiMBq3oslZIIiIAIZIKABKxMVLMKKQI1J5BPwDILrJrfXDcQAREQARFIHQFZYKWuSn9TIAlY6a9jlVAEREAEqkpAAlZVcSoxEcgsAQlYma16FVwEREAEakJAAlZNsMYqUQlYsaoOZUYEREAE4k9AAlb860g5FIEkEJCAlYRaUh5FQAREIDkEJGAlp67KzakErHLJ6ToREAERyCgBCVgZrXgVWwSqTEACVpWBKjkREAERyDgBCVjpbwASsNJfxyqhCIiACFSVgASsquJUYiKQWQISsDJb9Sq4CIiACNSEgASsmmCNVaISsGJVHcqMCIiACMSfgASs+NeRcigCSSAgASsJtaQ8ioAIiEByCEjASk5dlZtTCVjlktN1IiACIpBRAhKwMlrxKrYIVJmABKwqA1VyIiACIpBxAghYgwYNcsOGDXO//vqrpzHPPPO40aNHu969e2ecTjqKLwErHfWoUoiACIhA3QhIwKobat1IBFJNQAJWqqtXhRMBERCBuhOQgFV35HW/oQSsuiPXDUVABEQg2QQkYCW7/pR7EYgLAQlYcakJ5UMEREAE0kFAAlY66rGpUkjASn8dq4QiIAIiUFUCErCqilOJiUBmCUjAymzVq+AiIAIiUBMCErBqgjVWiUrAilV1KDMiIAIiEH8CErDiX0fKoQgkgYAErCTUkvIoAiIgAskhIAErOXVVbk4lYJVLzjkfGI6gcDqSQSAM5Ndcju1czlMdN0dL32eNgASsrNW4yisCtSEgAas2XJWqCIiACGSVgASs9Nd8XQUsJj0IA/PNN59r0aJF4ujyQMyZM8cLGi1btnT8Pe+88/pyUDb+toNz+I5yJlUAsfL+8ssvrnXr1rmyJqniqC9+om2Odjh79mxflGj9WNsM/1+LOoTvpEmT3HfffeeWWWYZ36Z01I5AKQImueD8jz76yLeT5ZZb7jftvxZtonalr27KErCqy1OpiUBWCUjAymrNq9wiIAIiUBsCErBqwzVOqdZNwEJEGDVqlPvggw/cJpts4tZcc804cSgqL+PHj/dbcC6++OJu22239aKITWJHjBjh3nnnHZ+OiVoLL7yw69evn1twwQWLSj9OJzF5R1h58MEH/WefPn38JD4pk3azjhszZox74YUX3Iorrui22GILX2cc06dPd//7v//rJk+e7P82cWOppZZyW221lWvbtq0vq5W32uXmfp9++qk7+uij3TfffOPuuOMO16NHjzg1gVTmpRQRC5Fmv/32c++//7678cYb3e9///uatokkAZeAlaTaUl5FIL4EJGDFt26UMxEQARFIIgEJWEmstdLyXDcBa9asWe7Pf/6zu+eee9z555/vjjjiiNJyGoOzhw8f7gYNGuS23nprd8stt7h27drlxA8muohYTJCxWJo5c6ZbZZVV/P8QRZJ4TJw40e2www7uk08+cddee63bfvvtc0JPtQWdavMxAeucc85xZ555ptttt93cNddc4y3JOL766iu37777enHLrLFoowh11113nRcpa+lGOGXKFPe3v/3N3XDDDe4vf/mLO+uss1zHjh0TaeVW7bqrVXrU+RtvvOGWX355t+SSSzZ7G55j6uiSSy5xm2++uf9ExLUj7s9AswWs4AQJWBXA06W592ahZyjse5vCleVnMOnNyN7Rb731llt11VXnKg5jrL///e+xWDArti0mvT6qmf9in2s9v9WkrrREQASMAP32wIED/VzdvKPobzBC6dWrVyzeLaqtygjUXcC699573QUXXOAOO+ywynLegKsRsBCq/vSnP7mhQ4e6BRZYwOfCJnNMkH/66Sf3+uuvu2OOOcb97ne/84MwxJAkHl9++aUXrXCjQtTh9yRN3unATMDaddddvVhkbnrUGdaAU6dO9UV67LHHvLCKUEFZe/bsOVeVVWOgRX7oSLn3//zP/7hTTjnFrb/++r4tLbbYYupQa/iQwH2dddZxTJawdkOYba5OzUruuOOO85aIe+yxh7voootcp06dfE6bu76GxWl40hKwGl4FicwAorBZwYYFqEQkyPJzmMhG8N9MU+f8YIG12mqrzdWnYgX98MMPJ7l4ynuEgD3joRV0+Oza/3lX5+sjBLQ+BOy5xJMk7Jf53bxLSrFkJ9eV9O/1KbXukiYC1q9gcDJs2DBvVGJjdgSszTbbTMYCwXu4nPlMGELJnnG4l9o3VNLu6iZgIezQmBCwLrzwQnfooYdWku+aXGsrgoUSLyRgcb49IHTw//jHP9w222zjrTUYhC266KI1yW+tEw0FrOuvvz5RFlj2QBUSsOxBs09EDSyhUOax1KqFgGX19cwzz7jtttvOde7c2bvVLrvssjkxpJ4Pf63bT5zSp7P9wx/+4CdLPMc77rhjswKUCY4ff/yx22uvvbz4dfPNN/trwwF2FifQErDi1Lrjnxd7lrA8/eyzz7zb9LRp09y3337rfvzxRzdjxgwfq9DiLtK+iD3H35r8xL9+S82hTZL5pE3cd999uSQYQ/H+xQqrkX2r2l2ptfp/51OH/PCetN+py/nnn9/HhcUSvkOHDq59+/b+h7EQITcIo0DIDc6NTpDKz42uLJVAOBdibvPDDz845gMTJkzwYTfor+2Hvpq+2+IAc374E8YGLjUfOl8EyiFgMaiZi7/33ntzxafu27evDAYCqOGzbtxM0LI43vTX9NutWrXy4XXwPsNjqEuXLq5r165e46APN4G7Xn13wwSsQw45xA9Mv//+e9/Z8RIDTlMDFjpIBrsMbIHZpk2bnEtYKEgA34J3cx4/3ItOGCGN6yzGUVh5Bj38H+fjWsaLGHdARLioBVZUfXz22We9KxquSlhg5ROwwnvY75SNe5E3GoyxiAprlA0G8CJffI/LItdzHSyrMfDjhYWlillgIbpwb+JHkT6NmDwUOsiX1RnXYf1E2QpdQ5loC9YOqA/uxbXcq5hA8twThvxwv8suu8y754UWWFGu3OfOO+/05qYIWM1ZYFl9WJsi39E6y8eEstHeEcoeeugh79p47LHH+lPDwbLlj3yRNn9TFhvUMenjsGcmvFc0Hf4mhpnVl8Vta06sNTdYPnleqBPaF9dTD3YfOJM231vnFeaH54cjfLbztWeeTctjMRs8wIY2z/35Pdq2bIJE++OgHBtssIF7++23/YoM1oThM0LejXG07kgL4erAAw/0YuP9998/lyuhdfb5xEfKxb2x1qzGM1nOy7wW10jAqgXVdKRp/SLWrV9//bX717/+5V13iSGJaMVzS79gIhXPh01yQmHDfjcq9nzlExYkNiSz7YQrttESxKW/VNsqvW1Z3fEZ/d0mSTY2t4kR4hY/iyyyiF9swmIaLwYmSVg9h2Pi0nOkK4ohQL/M4gKiMn32K6+84j/xLrGxPOfY/MoWHcK+2p4XLT4UQ1zn1IKA9Tthu6y3dVAtylXrNMO+mnvZQn04t6G/5v/M6fihX2b+y8LDSiut5OObr7HGGr4fX2ihhXJaSy3yXlcB64ADDvDWDxdffLEXRnDLeemll7ySj9hDwPO11lrrNxM9YjE9/fTTXknFGoJBMOofbldMSjfccEP/Nx2mNVKU1+eee84H7ia+ApZQ/I/Omfg3G220US6ot01cGUjbJJx7ER+JAM7cnwpi9QHhAesqJsHmQhgVELCwwQS+kIAVFRlwZSNvTK55UeByuPLKK3uhjBd3OOEnj48//rh78sknPcN1113XPfXUU+6RRx7xbLp16+b++Mc/+tVLVrgqOUzAIl1iYGHmz+T9tdde85wpH9YoK6ywQo675ZW4WfAnsD3ByhE/yA+77W266aZu7bXXzomPlse7777bT3KITYVgBWtYIgIsvfTSnillyydwIPTA78UXX/R1xsQJdtz/iSee8PvC4GoAACAASURBVDGwQhfCKBfujXsoecParJAFlnWI5JM2iUUPghL548GlzgoJIbRPYsAh3lLH3DOMjxYO9sgf4t1VV13lO4F99tnHtz/aMe2StIixRhugHjjCCR48xo4d655//nnPlLRp9wwKjSFtPTpJYJACL9o/wiX1xnOGyk6d7rTTTr7uOLgHrpAMdhD/YBCKg6SFyx0C2P777+/r1J5R7s1zT/2+/PLLvs6oV9pS7969/TMb1nP4zJAvngHq1tx2ef5hSmw9fuf8zz//3LtnUgb+5pml7zDryLCzJu977rmnFwWjzzPXcp+//vWvbuTIke700093xx9/fLMB/nlusOZDQIQP7SNcja7k2Wz0tRKwGl0Djb9/vok9bZ2NM7Aspf+n7zFLKnIcDizt71CgCvuj8PemRAQJDI1vC9XMQRyEK7WpatZo82mF44awn+BdznuT8TqbPzH2YCwe7Tuav4POyEfA2jmLCq+++qqfSzD+Y4zJuImDMYuN28JxpqWX73mNznFEXwQaQSBfO8y30NyIvMXxnlHjgrBfbuqZDvsIW6BgfkqfzQ86DXNI6z+q9Y6vq4DFJPauu+5yBx10kDdDRaBA1KDwTBAp8OWXX+7jAoXg2C0O8Yv/MRlG/WNQjHCAiIQ7Iru5WXwjOlsmmcQ0YqLJhPef//ynt4SgEpjEMlFFSNt9993nug6LDgbfWO4gLHEvJtKsOmA9Q0fPDoS33nprQQELYQMBqSkLLKtIBvunnXaaFxsQXFA0uQ/3Q7A5+eST/Q56djBxxHKHslFG8sYOaYg8/E7ZyPOJJ57oJ/PFWLMUepBMwEKAwmoIMQTBEXbw5174El966aW5PMKXVZkrrrjCWz6ZxQ51Q94pW/fu3X25cMuyOiMP/E1dX3311V6gwFeZ76lPhEfEHgQTBI7QF58XLS6AXEeezZoGhuSR/CBONCVgISwhnDUnYFEG4mVRNkQX6owyGnes1E466SQv+kQP2tbgwYN9PhBDEHfMxD5fHVBmdr5DmKE9nn322X5gAX/KhHBEfhFmYGptCh6IY7jqIuQhgFl9oZLDmbaByWf4nFHPuFwi0nA+zxr1SXqIafwPzlizcR3/Z2DJCh2DHn4PXet4PnGjZcBJ+w7vh3jF84dYSFkYqPJJmREPiZGH6GPWeuSDdsAA69RTT3Vvvvmmf/74nu/IG58IuxZonXsi/JEPviNt0uBeoRUZZUEI5jlitTd6cA19B2IY4qMxRyzON4gjPSsfdUbeMFsmfTrxfJZqcXyZNZUnCVhJq7Hq5zcUzHm2sDamHyUGJO93s6oydyFbpWMRg/6KZ4FnkX6GcQCfvK/o8806I9zpN2rNUf0SKUUR+D8CErHKbw220GfvTj75YczAuIwfxqyMK/hkkZjxB/MAxoj8jx/GBBz0A3gysFjNOI2FuLRZNZdPu7wrqSMYs+jL2Ia5CIukMOc7+mAWHemb6acZl2FVwSdjUPjzaZZz5hFibke2WFde7nSVCIhArQlEFw7sncf43n5n7mMW88xhmdvQbzCvYpw3adIkb9zAHNjmiub5QvrM+zB+YS5GjGmbA1VDxKqrgMUuhEyA6RTp+HDHYzLNC4tJP5NTJsc33XTTXNY5CAbEzjKrJiaOTMwRkRA0SA+BCusNO5jkMnmk86VDRoABIAdiANeiDPKJ3z2dLRXFRByrFq4jv4hVAOfFSid/2223ecutaghYWIhgDfLFF19496SDDz7YT6BxQUTUQjAaMGCAzy+Dew4a0hlnnOHFCYStDz/80OcHcZCJO3lktzQsuMirWeeU8yCYgMXKDC8pxA8EGJhg7YRIhhUM/yNPDDLM7Q0+WCchcOF2Rblo5LhiIeBYOU1s4DoEC/LMi5H7UWdYePEwsBscghaC45AhQ/z1Zm1He0HAJH9wROBCtEFgYsMArNsIwF2pgEUeEWs23nhjXx8E98Zqi98RThDlEFYQphBpTXyxB5U2hGspXJnokU7U6iqsJ1xwELA4mPAx2KN88CeODO6HiKyUnfZuB/FEGORhcQU3nhtElAceeMCde+65vtO58sor/bNneeNeiFo8n9QZ98GMn+sY2CDYca/bb7/ds+Q6xFyUdZjAmMFlVMBissrzSRuifuw5Q4SlnWJpxe+I1nSA1CX/5/lDmEMs4oA9HSXPJPfq37+/O+qoo/xgiucbtliNkQfqns6XDpb/mQUIdcUzR7/AeTbI5pMBGs9TPvdWW31kYk57pAPHEnG99dbLMY92xnTw3AeRjvxRPvow4nxIwCqnN9I1cSPAc8OAhvcUwjd9oA16EK0Q3un7saqmL8F6gnd3PsvPuJVN+REBEagdgUKr+YzBWXBmoQ7XY8ZTvMNZrOM73rMI3CwAMjZm0duCjVdjQlS7EscrZVgyPmdRjUVE+nETreij6bdXX311v7CHWMhYstjwE/lKKjE4XvWv3IiAEbB5NH8Xek4LzVnC0A/MKxHD8ajB9Zj5N/MtCzND2sxF0QuYD5klrd23nP67bgIWhWDyyQSYDhIBhkkohQIOlje8lOg4sdIKd+5DtDGrmrDZMeFlUoq1DoIPE1oTBJjQM6hmFQERg/MQzbgfE246ZiatuDDhZ8/BKjKiCRN9JtHkByHFwDK5pwyoiCa0RB8D0i/GAotJLXnEeok0ERbMxYo0aAC4VFJ2fucFwgFHxCIssHiRH3744V54gCkvGFaxEHB44cNxyy23LPtJNQGLBkl9EBuKspuggLBGXogbhTAFTw5TbMmfCRr2kJA/BBAEDUQuBEs7GJAgwMEB1yvc1eAPK0QL4hbBAddThBHS5AFBVCBd8sM1TJ7soaBdwBbhqxQBC1EzKi4h2NDGeOHTprD8MwsyyowFwi677OKWWGIJb6VldWZlf/fdd/1gAEsyLNmaix9G+0ZUoWNAiDTrM+NPfVD3+Bsz2OM+rGRibYbrDtaM8LBnjM4GrpSBjgRBBVbkHavDvffe29chYjB5t84McQvxF8ss2j31x/NoAhbCDuJzVMBCxKHd0FHhdmrusAycEIlhRxnsOu5He0cY5P88s9QpnMg7bQa+5BeRztyNrXxNNXSuwRUBLlinYSkXPew5j3akJmCRN9o6nTQCJM9nvmuMGwNv+iCeRZgjWPI8JHGHJXtRWXkRBWlrHAjOrLLoyA4B2gP9Eu8v+n4WlKyf4/3De5R+CYGZ/rzQhDU7xFRSERCBUgkwJmeBlxAZjLsQt2xcxhiQyRDjlnAyVOo9snQ+/TZzCOZhLK4xRrG+mcVk+m0WxBnDWjD9LPFRWUVABCojQH+CJRZzc+aGhB9iTmkGAxifMLfDAANjg0oW9OsmYNkuhATLPvLII73gxEvHJoeIPljgIFhwDpYZdlgHi5ARTv6whEAIO++887xAwWqCuWQhDmE1gpUJE38sOnjxcT/idBDzBshMrM1Fj4k1VhWcg2VR1A3MBKxqWGBRuQgBvJARFYidZCvTtoMHbkdwQVBDiDLXScqFdQcTaGIkhe5jvJyI94SFDiIck4lyDxOw2H0NKxksxELRBSsULHUQABEFQpcq6iyc3FMm6g/2WG4hXiHCIcBEBawTTjjBu2phrWJCFAMZXrDcH9ERazvqiQcDdogDiBph3C/ygJslIkK5ApblDSswBCgePCZrlN1iQdk5TOgQSZjYIyghVtlBXhG1EOGIQcWArKkHl7ybBRZ1Siew8847z3UNaeAii9iEWMmzg8iENR4CHM8R7dyeH/LAgAXhBzGJ9o5gxXPEM0mdYLHFoDB0sStGwKIeEKLCMpEuz1AoYNEmGDwxUML68JZbbsn1A8YK12I4swKIWGkuk1gb8n9WZckvgicTZBMsm1LwTcDCchBWpQhYtFsrF4Ir+aPt4tbc1L3hjcjH9ZQhFHPLfSbjcp1cCONSE/XPB/0JIi4Wp1hn0hZYKGJRCFEfC076FXNf5zkwKwlyW85KW/1LqTuKgAg0moBNelgwYXzFGJxxPmMB+hXGFswbGAcx5tHRNAHG9MwfWIhk/kNfzBiR8RhjZCaULCzCPYkLbap/ERCBxhGw/to8bfibOT/W+RhUoLcwJ2JsSMgZxpDMh8sVseoqYDGxZlKNixViiGWaySVWPlh58DuB3qPiAO5AQMANDYsGrkUUw92OaxGDcD+yTtcErGOOOcaLPbZbH1ULQFzsSAuFkN95GZI+lilE0mdgHg3SXk0BiwkAk2Em+QhOWOXYQJ88woGJPhNuJsu4pDFZ5kVuAhZWHVgCmUBhK+C4eiF6YP1iVlHlNOkwiDvxpRBfwoaGxRECFqs1CFgITmEgfAYcWObg3sXvcOcHAQqLKcQS24WP/JkFFq5jWA6xcm8HL1v87xEDsF6ijmBBe+I6hA1EHpso2WelApZNtqgbXBgZLJEH2qoFpbM80h7JO+Ih1l6sDNr1cGEFkQkeVkQMIIoRsGibPOy08VAg5J643rI6yfcMQhh4YA3Bs4WwgxthuDJJGXBDpM3wPCDSch7/Qyylc0EUw7wzHLzwvFEWrLQKWWAVK2DRVrGIQ8BGLMZ6jnyFVmLws7hePCdmuUXbgSvX8tzgV41FFB0hP7ZiCOvo4KtaAhaxuWhniHwIsRb0PTopD/8On+tynsM4XiMBK461Urs8hSI41rBMGLFkpm0zcaRf4z1GnJqmrBIlYNWujpSyCKSJQNRq0/5mAYsQCIzHsfJm3ENoBqxBscpSH5O/FbB4yZyBhVTGQ8wn8IJhMZBFaBszh5NQLTak6YlSWUSgvgTCuQ+GHRgsIGShLXAwh0PfwCioHBGrIQIWpqtY2NhBIfF5RxSg8wwFLDpaYmxgaUVQZgqJFY5ZK2GZg8LH6gHuZ/b/pgQsxBAEECbKTNqx9mJChgUKVhVMikeMGPGb7R+bErDCl20xLoScw4AfNzFWPfK5kzEJRyzhBWPWHog2WEMhyhH7iMqv1REKWFiJIWCFLzQELFZuEN9wR0NgggN55DtiVeEHixAVrsZTZ4g9CHGUzQ4TsGjkWBtZ3C++p85MIEPMwWoO4cUs8BD4cDeLinmVClghW9xcEWEZNJnLZiH2lA1R1YRT2jiWgAgf1DttrVgBiwEaol1UwLJ7m7UbdcPAjskkwhW8wnbJ+fxtloyIi4icPD/EqEFkRNBFkAwtJrDAqpaAxb2Z/NKJYS1HmaJ1xt88j0yM2XUxdE8jr7gMIyLRtoiLxffEwoC3CZ/RgVclLoQhZwaA1CNCFn1MVMAyETn8rNXz2ch0JWA1kn797239Bs8ji0LmysPqGX8TT9L66+izF+2DNCmqf/3pjiKQFgL0J4whGXMy/mMcz4HlJ2NAxvbqY/6vthl70l+zsMkiPWMhvBmYP7CAGG5cExUN09JmVA4REIHGE8DwAKMj+m1zK2TRAaMKNr5rKqxOvtzHQsCiQ8XSIp+AhcCDxQpWO7jRYQETBltmws6Od4gCpQhYpIH1CvGlUAFthzUCyxM4GtclRIBwIoqAhWCDWx4CRGjdlE/AYlUDdyNWpaMHYhyiG/fFjM7icIXnISIwUeRlY4HmbRdC3OLiKmARZwjrMgYWiAr8jsiFmGOiExZbNFpieJUjYOFCiEUOq25Y5JiAFRUQKo2BFYorWGARr4xyIByai2NYZ3Y++UOcsfzwfwZcrHgx2Xv00UeLFrB4qHk+ihGwMK+HBW2aNoJbYfRAROKZY/KJOIZ1IxaPiEHEmcKay/LNteUIWJQX0THqQsi9scBC4EMQRQiy+EpRjjx/xNEJdyIzSy0sDHHTxL0WNri5ch5p84xGd980AQu3Sdoe97YjKjYVGvyST+KLEf+K/JP36KQ92v64RxoH0xKwGj8YqHcOGHDwbOG+w7sJqwcWo3h35bN6tPxJwKp3Tel+IpBeAtaf2KZLjIN5r9MnsZKPt4DFH00vheJLRn/NuJWJI8zYGIgJJKwsnlg43gvHRcXfRWeKgAiIQPME6L8Jx4Mxh1mDEuOZfpu5cSmWWLEXsLBUwr0JSxFcF3DbYiLJZBUBA3dEJpOlCliIQsQywrKFWDtAJX1EMibdCFvmksR3WAxhOQJk3AyxEuJ7O8Igx+SZuExUCgKWBQQPqxY3PybDiGjEsQoDQptFjU1+QxGlUgGLtGxFBosbONiubdGGU44FFmnDBiGQuFQIgSb08R1iCA0XKzvEJdywShWwEP9gS3pYRSEEIpIhMIZuqbi+4eJIHprbhRBxCQEVVzRc/cJNBOzljuUXbnkIM8RRQvQJBwDhhM2ElvB/mL7jnsdGBaRlAeDzPfJcDytcCJsTsEKRBEEHkRdVG8aIUVERxSywyLu5FbKzIdaIuOGyKgdHa9NYR2LZRHso5EKIxSLPqQlH3IPnAKEIV1wL4k5ecA9kgwQCuSO4mZtj1HTd7m/ugPY359mOl9yHrZ9xLURUxCUSATV0P+WeXIvLIm0n3DwgdC3O5/pkdcPAjwPxmoEgnGh3Vt7wWu7F3yaykV/iA5m1VvNdfPzPkIAV/zqqVg5pv7wPeWbpt+gbWFQi9iT9pPUVhQYeErCqVRNKRwREwMbHfPJe5n2MQPPxxx/7cQFjPRbvGAtk/SB8BzFlGXMxJmHsSZgJ4rPa2CXaPxuzNC68Zb09qPwi0GgC1t8QBxwtgHjSzJmYG2OQhEdcc2PKXB/166+//spLgJhEdFhMqs1iqJrmpAhAFgMr6kLYlAUWk01WfXFxwnXIdgXEcgl3J6wgGFwjYNAxF+tCyMQegYPJOYG3KTuiEgoglijEAsIkmRciZm9YbeCaxaSUiboJWKG4BFTKwko1AaoxZaZyeJHapNvAI75hKUOcK8Q3XKqI9dNcwNtKBKzwhU9we8qP2R6Tce4dPXj5IUAwMCjWhZA0GDxgVcYkhxhVViaLfwVHrLMQHnE/saMUF0IELOqM+kN0pM0iKuFKxv+JD0U7wyKHOqG8Te1CSD6Jo4X7KOdh7RQVmBCUsKBCNT7ppJP8bnmcYyKWtT0TTGygZd8jmNKOEV0IOL/BBhvkyh6KlvzTBCxWy4hV0JQFVjjgQCQjj7RlxF3ELCtH6BYY1jVtmvLQeWBVAQuzLMJNDy5YO3GYgMXvtEVcCxFpESMJyE9eKR8WUQi9tDEs1UzAIg8IW7QNni0EYcRbm/xaGzWrKxOD+D/PPIMuE50s3hp8eebIO2IY6n7UWo10eM54HmlzDOoQlEzEozyWh3zuh3zHc0Be6R8QRRGl8g32TIhDUEVAJd/wwW063GSg0S+SSu4vAasSesm5lmeMZxhLWSwPORho8N4KRf6mJkESsJJT38qpCCSNAH0UcwDGFIwrGR+wgVEYZzdpZapGfplzMb7CQg1GzHkYI2PVHo5V7V7qp6tBXWmIgAgUSwCjCBYcmBMy76IPJ0SLGdU0J6LHwgIrXwwsrKKYeDNxx9SViespp5zi3Z4YUOPLzSAaUYEJONZMCDE2CSX2EbGi8gVxx4IGE2PcE5lY4+7FdcQ2QpTAAgchA4EJ6xHifvA/YgMxieW70AKL+z/33HN+Qk9ZMGdmwopwxaftgMiAP9xdEXctBCLygShG5WE5w8Qa0QyFksnv5ptvnpv4cg8L4o56iRteKQcvNa7D6osDQZAYY2G+LD0ELKxkbKfEaAwsdrxj5QsuCDLEwOJg4o6lEsIF9YBVEwHziYuFEEj9McjgO6za7AgFLMQGE15oxGEMLKzmELCoM9Iij1gGIJiQHyyWuA8vayyYqA92ncPax9LElZE6s4P2hDsiHHjhExeA+/LSN5c6hBnaAnlDKKHNUW9YsZEu8ZkQfBB/cEM1F1S7B2XAMg2rMcQexLVQVAofVgYTtAtcXamjUMDKZ+5t92CgQhwILNuwVkT8ZXdArAARl4gdQbtC4GEiauIaLrrEHSOP1AliEGVB1KL+ETgJAhoKWPDAcg2RjLrm+YQ39YPwzGASzjxDiM0WjJ02TL64lnpEIMM6ChGSZ4k65Z6UncEWBzyoRwLJ47LE/UyAIp+I19QN1mP0C1Hxketpo/CnL0FEpY54Nq0PQbAuZCXF9dQbbRQRkrYVDeIfDgSpB0Rp2hIHzwaMrS2V8szG8VwJWHGslerniWec/oRnm2eTxR76d9pxubtUNTcoqX4plKIIiEDaCJg3AWMo3rcsvDGuIiQCY1Ibx6et3MWWh7ESYzMW3Bj7MSZjDG/W69H+O7oYX+x9dJ4IiIAIlEOAPgdjB7xZ2LCOfgpPGuZnHM2NFesqYOGCgFsTliFhEHcyioUHogcCEOcwSTRR6YwzzvCTUgQmAjZTaIQYxCzcuLAeMRcxJqd8zzX8IEghZIWuQkzSEZNIj90GEcvMZA1BC0sxdmhjcosYwiAeEQ1rJVaiEQSIt8XEHMCIAuSFF6dZivA79zTLJibUVBK+56HYwCSeCQKVh1CB6MF1vJCZJK611lre+ql79+7+XiZgIX4QAL0UActe+IgS7P6HOEZsKl50iDDRg10DENXwoTcLrPAcrNRMwKLOYMo9sOZDQMEyh3IjBtmWvbiq4XrJChkuKBbEnet42cIVc2fua9Z23NN2IaT8iFWIGCa+PPHEE96iBtcx3BXtxYwlEqIIQhmCDAIW9cl1CEJhHCQEQ8QW8kudkQbnErQbIdMGSZzHQIm4a4hytAHc1fiedkK7xH2U+jEX09C66LrrrvOiBkIP6URdFUMRJBSwcH2j7Tf3QHM97ZEA+qSPws11CDMwZhJKPnn+aMu2IQLlQnDh2aRdIM7wP0RY6sjEx1DAIj1EO1wvqQNYIN7BAIGYOuY76g4BK+RBHrHUQ2jke661eF3UMQfiL9dbR0Z74xmy58SeTfJJv8FzSZoI0vk4YQFIfSI+cQ/yQ1r8n36EuikUZwyRi36GNkTbZkIfCon57mc7jSLk0S/BAMEujOlVTqcfh2skYMWhFmqfByw66YsRr1kV45nmGSxXvCpmUFL7UukOIiACaSAQWq4zjmBjFcbTHCz8Ml4pdtyUJh6M+xhP4y3AGIcxLGzC0ArFjCXTwERlEAERiC8B5qPoBxgb4aWEFoGnDAYMzfVRdROwyCQuCGy9jXsdk00OewERxwarJoQbhIcwCCOTXawrcBdjwszEE/cd0sFKiEklQg+WMSYWMNkl6DZWFljmmEUG92PyhcDAxBWlD3HIJpXcH4sOrC0QlZhYkzbWNggzrGKwukMezc0KIYz0eIEWOrg/k2QmA6FIQX5w90IAQDSjAjkXIQvxBZc48o8yyUH+KBfxurBsQhAq9jDXJpghYmGJgwURFkzcMxrDBNaUlzxhnRO10sJVC6sW6gMeJpKQDtcgzmFlBmcsgBD5+IEr11F/uGxaO0BwwXoHMdIs8Kxs1BkvYMqA8ILAwn1MeMSEnDqjjqgzxEZcC7Ha4f+4c+JmipDAQ4GFDyJUUwcCCcIlcY84zJ2N3ykXdUAMMwYLpAsHBB/aNtZNdq9w0oYYiNsdghQWX4i6JsRF80J7QuQjHYSXaFynfHknLZ412iSCCVY/5I9niHRIgw6CciGihcHOcbvkGeU64qMhttC+ENkwx6c+QwHL6g0hD4EZ60TaJ+nSruiAKCN5oXOiTYdm6ghPWL6hwFNvWF5xDnnkWvKIGGX8uA99BOVBiKNdUV4GqFhwcT7tIhrAPeSEEEXfQP3RRjmXeqa+bAfDKFfqnWeOdkkdMyi02GJ2br6OlrJi8UWe6WMQy+nXmuuUi32eG3meBKxG0q/PvRH0mfjQV1Pf9FXsfkv/WsmRhvZfSfl1rQiIQG0IMKZFYMe6nvEoi1KM++hzSgkOXJvc1T5VG19hfYanBWMvLMuJUUq/bXOAQmPO2udQdxABERCBuQlgNMEcF12C+Rh6CwYVzcUNrpuAFWbXYiLZBJgJNwJKU50r12DZwblMOhF0bCBsIlg4MLb4OFzH9+Gk1u7DZ+gLbp2/WSoxwbZ7mWWXBXMOrytnQB4GfTcOpM09SZtKDMsYbfDlmPuG4gEsEQEswLqxCO8T8sj3wrPvLah+GGTbmCAyMPmhIZrgZIJEoTLZjlZRrhZ83HhZnsJ88MJGjEQE4Xurf7tnaA1VTL1Z2wrZWb5J28Qi7omgaRZe0fq1e1E2JoS4zWFFRiwlNg0o5ojGR8t3TdQqiPtZHk2sMeG10D1pG3A0azZEH1znsKgzAStkZ/dkwsthcZ7C/IaDx5Cl8aWd0B7hZ/mM1o/VJ50dbYp8ci6il8UiC/uWfOUL2zT3hE9zzxqWcKxmInwRUwKxtjkLFLN2gxsCKjHYiMmWltVgCVjFPLHJPuepp57yk0GEXoL/skGEWb5WUrJi+t1K0te1IiAC2SRgq/m4EvLeRrxhNd/CDWSh72EcxaI3cWXwJmChlsW38MgCh2w+ASq1CCSTAEYdCFcY9OAJw3jTNkorVKKGCFjJxKtci8B/CIRm64WY5BOwTDzB0gnLP9znsO7CZRL3nObEl0bxxzIK916sIEMBK6mDoGLqz85BlMPtF7cEBsPE2UOEKnRwHTEncL9l0wlcGrGkxEJttdVW85cllVtYZglYjXoa63NfxGHc7wmoiViLGz6WrwjG+QIA1ydXuosIiIAINE0AzwEWCFkcZGGLkAFYkmfBAgsBD8EOy28Ww7GEZ8zGYmQx4x61LREQARFoBAGEdxb5CfmDYQEeV4TbweCi0JxJAlYjakr3TD2B0N0wKlowkMDdDhEL1zR20uRhjesOdfkErCwMBqlDYr8R8wqXRoRG3CrzHSZOMvGnA8ZtEMs1XBupW9x9zWpLAlbqH/9EF5C2jJsurvO4m+POTdvHnV2ToERXrTIvApkgwIIRltK8a4mFhfW4heFIMwAs59lkihAJjDfY3Masr9R3p7nmVTYRSDYBxHfiW+PtQngiNr569tlnfQibQi7PErCSXefKfUwJhG5yheIjEWuKlUJWCbHG4kGNo3WDCVjsOsnAMIw1F1P8VckWKwL9+vXzseKwvEKMUNZ2lgAAIABJREFUKiQ+hQIW4hVuV8SMW2eddbw5bKHdJquS0QYkIgusBkCv0y1Z/eI5Z6dQ6plNTYhHwISoqfhydcqebiMCIiACTRIgpi7CFXFliYvJ2IWNodKweNRUwYkhi6U44RGw+CbsQaGNadSEREAERCAuBJhDER7mwAMP9MI7cyY2dWMhopD4LgErLrWnfKSKQFMxyuxhZKKI0syqGVYOFvQ9boMsgskTBJQg6jvuuKO3QsqCBRYNks0BbDdQi4NXSJAstgHHrX6LzXd4ngSscqgl4xrqFpEaFxysENnYgQ0OONLQdpNRC8qlCIhAOQQYX+E+xw7dbDrBe/vaa6/1i4VpPig3C21stsHY8uSTT3bHH398ky44aeahsomACCSPADGD2TSOgz6bPk0CVvLqUTlOMIHmBCybDHJeeG5cJ4gW08ssieKaz2o3mabqMbxXviD/hfKSBnYSsKrd0uKTHvHb2C2WnVqJ9/biiy/+ZtfN+ORWOREBERCBuQkg4BDEnJ2usaQ+8sgj3RlnnOE3fEnrQTlPOOEEN2TIEL+JEZsFYYWWlcXGtNaryiUCWSLAjvRYyxKCBQ8WgrljRZpv3iQLrCy1DJW1bgSaEj5sZ8Q4ugvmA2QimwZChZuPBKzCge3r9tDpRlUhMGbMGD/xIxhynz59vDthUxsXVOWmSkQEREAEqkSA9zG7WW233XbejXCLLbZwN954o99QJa2xoAhbQLyrJ5980ocvGD58uFtppZWqRFTJiIAIiEDtCXz77bd+07C///3vPqwOm1BsuOGGeW8sAav29aE7iMBcBJImYKn6micgAUsCVvOtJBlnIFgRSJOgmqeddpobPHhwqi0XklEryqUIiEApBIjduffee7vHHnvM9ejRw8eDQtCJ627PpZQtPNfGHoR42GSTTXzMzu233967TSr+VblUdZ0IiEAjCGBJyq7vbJ7FxmbshE0/nu+QgNWIGtI9M01AAlb6ql8ClgSsNLRq+ia2MiZ2CgerYFgvKHh7GmpXZRCB7BDAzZ0dnhFy2IACy9J11103dQBs7DF+/HgfuJ2/Dz74YHfppZfmdj5OXaFVIBEQgVQSoP8aPXq023rrrb3b4DnnnOMXUW0X97DQErBS2QRUqDgTkIAV59opL28SsCRglddy4nUVG0oQR+XKK6/0q19PPPFEJnbvilctKDciIALlEghdBE8//XQf+4r/4YqCix1HGuJQhnyI+XX//fe7XXbZxU/0Tj31VB/EPW3lLLdN6DoREIHkEHj55Zddr169/AZnbEpx/vnn+/Fo9JCAlZw6VU5TQsACojO40AAjHZUqAUsCVhpa8jfffOOtFu68804ff4Dt51dccUX1U2moXJVBBDJG4JprrnGHH364356dSdAxxxyTOgKMJykfiw5YKhCr9KqrrnIHHHBA6sqqAomACKSfwFtvveU3oCCuH6I8fdtCCy0kASv9Va8Sxp2ABUWXgBX3mio+fxKwJGAV31rie+YXX3zhBgwY4C2vcEdhVX+JJZaQgBXfKlPOREAEChBgS/Y999zTCzyIO4hYvKvTtCENAtaPP/7o4xXi/s248t5773U77rij2oUIiIAIJI4AO2D37dvXvffee26zzTZzQ4cOdYsttpgErMTVpDKcSgJp3QknlZWlQv2GAPFFJk6c6P+/wAILaJe6lLQRBg677babGzt2rNt44429JdYiiyySktKluxj2TuETlyJcidJq4RsuGLDZAOVMc3nT3XJrVzp25GNH1Z9++skL8zfccEPqgrgjYM2cOdP9+c9/9v01x+OPP+569+5dO7BKWQREQARqRIC5xbbbbuteffVVt+aaa7q7777bLb300hKwasRbyYqACIhAZghIwEpnVb///vt+B6u3337bB29nR8J8ptvpLH2yS8Uk1qxLWrZsmeoAzraT3Pfff+9eeeUVN3XqVB+rDWtBDi0QJbstVyv3zz33nHdFQcBCmL/jjjtS2TZmzJjhdtppJ/foo496dM8//3wqA9ZXq10oHREQgfgSwHVwhx12cPTf7ByLJ8Dyyy8vASu+VaaciYAIiEAyCEjASkY9lZpLhCssFrDE4vOWW25xnTp1KjUZnV9jAmaBZBZWWCGxcyQuoFhEDhw40E9g02qBZXjZYpty0x9ttdVW3gKlTZs2/uu0l73GTSwVyb/22mtuo402cgg82223nRsxYkQqyhUtBOXbcsst/YSP480333Qrr7xyKsuqQomACKSbwJQpU7wL9DPPPOOWWmopvxs2sVijRyaDuDP4Y0UGM3t84Vu1apXq1cp0N3WVTgREoN4EJGDVm3h97jdu3Dg/EcKEm+CZN954Y97dX+qTm/jcZcyYMe4f//iHzxDWTbDJZ9JezRybFRGrkePHj/dJt23b1q211lo5gcZEGp7Htdde209cERyvv/56v4KZVBEHa7J3333XMZBt0aKFL3O7du18ueGCBRYug7iFER+DcRyurrRfdiuKS3xJ8klePv74Y/f555/737t16+ZWWGGFajYVpVWAwIcffujWWGMNN336dG+JxfbsaTwQsHAZfOGFF3zxsKRddtll01jUVJbpgw8+cMRro39gwt6vXz8/L7X+LpWFbkChkvo+bACqht6S/pox1mOPPeYWXXRR98gjj3hLrOiRSQGLAeGoUaPcZ5995gOD4SrB4CdNgR0b2vp0cxEQgVQTkICVzup94403fNBMXLJ23313L2AhmmT1sB1jcc954IEHcsLRueee64466igvrtTy4P6Yz1MXHL///e/diy++6EW0cDAeFbCuu+46L2AldUzD2Gz//ff3gkPr1q19mUOLEhP3aJ/HHnusFygY8BLjCAusOLgQmpUcn+edd5678MILvSXQfvvt56gfHbUngEUizwztg5h+//znP2t/0wbcge3mKR8WZxyIpUz8dCSDALv9YvFMn84C0l133VW1hSPSLGWToULEmkrHvivmXsWcU+1aC/NX7bSVXvUJsCkFLt8PP/yw69q1q4/pt8oqq0jAggBuEieccIJ3k1h//fVdr169/GfPnj1liVX9tqgURUAEUkZAAlbKKvS/xSFoJhMhBhB77LGHu+mmm7yAkNWDgT9McD9iMszBYJjAogSIxl2vmKMSQYUdxRjMcWBG//LLL7v5559/rttiUb7OOuvkLLBMwIqLJRKZzcegEBdYE5SamD6IhNRBVMAiTWJgvfTSS/6TGFhM2hHtil1pr6Remqv3cNJ49tlnO0RPLMv23Xdfd/PNN+cuLycPzV3T3PfN5T0t30+aNMktt9xyXjjEpRYXu6j7bRrKioCFlSJWi7T9L7/80nXv3j0NRctEGRCw/vSnP/m+C4MKBKxi3y32TrI+NgqsXMHI+tDweQk3CgnvU6yAFfbLhdKydKP5tmvNqrXYchb7LshEQ0tIIRnPsGjHoiHPAQsP7Ir9mzr/9ddff8WV7tNPP/UdHyt7ptyHL+C0NALK9Prrr/vV0yWXXNL7xxPwkE86kPbt28+1upmWciek3SqbIiACCSAgASsBlVRGFhEKNthgAzdr1ixvKYIrWq2tjMrIZl0usfEP4gM/DKpsPICo99BDD3lrtUJWTuH4yYKrN5Xx6ETBJia4lmBdxGECVigqkqdQwOrcubO79tprfQwJDgb8TODJJ254lpemRI7o5AJBkwNrvHBMZMHUo+XKNzkhTheWMKRh+bfJSJQhFiSDBg3yFlhYVBGovZDbXcjZ8lNo8sX3TPY5YIEbYnQiZn+HE6UwPcrA35QjFMuiVg4h51DA2meffbzbox0hq3yTTcsz9+NZ5JyQe1SQ4e/w3nYf2gh1wBg3KwcuqLj6Uue4EiL+plHAok0i8GK5SJtEuNPmG8lp5aGA1adPH7/ZwIILLugLUIz1lPVP9NM84/RtTfVN+fo8szb+7rvvfL9IPxH29dbv5JsTRwUs8kxe0Basn42+A5sTsOz9N3v2bP/82nvD+r4ol2i+wvT5ncUD9A1zzUxO68heTnlXsYBKzELq61//+pfvv6NH5lwIeaAwsz3uuOP8igWDCczT33vvPS9oIWItvPDCnlMpK3nZa2IqsQiIQFYJSMBKZ81LwJq7Xs2VEhN2rJ4YMxBYlAE+Ah9CUVQEsRQ477777vMBxlkgw4oq37mMSU4//XRHaANWGw844AA/6Z48ebK79NJLvfURsSA4mNQgTJkAtPfee7v11ltvLgGLcxAe+T8DQMY2CELcm136NtxwQx/wvKnYn0wasFDnvsTTmTBhgh8PMTb63e9+569nvBQVN5kkXHLJJe6TTz7xeWR8hWU7K6m4pzLBJn/8D0sDuMA1FLCw+sO6jZhjxGLjHrhwIsxxEO4BC3rKw9iNjQaYoGCBxf34f5gefIlBRdgILFSw7uJ/uCbAGZ7LLLNMbmITtRJgwkQ+ECzfeeed3GIvC73knwnnt99+66655hpvCUa5TzrpJC8gwB3XQfI5duxYLzwR44Z4RSaCEccL8YEykHfyBn8G7cQ0Ij4ObQNuiy++uHel4PouXbr8xtKMNOBPncGNtLkGEZT2SBwRXC6zIkpPmzbNt1MmwKzgI4SaKJCWxWnqnPIhbttzSt9hz0s631TpKlVUwBo+fLjr2LFjswIW/clXX33lhf633nrL9zdM/rG+Q/BngYXPpqyoSYP+kTwQa9HaEP0b3klbb7217zOvuuoq/y4j7b/97W+5vie0jEI4JeA26dDXkzb9IO8i0qFMV155pX8/IJBhZYuFZHiY+IVhCX0g/R/PMdfyLPMOpv/j+ugiEe3+zDPP9H0o76m99trL3ws3fN6DRxxxhO+zdcSbgAlY1BvjAyxnMy9g0dhRpxGwTjzxRP9QYYnF6iQDLB4U/rfJJpv4wY0ErHg3cuVOBESgMQQkYDWGe63vGgpYTH4RQgoJNLXOSyPTt9VbxgoM4hlA4zZ4zDHHeBcwBsgMvBn0I0hED65HiDn00EO9NRui1OWXX+5XgKMHz9Lqq6/uxREmDXfffbcfhzBpILQBEwqbdPNpboF83nrrrX6lMoyBhQjGAt1TTz3lhSAmEeFAH/HisMMOc6eccoqfBEStn8gvwtWRRx7pJzbRyQXXM5EYMmSIF6HCMmEJwkSFyQf/RyxBiGIACjM7yDsDU8ZfnGOB1/keUY7dBDmf88ifWQfwPSIMboMIcJyHaMX3fOI6aVZKZpnGJOjwww/3EzxbvQ/TY6JPjComO2G8N84hD4hIBx988FzXh/VB+zjooIP8DxM4yoJYh1jIPXHthKnVXVgXiFK4CxFgnLEpzxpiFZM8dlhEEAutGyzfiG5nnXWW31o8fD5Jm/Hrs88+6++HqIbV0bBhw3zZd955Z/97VqwQsCahHuCIgEX/lsaD8iFU4DrI8yIBK1m1XIqAZf0BfQrPNqIMXkWhZZL1MfTvLIKwABAKYiY6IRTgnvWXv/zFC2EI52F/S19KLEV+OAerKvoc+jXOs3dHaBjCO8f6x9CiFOEIcZ2+lHwjbOEeT8gCO8g3bRjRn76L/HHQx9l7jPcKeTn55JP9hhj2PuRaBDzey/xOv0wcxUMOOcSXjet4X5hlcrJaSLZyy3iGcQ0CFu8qxg+Mv6JHpiyweAAYJPCwM8DjgWJASsNm0MBLn4cZdZdVSpTmrKxUZevxUGlFQAQqISABqxJ68b0WKxFixTAgxYULQSCpgcDLpWwuWAzmWXU++uijPQNEHwQpBsVPPPGEFzsIIs7kwBiFVh0EFGewTjpNCVh8jwUOVjNYOD344IN+sMYkFFGEyQLfcSD6YGlkEwMskfr27TuXBRZ5YeKCVQaftnsPaWBRxsG4hmtZyAvFDMZHF198sY/XZOIJVkrkD+sqdvlDpKF9MAFhEkEeTUThGqyzELA4cP9jEoJQw8QCSwB2SkQQ5ODvwYMHu9NOOy031kKYYRUfQQ8BgvJQZltxRzwzYRVLhaiAZRZYlIX6wVrAyo1AiAUTaZpFGCzJJ/elniy+GP+nLsgfq/ikZ+IdVmBYZRF6g4Ox4jfffOPLSj4pI8IJ1zHZgj2CJGNQLKeoE9LnXPKHYMnBRAuBFNEPxtwPC6oePXr4HRmxiqMeKCP1ghiFQGb8QwGL9NmJDhGSvHPgioromRUBi2eAOqddEsydOk+L5VXYvyEcY0VIn0H5aCvsRqojGQSKFbCs7TL+uu2229ypp57qFzh47nHVo19hPsvum7QF62NZFEAUQlznIB36F/pH0uBcc/FDCKWPIg36Iw4WaejruC+WTVEBC+tO+jmMQGzxh36LPhBByvpPBCf6L/r1qIBFnohPzfuW2If0lbwf6PvpX+lveX65nv6bfpz+n/xwRAUs0qf/tAUg+kgELN7XOuJNgLrfc889/WIe7ZlFqMwLWGaazeCCVb8//vGPfnDCQ80gEvWWgRc/rNawlSmrcxKx4t3YlTsREIH6EpCAVV/e9bqbBKz/CzbOohaLWQzWGQxjUcUOUcQvQrRhEI0LBPGNmCxGJ8ZMDjivXAGLATliESIK6XAgAjG4R4BgkIcwhPiCQGFB3MkXYxbECgQmJjaMfZhIYAWGxQ/X4sbHCriJJ/wP1w8EMcQWysTqNYKKpUF+mDixOs5EAmGF/GHeT/mjAhb5YMWbhUIYUiYmRZdddpl3ayPfpMFAldhrHIhbCDVcw4IiEw/c/5hYcQ/SxEKe34kVU0jAwnKKSRWiG2IjK7qIkLZqj+B0xhlneDdP8sFECNGRxUvyySSLMSCDZ+6FAAJPBtLwxwIC11IsHBCobOKGKMVEC6GNuofZRRdd5N1NuYYJFPXAQV1hGYFohnXD8ccf79ly4BKGFRzjVL4nj7jAnX/++d4dkTrFeuGee+7xZbJJnFlgkR8T3Lgn/CgDE8KsiNIwRWxE4KH8tIU0Clg8d4gMCLWUj0+LoVSvd4fuUz6BYgUsuwNGGAS5pt+hL+L5xhILoYdnm/pHqKYvQcRljst7iv7QxGvcqembWSjgGhauWNBABKO/4ZnBbfqKK67wc2Oz/owKWIilvGuw+KXtIVyRDhZQ3Is+EMtH+i0sZ+35iwpYnEf/yv34nfcZ/TPPLemwOEA6F1xwgbeKJc9Y1rIAYIsboQUW/SP9Pv0niyqLLbaYT5P3no54E+DdZQIW9Ywmw3sremTKAisqYPGix4SdwRkHAwQGG5it8cmDjA8xAyxTp+Nd7cqdCIiACNSegASs2jNuxB1CAYvBLpPuNE74imGLGx3ucBwMfBnMszKNWyEuFcT4wAqG/5u4EqaL4HXggQeWLWAxcGPcgbiD+MKBAMEkILoLYehCyHnECWG1mfxZMHLSQhhCoLIYSUwW/vrXv/r7EEoBFzNEGeoc0YwJBAKLiTN8MrFh4Q+BjgOhiRherJbznVlgcS6TB6yEEHNMYOH/THoQh5iIILIgAmGtZgcTEcRB6oDJC+0y3IXQzssnYJkLIRM6ysdB/DGstmyiYxZsiGnEMiM+CrwpFxZ2/I6FGm6STKZwm0G4ZJJnB+WALSIb9WMWD0wWmWBSZnPlgSMiFpNJ7hfuQkh6pIMwiRsj8bRIg9he7H4ZHqTHJA6LCsRGVqexoCCv9pyGLoRYYFFuvA2szFlyCUbAYvyOwMPEG2Zp7M8QWxGwEH8pH22olF3siukPdU7tCJQiYNEH0DfSH9FP4X6MWIUgFLZtFhhwRUYU4v3Au4P+knktc2HEfPoG0sOaiX4aV3br6yktfR/90sCBA72FKd+ZgGVufVgp49GEwIQ4xCIAruXW39t7jPcWMaZJh3yGAhbpIqjRd/E9YhPvTxaQwvzQT5p4x7uMRRYWUKxf5p1sLoRcRxgE+l2eBXOxTOPzX7uW2ZiUQwGLHBBDUgLWf4NjmgWWCVgWf4GHmgedl8EjjzziV9FYFSQOBco2D6waf2MatO4qAiIQHwISsOJTF9XMSShgMZFHwMriwVgAAYQ4RLzzGaDjVseBCMHAGMsdBudMAhAlomODSgSs0E0wFLAs/hMCVni/UMBC1MByirhOofU45zOhRyxiUsPffLKCzXmIRggeLOQhWmEhhRBmIgxltzEQLm5YAMCCIOZYZSHuhQIW6eMaiLgStWLnHqykc28mFohguPBZPC0swKICFhMwO0yMiboQ0l5JgzSZ1CD2UBbqCHEuelDPTHrMpRGLeyZPWDAw7mOSRJkR6GgD3Nesl8zVlIkbrM855xw/MQwtsGwSh4CFBQKTSizawl0IrU1hIQET8o6oCDvGnVEBi++xYMPVhvxg6cDE1Had23TTTXMxsJikct+mgjin+fnOioAVtcCSgJWsVl2KgIXQwyIBLn2Is4jhJhiF7wT6J6yI6feIIUS/hbhE/4Nwj2hFP4eVEn0PCxb5vI3o43kXch/SDGNgYVHKuxArUFsAoC/Md9BPIrSxqGPB3S0GFn/Td7OAgGjG4gbhC8ibvX+sbNyTTTLo0zl4z/bv39//Hlpg4TpMnpnna96erOeBOmcxB2txCVj/rbt8Flg8MOF2oZwDPAY1BJp7+umnvYk9K2GY6kvEStaDoNyKgAhUn4AErOozjUOKoYBFPCBzZ4pD3uqZB+J/YLUDD8Qi3COwwrIDFzDCEDBe2Hbbbf0APjr4b5SAhWBDsFwmKuHAnd8RjtixipVwxjnEOSM2CivZlBExhHIwJkIEQ/gwscgmEkxUiEfCZISJMy4jWCFZsGwL4s5YCSstXPzyHTDDTcDiXRB7y1wD81lghQKWpRcKWFglMelBwGIREmsC0iFfxNTKd72lY2UzS3us7Fj9txhcsEHQ4sg3GcIKgPZiMbDMhZDzSbMpAYvvce/keSOfcGPgvv322/8mQLvll7Ep+aH9YWWHmLrqqqv6vJkFFr9jgWbup/V8fuJyLwlYcakJ5aMpAqUIWIg+9BWIlIS6wTrFrE7De9Cv0N9zLtZV/E0MR8RvBC0WHng+EOzpd7BwLST0IC4hhtPfsMiBWz39FP0WFr1YRfE3/RDiU76Dfp6FCfLMeyO0wCKfvK9YrCEPiPB4P5mVl/Wjlj/eN7zHOJjDs/hhizBmgcX7mnKTXx3JIhAKWPxOG2cxLXpk3oUwKmCZuSIqMCo1OyrgI4zSjZ8vD51ErGQ9DMqtCIhAdQlIwKouz7ikJgHrP4ID4goWQFgUEfcKCxcsjOxggYsBFe4OCAgIKWuvvXbue9Jg9ddiYJEWolc+SxieJSYPBMC1IO6hBRZ5wdqJg7hIuGKwmFbIAovYN6xOW7DaUJwhDeIoYZ3E/xGXELsQsBCkWE23yYIVprnVa1z8mMCwMh/GwELoQogpFDSXSRNjKlbU+WSyQbk4KhGwyA8Lj8R3wbIKlxcmbKUEtR4zZozbZptt/CSRiREuhghhHGH8KGNL+kzcsGiwXQhDt8mmBCyb2GHFx8SMNvLwww/7CVzoPsPv5gbDmJTvsbAg/tWIESP8QivnmIBFPmmXsM3qIQErqzWfrHKXImBhRYX1JZZRuA/iLWTCe7TU/B8rW/p43jNYtWD9iWs2/TIWofSPvFMIpVOor6c/oh+x8y2IO/0PYhPvLvpXwu8QQzA8wjR5X9JvEYsuFLAs5lW4yQLzbNt84jfCxf+37rUDd34sgOk3QxdC2LCAwtxdR7IISMDKU1/FWGBxmQWr43weOGJcMLBnRQ6XQoJCMjhobmCXrCaj3IqACIhAcQQkYBXHKWlnScByXrTAXcxcFE455RQ/8Lfgt7z3GcgTs4ndCPk/bnKcF7qXYYHFijfnsgqONYy5yIXtAqsdE7AYW2DNUy0BK3T/M2EKtzoT20IBCwEJiyzKwOSBeCbhCnihtozFFyvnCDZMqswCqxgBi0kUkxcmR0ysqiVgIfAg5BCXit3ZsKDCpaTYg9hclAMBDAELgQ7xsNCYD8EMSzwEz1JdCKkjLBNgz4Ip92DCiFuQCVhRKzhiOTEW5X5M0BCwaDOczwSRHbW5hnrJ8q5bErCKbfE6r5EEogIW8QvDGGZhP44oQ+xmnn1Ea8T2QpsyMJdlIwhc4UmDBQqu5370CyweYLFE/8i7p1D/xkIEAjvnI3ghQHFPE6TYPZC++4EHHvBWvPkELO7P+Wz4gQVvPgELYYyDdwrWuIUErDB9LFXN/Zx+1Cyw6D95B7MopCNZBCRgFSFgEWAUJTt0IeQyhCs6B1YTbRcZVtjYjQYzR0wvGbRKwErWQ6HcioAIVIeABKzqcIxbKhKwnA/0TIwRBtkcrOwyOLdJBO99xggITwzoOVjcIug2kwAOJg5MQrDAwg0Nax5cP0grTIdziWWC2MLqcVMWWFyHGxzm9MQGCY8wBlZogRUVsLgGC6xQwCImFtdY0HrKh3jFZARxpJgd65hwIM6FMbAqFbAQdHATCYO4R8uTz4XQdggkxgsxrGBKPC+szoods3Edgc9xkUHAYoXfLJlIwwQlq2tcZ4jDwoSrVAGLNAhqj0uqxZkhMDIukaFVBGW38lNXCGa0Q1xysNLDEpDDYmCZgIUlWrHljlt/VGl+JGBVSlDX14NAKGBh8YtgVCgIP4smbBqBtSfiPOJ5NFae5Zn+GOEJyyj6DuL0sdiCwI8FMRt38M6i3+G++foJriOuFfEK6W/CXQiZI+M6jfDOdwhlxLiydEILUtvllncP786oCyGLKbwjuZb4m+xkmC8mV7Q+cPGnz+UIY2BJwKpHy63NPSRg5eEatcBCwCJ4KINTXnQMuBj8sGKKIk2nYgNV3An54SFmMBoNolqbalSqIiACIhA/AhKw4lcn1chRVgUsc82CISvUthMdYwKzCuK7qICCgMW1CEDmPmHiBivjLHh9/PHHPs4Ii2D53BkQPxC6EDGYiGCBteaaa+ZEEr5nksCBFRDxj8JdCLkfEwJifrBBTbkCFoN/c4tEIGNSg3sGDEIRi2cflzrcRxgfEQOLHdAYO5XqQpjPAgvGiIcIWOyARbqUGSu1sJ7gUUjA4juKwVVvAAAgAElEQVTGaaNGjfL1x059hIvAoiysQ9KDt638wxABiHNwCSRYPWVEBGJyhrseRzhBY8dqtnO3yReiUxgDi/NxISTGFxZqu+66q3dJDUUw7kGcGSwr+B2xDUEUUSo6qSQN4tFgMUe90DaIVWeipgSs/+sJJWBV462gNGpNIGqBRf9AP25HKARhVcqCCVZQiFxs9oA1MGKP9Y+cj5iOtS1B3LFMQuRByMe1DuGKTyxNWVShD6F/4p6hdxHpIObTF+PezBEKWPRVWCuz2yHGHvQ9iG9YT9n70vovrFmxROZ9RrqhgEW+uY6dj5l/s6ADg3BByPpLLKSx+OI9RF6JdWg75YYuhAhyvMtlgVXr1lv99CVgFSlgMWCwB50HB7NsHujbb7/dr7rxgNJJ8PBgIs+DziAnGoOi+lWoFEVABEQgngQkYMWzXirNVVYFLBtsMwhHVMGFi3EAVjesGBeKe4n48fjjj/uJg+24x7kcTBoYLzBJYHLB4B0hhVghDLwZd3AO4hWWRvxtLoQIWCaUkD5W3wzqGIM888wzuYG9WQORb/JZiYCFCHb11Vf7lW+EOSyQCPgbbl9NHhDiKBfWSZQV10i2WaeM1bDAgiWuJvCCL2Vk4kWwYNuS3QS1QgIW1zB5QVhisob4hYsikx0TsRjbIVwxwfvkk0/8mI7yE1iecrKIiesoQh1jQILaI4LZxJJz+I774D5qk8yogEV5YETdIz4xxqS+Q2s8zmF3Mdob1hGUD0sJXFCZ6FEezmHyhmsrOwti2YegRuyy0G1HApYELO1CWOmbsL7XhwIW1r/0a2ZVFArmJuLQLx9//PFeNMIKC/Gb5976R94lvAsQuumv6fPos7G2JZYjfR/iPlajzHsRv9lpFaGK+1oYHRY1EKe4H9dw2C6EpMn/EPnp/ydMmOD7NBZt6OtYjLF+i4UNFkRsESG6CyHpsoDDggn5JR3SYDdWE6c4h3TICy6DlBHrU1ixsEP/GxWwiBdmIlh9a1R3q4SABKwmBCxWx1CNN954Y//AsppInCseKsy2MT1nxY9BBhM1Vk/xq2WwwAoqWy3n2/WhkgrTtSIgAiKQFAISsJJSU6XlM8sCFu9/yk/AdKymeNez6hy1ggkteHATRGTAnQPrJdw5sI7iHAb3TBjY8pvBNoNyRBiEIVaoGWwjThGaAPGIg8E28Yxsxx0mAO+//74XkRCHmGjgamE7zhHviAkFzyPXsCrPgJ+BezSIu7WE0IWQ8Q4TAkQZys8EgckI4yHuTZqkwz2whGLshGCCmyUTmJVWWsnnFyssDsQixLbnn3/eT6bgg0CU7yCIO99RdqySLAaWWcozRkP4gSXlJx+MvfixNPMJWBYo3yyjcK8jDfLKJA52VhYWKSkLBxZbWFkRK8smioSYGDJkiL8eYYq4WCxg4mJJ/SFymfuMufhRR0wewyDunMNkkTxRP1j4YbWGaIa1gfGjPLjgwJE8YiVBHWNFgGCIGMrEk0kn/JnIscU941Frl6SH9Z9cCJ33rOA5pl1jOUJdp9GdkvLRnuiHKJ8ErNLee40++/+1dybQWlXlH96IswmJQ+IIyArEtAQE1DRLyznNHEJULBUtreVUavlXC80cyqWpoDaItgQ0x5yHzDlQEYc0SnMeQQQUx5T/enZtOl7v5X4ffNM55zlrXT+895w9PHuf/e392+/7bt7pJNAjyvBO8/6nd5o2ZaxgbOX7BW8gDgbBQpXvFtqe8REXc8YFvgfYhEGgZ2xA4MFik/hTSZzi3WDzhDh5CGGMb4yBjLV8DxGYnXGLeHqkyXcM5cgKWHDjWQT1k08+OW584EqOmIaVGOMWwhTjFiId4xZ1ak/A4vdYsRKzi40BDsOgPIxnjLf0bcY1vifIh3qRJ3VI37mMyZSP75BkgaWA1ezeXX3+ClgLELAIyInrIC8zLxoTMC4mlbzETHJ48ZjM8tL3798/7sQxgDA54R6DuFffKX1CAhIoBgEFrGK0Y9talFnAYtJ70kknxTgh9G8WBIgfC7qwoNppp52isIOVDm4PxN5IFkK4eyASsUvNQiO5eKSdaT6xDnrqqafiYhvxBNFn4403jtnydyxtmK9g6ZOsfJIFF2ISFkOUl4UHrhVYeBG8lnKlKyu6tRcDi2e4h8UIdSHYL5ZAlDeJOfw77bqTPwstFlDs6PMsv8PCaPvtt4+iHBflSycotuXIAgshisUIAhZzrewpjenkK/6egsmTD4s0Nhi5F1YIerQdHGCUNhcpN4IFdWHOlwSmbGDgZC2HuIWVVxIrk8jBIg73HIQqniNtWHOlMtHutDkbnklkZOGYTi3kXvKmrikWTQqUz3wS0YrFFnXg9/RBTg1DlOAiz/S31B7kyTyV2DRJfEx8kwUW/8+CEKuGIoo2lYzACliVUPKeZhNIFlgLKgciDi6BrFMZT/g3Yg+iTrKOSuvS9L4zXiDoMJ4gvqexKOXD9wUiPXG10riWLQPpsGGACzUuzWw2JBfCrFUy4hJlwQ2QdBiz+C5J32F8JoEMcZ9xOetCyN/T9+Ppp58e+OF7r73vryTmEdsL4YwxNNWXeJKs18kb8R+xCwEr64LZ7LY2/84JKGC1w4iXmZeLFx/zbF5GduO4mGww+UC5ZuePGAS83MQW6Nu3b5wsYFqJiJVe3LJOCjrvft4hAQkUmQBjJxYBXCymmOR45Z9AmQUs3NYQQZjM8x3PhL0j8SW1NHMK3NQIus3iAZGC59Jpg0zEeE8QtnD9Ip4Iiw0m+FjdsOuOaxonKWEJngKO4w6YnV8glOHKQfwQ0mMnm7xJF/GHCTtzGQQX3sXzzz8/ChdZ4SqVOStgYRWEhRFWQVxpdx5LIcQnBDzmQYhIlAcuWKMzH8LdjcVMEq/4O6ILYg4CE/+POIMQ2F4g+CRQMSeDG/VL4whpMsZQX8I5TJ06Ne7k8/sUB4w0EWiSgMWCBhfAZLmQBCt281NICKzZYJcWerjfIDCSP1YMtFt28UcaLM54nvZD1MtaWmHFjyUEVj6kATfmiMwj2wpYCIPMJ7G6oz2pN3NKFn3ZAMrUG6sHrOiwACRN8oQ9+SBusqGK22B28Zbal9iuWMDRz9icJdh7WeeqClj5/04qQw0YC7E2WtB7ioDFuIonULJiYmxgjGUMQRSiv5MG4j7rVjYT8DJibEsB0ZOYk8Yxvk/4zmIDgfExlYF5HSIQ4xvjJTEBGTvbE7BoI2JcsQmAFSvfGYxjPMeYitUxYxYWZHwfYJHVVsAiX8YsftgAYTOCwypIl7GS8Q8RDIGetLKxqNMmCxZYCFiIYViA4bbId2pZx7+8vjsLLWDx5c+LwpU6eFZFrQRINZ2lvQlWe3lUk2ZHZWRyxkSPSTpm/ai1HEPKS4qbIDEImDigVGO2SJ7sqvHSsktKXIrsyRC1KFNHZa2ESz3zr6Sd296TxzKnfr6g+rYaZ8v8v9aqpM8tTF+u9JlW7BuVln1R7nv33ffCK6+8HObN48hjBaxFYdlKz5ZZwGJuwJyAiTfvNQJTNg5JR+3EIoIfnsGVgYVD23EBAQi3D0QyYoWwi87Emkk8rhIsHMifCT/CR9tTBskb6yYsuigfE3TyYK6GBQ7jIAJY2v1m1zkbBDhbduYzWHzxDPMZ0kiCTlrckDaLIcqLKIXwxv+zm4+1FvFNUhzQ7O425eLetJtO2uSRLJ2y5WDDkBgrLFgoKzyS8Je+45izUWfuTRYCLM4QnrjYpUcM4iIfLNiSWJbmr9QFZvDHtYryJXZYjyEKdXQoT6obzCgrsbIQ0mgf8qJ+tGXqO8nqILlcZutLXagHghj9gXpTDuaelD3LMQln3EtAe/oX5YQRrGiDLNP0PUh61A8XRDiktFtpjGlkWRSwGknbvBaWAOMS40t7Qj9pMnYgQLF5kNyF0/jGuMgYyVjIuM693MeYwvdL+i5J30lZASuVl/GNcYYNEMZ8nuF7jDGHsQZXQgQsxlGsVbFobW9MT+Ms36MpriDiGeMkYy3fYQjviPl8h7BBsummm35s0yCJUQhXlIW6UTbqksrDRgffFdlxj7qQP9+l/B6xi3yzVr0L2z4+11gCiyxgtV0YZsWsxlblf7mlF3BRFo1MrHh58J1lcsrOJxNGOnk63QALLXa5UHB5gYiTwAvECYS81Gly1bYctVxM1zItyrsozCptb8vcGM6p/1XaLp3d14i+Uesyd1anVvx7LcavWter4rafF8K8TObvvfd+XBDOm/dRtN7o0WOFWhfN9JpAoMwCVqNwZ4WKRuW5qPm0XSgsanrNfH5R6pKd41Q8dtagsp31mc7+XoMi5DKJjgSsovEyBlYuu2ddCl1J3+YeBPTkTo1wlo25lV0zci+ueByqwf0EmSdGYhKw2qaTtfQinRRYnvtYRxNDEKtYLIZZW+MSnr3aG1crqVNdYJpoUwhULWChliZzP0wU28Z4qrU40RQq/1WyWXhhwsgOIuaGyQybXTEUbNwBsLjCtBwOmH1jnom/LQJWRycS1YJRIydFtRQVGlnuWnBulKiX7ee1KHcjOdeqfzS6zM0aWyrNN4885n2EgDUvWlx16RLC+++9H2a+8Uac0PzHAksBq9L2b+X7FLBauXUsmwQkUA0BBaxqaHlvWQhgpcUaOJ0uiHcRruxZD6PEAuss4mRx0iHPEevq1FNPnW8Ugbs0MbawLsXiafTo0dGqOF3JogrrKFyacfXGagzXZtLEEqvtlcc5cln6TiPqWbWAxak76XhhlFg6aoqHkBb7lXaqahfq1d6/qABRgtMpLtQpBcmkvvjQEmgTFpxGyN/w5+WFI9YEL2jitKjlaO/5aqw0quFWzb3V1ssyf5xYvVjXi3OthKoF9edKBcNq2VV7f6V9u56sKy1DI+6rnF+XKF795z8hLNa1a7S+mvfRvNDtvxZYCFte+SaggJXv9rP0EpDA/wgoYNkbJPBJAsz7MFoh1iIu0bjnnXXWWTFuIu7U6WLdSxw+jDlw5eNvxF3EnTDNkXmeGFfEB8Rt7/DDDw9HHHFEFMOSeMWaGyMQwvMQcwuNgYNJjjvuuPmxubKlrFRrsG2LSaAqAQu/fTpzOr2l0UgqXUTRqWvRsTsS5ygHprjEG8Dnd/LkyTG2AUExCRxHXAncDjvyU660Ho3mu6CBIQ9lbit+5LHM9RSJatmf6ukWW8typrSq6Qu1GDtqVYdqyl2rPNumUzEPNKt21SkUq3mhe7fu4dMrdK/J2FyvuppuZQQUsCrj5F0SkEDrE1DAav02soSNJ8D8k3cDoYkTaxGYiCtFYHTC57DWJaYW8wFOek0xHg866KB4SiphI7Lzx9NOOy0cf/zx0TCEcDwEa+dgCgw+EME4lRXDEKy1eA43Qg7g4O/tzYUrnps2Hp05NoBAVQJW8k3lofbEmSQcVdqpql2cVXp/pfelclZ6fxIXcIfhhxcOV0IC0XH16tUrBuzkpc2KfPVY7Hfknthen6m2fu3dX00aHfVb+kxHol7bZ6rJL91bj3LTdu0FIawF547Eqmrq3l45KHNb194FjSXV5Me99eBM+arpH9WOjdXUMR01XEke1fSPStLL3kM5stat1T5fi/ursTD7T35tzKv+GxMLXWu55T4VurPbthgbDLUonWk0i4ACVrPIm68EJFBrAgpYtSZqekUhwDwUYQrXwRtvvHH+SbNYRxEgnTkqa2HWxPxu0KBB8ZRXwusw786unzD8QNgi/A6B2rkQspI3F+6D5McznGLIibOc4JriY7VlWqnWUJS2sB4fJ1CVgJVdvHbUcSpdKFbb8SpNNy6hqlgdkW61deGFTYtLXkJiYpEOZpO8iHzyAmZFhGrKVE0n7YxLvfKtpozt3ZvHclvmRW31yp7vjHNlqXxyoKv0uUpF1rbp1bLcrfreVsqw/Xf+P2NzFcPzomTns3UkoIBVR7gmLQEJNJSAAlZDcZtZzggwtyVszuWXXx4tpPj+T+vetGFO3GdcCEeNGhVPQO3IU4sDzxDCsKy699574wFozLlZV5MWp/oShmfkyJHxNNu0sa0FVs46TQOKW5WA1YDytFQWC1qQJjEPISsdiZysotILV40VTEtV3MJIQAISqAOBBW0Y1CE7k6wTAQWsOoE1WQlIoOEEFLAajtwMc0aAuRtWVs8//3w8WRqrLOJUsc7FxQ8PpN69e8fwOZ3N8xCreB5RjE/S43ccDEcaffr0iZ5M2UsBK2cdpgHFVcBaAORKLCqSkMVnstyo3u2mAS1tFhKQgAQkIIEaEFDAqgFEk5CABFqCgAJWSzSDhcgBgWzIlrTWxZBjYTyOUpxprLW4sl5eHbkNZhEV0VMhB12gZYqogFWjpuhMca5RNiYjAQlIQAISaCoBBaym4jdzCUighgQUsGoI06QKTyCJWFkBKWvwUamwhICVDdmRBKz2DmLTAqvw3arqCipgVY3MByQgAQlIQALlJaCAVd62t+YSKBoBBayitaj1aTSBWhpxtJeWAlajW7T181PAav02soQSkIAEJCCBliGggNUyTWFBJCCBRSSggLWIAH1cAnUmoIBVZ8A5TF4BK4eNZpElIAEJSEAC9SLQWfzHKVOmhKFDh8bTeA888MAwduzYehXFdCUgAQnUlYACVl3xmrgEJCCBmhNQwKo5UhOUgAQkIAEJ5JdAJQLWkCFD4slBClj5bWdLLgEJhKCAZS+QgAQkkC8CClj5ai9LKwEJSEACEqgrAQWsuuI1cQlIoIUIKGC1UGNYFAlIQAIVEFDAqgCSt0hAAhKQgATKQkABqywtbT0lIAEFLPuABCQggXwRUMDKV3tZWglIQAISkEBdCShg1RWviUtAAi1EQAGrhRrDokhAAhKogIACVgWQvEUCEpCABCRQFgIKWGVpaespAQkoYNkHJCABCeSLgAJWvtrL0kpAAhKQgATqSkABq654TVwCEmghAgpYLdQYFkUCEpBABQQUsCqA5C0SkIAEJCCBshBQwCpLS1tPCUhAAcs+IAEJSCBfBBSw8tVellYCEpCABCRQVwIKWHXFa+ISkEALEVDAaqHGsCgSkIAEKiCggFUBJG+RgAQkIAEJlIWAAlZZWtp6SkACClj2AQlIQAL5IqCAla/2srQSkIAEJCCBuhJQwKorXhOXgARaiIACVgs1hkWRgAQkUAEBBawKIHmLBCQgAQlIoCwEFLDK0tLWUwIS6EjAKhqZOXPmhN69e4eZM2eGLl26hFmzZoVu3boVrZrWRwISKAEBBawSNLJVlIAEJCABCVRKQAGrUlLeJwEJ5J2AAlbeW9DyS0ACZSOggFW2Fre+EpCABCQggQUQqEbAGjVqVDjvvPPkKQEJSCCXBMooYC222GLhjTfe0AIrlz3WQktAAknAmjBhQoQxefLkMHjw4E+A6TKvsxmtLCUgAQlIQAISyD2Bzr7up0yZEoYMGRI++uijgIA1ZsyYwILISwISkEDeCLzzzjuhZ8+eYfbs2aF///7h8ccfjy52RbuyLoRdu3aNroTLL7980appfSQggZIQ2GuvvcL48eMVsErS3lZTAhKQgAQk0CGBagSs3XffPZxwwglhiSWWkKgEJCCB3BF4//33w7Bhw8Kbb75ZeAGrT58+MfYVFxYLyy67bO7aywJLQALlJsAcdfHFFw+HH354uO666xSwyt0drL0EJCABCUgghGoELCwVOrtfphKQgARamUAax8pggYWAlSzMsKL1koAEJJBHAsw901imC2EeW9AyS0ACEpCABGpEoDNBKutCWKMsTUYCEpBA0wikRVC/fv0K7UKIBRaxr9KlgNW0LmfGEpDAIhAgbAXjlwLWIkD0UQlIQAISkEBRCFQjYG2wwQZhm222KUrVrYcEJFAyAh988EE499xzA66ERRewevfuPV/AOvTQQ6MbjpcEJCCBvBBI1rJ8XnPNNWHatGmx6Fpg5aUFLacEJCABCUigDgSqEbAOOOCAMHbsWIO416EdTFICEqg/gblz54bVV189EOS8TAIWroQGca9//zIHCUigPgT23nvvGMSdOasCVn0Ym6oEJCABCUggFwSqEbA4hRABq4induWisSykBCSwSATefvvtsNpqq5XqFELGa05dVMBapK7jwxKQQJMIME/lFMIJEyYoYDWpDcxWAhKQgAQk0DIEFLBapiksiAQkUGcC77zzThSwsEgqQxD3mTNnxg0HBaw6dyyTl4AE6kYgCVhYYHFpgVU31CYsAQlIQAISaH0CClit30aWUAISqA0BBazacDQVCUhAAo0iwDx1xIgR0QJLAatR1M1HAhKQgAQkkFMCDz74YBgyZEg8AUYXwpw2osWWgAQigY4ErOwR7UVARYwvgrhrgVWE1rQOEig3AQWscre/tZeABCQgAQlURUABqypc3iwBCbQwAQWsFm4ciyYBCUigHQIIWMOHDw+XXnpp/KsuhHYTCUhAAhKQgAQ6JKCAZeeQgASKQkABqygtaT0kIIGyEFDAKktLW08JSEACEpBADQgoYNUAoklIQAItQUABqyWawUJIQAISqJiAAlbFqLxRAhKQgAQkIAEFLPuABCRQFAIKWEVpSeshAQmUhYACVlla2npKQAISkIAEakBAAasGEE1CAhJoCQIKWC3RDBZCAhKQQMUEFLAqRuWNEpCABCQgAQkoYNkHJCCBohBQwCpKS1oPCUigLAQUsMrS0tZTAhKQgAQkUAMCClg1gGgSEpBASxBQwGqJZrAQEpCABComoIBVMSpvlIAEJCABCUhAAcs+IAEJFIWAAlZRWtJ6SEACZSGggFWWlraeEpCABCQggRoQUMCqAUSTkIAEWoKAAlZLNIOFkIAEJFAxAQWsilF5owQkIAEJSEACClj2AQlIoCgEFLCK0pLWQwISKAsBBayytLT1lIAEJCABCdSAgAJWDSCahAQk0BIEOhKwWqJwNSzEnDlzQu/evcPMmTNDly5dwuzZs8Pyyy9fwxxMSgISkEBjCChgNYazuUhAAhKQgAQKQUABqxDNaCUkIIEQggKW3UACEpBAvggoYOWrvSytBCQgAQlIoKkEFLCait/MJSCBGhJQwKohTJOSgAQk0AACClgNgGwWEpCABCQggaIQUMAqSktaDwlIQAHLPiABCUggXwQUsPLVXpZWAhKQgAQk0FQCClhNxW/mEpBADQkoYNUQpklJQAISaAABBawGQDYLCUhAAhKQQFEIKGAVpSWthwQkoIBlH5CABCSQLwIKWPlqL0srAQlIQAISaCoBBaym4jdzCUighgQUsGoI06QkIAEJNICAAlYDIJuFBCQgAQlIoCgEFLCK0pLWQwISUMCyD0hAAhLIFwEFrHy1l6WVgAQkIAEJNJWAAlZT8Zu5BCRQQwIKWDWEaVISkIAEGkBAAasBkM1CAhKQgAQkUBQCClhFaUnrIQEJKGDZByQgAQnki4ACVr7ay9JKQAISkIAEmkpAAaup+M1cAhKoIQEFrBrCNCkJSEACDSCggNUAyGYhAQlIQAISKAoBBayitKT1kIAEFLDsAxKQgATyRUABK1/tZWklIAEJSEACTSWggNVU/GYuAQnUkIACVg1hmpQEJCCBBhBQwGoAZLOQgAQkIAEJFIWAAlZRWtJ6SEACClj2AQlIQAL5IqCAla/2srQSkIAEJCCBphJQwGoqfjOXgARqSEABq4YwTUoCEpBAAwgoYDUAsllIQAISkIAEikJAAasoLWk9JCABBSz7gAQkIIF8EVDAyld7WVoJSEACEpBAUwkoYDUVv5lLQAI1JKCAVUOYJiUBCUigAQQUsBoA2SwkIAEJSEACRSGggFWUlrQeEpCAApZ9QAISkEC+CChg5au9LK0EJCABCUigqQQUsJqK38wlIIEaElDAqiFMk5KABCTQAAIKWA2AbBYSkIAEJCCBohBQwCpKS1oPCUhAAcs+IAEJSCBfBBSw8tVellYCEpCABCTQVAIPPPBAGDp0aGACccABB4SxY8eGLl26NLVMZi4BCUhgYQgoYC0MNZ+RgAQk0DwCCljNY2/OEpCABCQggdwRuP/++8OwYcNiuffff38FrNy1oAWWgAQSgbIKWLNmzQrdunWzI0hAAhLIHQEFrNw1mQWWgAQkIAEJNI9AVsDab7/9ooC12GKLNa9A5iwBCUhgIQlkBax11103/O1vfyukRemcOXNC7969w8yZM2P9FLAWssP4mAQk0HQCScCaOHFiHM8mT54cBg8e/IlydZnHnV4SkIAEJCABCZSagAJWqZvfykugUASyAtaAAQOigFW0iyXcm2++Gfr27RumT58eq4eA1b1796JV1fpIQAIlIJAVsLp27RomTZoUBg0apIBVgra3ihKQgAQkIIGqCbQVsMaMGROYQHhJQAISyBuBrIC1/vrrh0ceeSRvVaiovAhY66yzTpgxY0aMX6iAVRE2b5KABFqQAGPYnnvuGSZMmBCWXHLJ8Ne//jVsuOGGClgt2FYWSQISkIAEJNB0AlOmTIkxsD788MOw7777RhfCJZZYounlsgASkIAEqiXw1ltvhTXXXDMKOl/4whfCQw89VG0SubgfAeuzn/1sePXVV2N5EbJ69OiRi7JbSAlIQAJZAsw/EbAuu+yysNRSS4V7771XAcsuIgEJSEACEpBA+wSmTp0aNtlkk/Duu++GvfbaK1xwwQVxAuElAQlIIG8E3njjjdCrV6/oYscO/oMPPhirkCKnFOWEVerXv3//8NJLL8WYMa+99lpYaaWV8tZcllcCEigxgTQuI2Dtscce4corrwxLL710uOeeexSwStwvrLoEJCABCUhggQQQsDbeeOPw3nvvKWDZVyQggVwTwBKpT58+UcAihsoDDzwwX7yiYkUSsNZbb73w/PPPxzphibXyyivnuu0svAQkUC4CCFj8fPDBB+Fb3/pWuPrqq7XAKlcXsLYSkIAEJCCB6gk8/PDDYbPNNgu43mDCjQXWMsssU31CPiEBCUigyQRefvnl0K9fv/VIVNYAABPZSURBVChgDR06NMZSKZr1FYgZrwcOHBj++c9/RuIvvvhiWG211ZpM3+wlIAEJVE4gCVhsoGKB9ac//Skst9xy4e67744u4G0vTyGsnK13SkACEpCABApL4LHHHgtbbLFFwPVmt912C7/97W/jBMJLAhKQQN4IPPfcc+Fzn/tcFLC+9KUvhb/85S+FFLDmzJkTx20saFkEPvnkkzGou5cEJCCBvBBImwtz584Nu+++e7jhhhvCCiusEO64447AIRwKWHlpScspAQlIQAISaCCBxx9/PHzta18LWC58/etfD+PGjQvdunVrYAnMSgISkEBtCEybNi26DnIa4Ve/+tVw4403xoRZKBXFfZD6zJ49O2y33XbzLcweffTRgEuhlwQkIIG8EWA823XXXcOtt94aevbsGT8HDBiggJW3hrS8EpCABCQggUYQeOKJJ8IOO+wQnn766bDNNtuEP/zhD55m1Qjw5iEBCdScAC7RHEqBgLXjjjvGmCpFdCHEYoENh9tvvz0stthi4f7772836HHNAZugBCQggRoTmD59ehSw7rzzzhjD8Prrr4+u4G0vXQhrDN7kJCABCUhAAnkkQAyVb37zm4EdfFxSxo8fH1ZdddU8VsUyS0ACJSfA6VVYlCJgEdMPQZ6raBZYCFj77LNPuOqqq2LdcJXcfPPNS976Vl8CEsgjAU5T3WWXXcKkSZPCBhtsEC6//PLQt29fBaw8NqZlloAEJCABCdSbwDPPPBNGjBgR7r333jBs2LAwceLEsNZaa9U7W9OXgAQkUHMCxFBBkH/33XfDd7/73XDOOecUUsBCoDvkkEPChRdeGAWsa6+9NroUeklAAhLIG4Fnn3027LTTTiFZ0F5yySVh7bXXVsDKW0NaXglIQAISkEAjCHAM+/777x9uueWWsO6664ZrrrnGYMCNAG8eEpBAzQmw8Nlvv/3isezHHHNM+NnPfjbf+qpIMbCwwDr99NPDiSeeGD788MNAvTmG3ksCEpBA3ggQuxCXbw6jIHbh73//+3ZPVdWFMG8ta3klIAEJSEACdSAwY8aMcMQRR4SLL744Bs+86aab4ileXhKQgATyRuCMM84IRx11VBR1zj333HDAAQfEKiBeFUnAwsIM98iDDjoo1vWss84K3//+9/PWXJZXAhKQQHjooYfC1ltvHV5//fUwfPjwcOaZZ4YVV1zxE2QUsOwsEpCABCQgAQnEWDEnnHBCOO2008IyyywTY6lstNFGkpGABCSQOwJHH310OPXUU+e71W2//fbho48+KpSAhcsg4/Ztt90Wdt5551i/Y489NowePTp37WWBJSCB8hJIsQnvvvvusNVWW0UxHiH+pz/9afjUpz71iU0HBazy9hVrLgEJSEACEphPgAkEcWIOO+ywOHm47LLL4qKoa9euUpKABCSQGwKIOrhDT5gwISy77LLhjjvuCAMHDozlL1oQd+qE282gQYPC22+/Hb7zne9EqwU2ITiV0EsCEpBAHgj8+9//DpdeemkYOXJkFKxOOeWU8IMf/CCOY22tZhWw8tCillECEpCABCRQRwLpeHlOsmLyQFwVJg7sfnXr1q2OOZu0BCQggdoRYCzjJKs99tgjcBLh+uuvH6644or5J1kVUcB64YUXwrbbbhsee+yx8KUvfSkGdF9zzTXdfKhdtzIlCUigzgSYd2JBevbZZ4cePXpE129OJGzP5VsBq86NYfISkIAEJCCBvBCYMmVKXAhNnz497uhfd911YZVVVslL8S2nBCRQYgJJiH/00UdjAODXXnstBjT/9a9/HVZaaaVIpogC1htvvBFjfCHUrb766uHKK6+M43eRYn2VuFtbdQmUggBxr3bYYYcwadKk0K9fvzB+/Pjw+c9/XgGrFK1vJSUgAQlIQAILSWD27Nlhiy22CI888khYaqmlwn333RcnEF4SkIAE8kAANxSEnBEjRsSYUCeddFI48sgjw+KLL15YAYs6E+/r//7v/6K7zbhx48Luu+8+v855aDfLKAEJlJvA1KlTwyabbBI4mGLLLbcMV199dXSF1gKr3P3C2ktAAhKQgAQ6JIBlArGvOImQWFj8PydaHXzwwVKTgAQk0PIEGLNmzZoVg/9ecsklMf4VJ/QRyy9dRbTAom7XXHNN2G233cIHH3wQ9txzzzBmzJgY/JhLS6yW77oWUAKlJ8B889BDD40cOITj5z//eYdMdCEsfXcRgAQkIAEJSOA/BLBYuOuuu8J2220Xd8Ew577oootC9+7dC+l6Y7tLQALFIYA4hfvg5ptvHrAmXXvtteNpqr169Sq8gPX000+HIUOGhJkzZ4bVVlst3HTTTaF///4Gci9O97YmEigkAcZtxi0OoLj22mvjXJPxCzfwji4FrEJ2BSslAQlIQAISWDgCLPw4ch73wZ49e4bzzjsvxsXyRKuF4+lTEpBAYwggwHPwxOjRo6PV0T777BPGjh0b3aHTVVQLrPfeey8ccsghccOB64c//GE48cQTGwPeXCQgAQksBAGs/hmrb7jhhvDtb387zJgxI2y00UaBA4WYfypgLQRUH5GABCQgAQmUjQCLwN/85jfRDQd3FBaBHMvOaYS6opStN1hfCeSHwLRp0+J4NXny5LDCCiuEm2++OWy44YYfO42vqAIW4/Y//vGP8JWvfCW88sorYeDAgdF9EissLwlIQAKtSIDxGNHqRz/6Ubj44ovjRimHbiBmLbnkkgpYrdholkkCEpCABCTQigSeeOKJeHwxCyKEK+LJbL311nFykU76UsxqxZazTBIoHwHGJFyef/GLX8Rg5lgj4Y7CMexLLLFEKYR3BCzGZE4j/N3vfheWXnrpcNRRR8Vj6bt27Vq+TmGNJSCBlifA2E38vpEjR4Y5c+aEAQMGROurvn37LrDsuhC2fNNaQAlIQAISkEDjCKRg7r/85S9jEM233norbLrpplHEWmONNRSwGtcU5iQBCVRAgFP4cHkePnx4eOmll2IMqAkTJsQTrcrk+oyIdfvtt0frhRdeeCH07t07/PGPfwzrr7++JxJW0I+8RQISaBwBxquXX3457LvvvuHWW2+Nh04cf/zx4bDDDutUdFfAalw7mZMEJCABCUig5QkgYPHDbtgee+wRbrnllribj0vhCSecEOPJJOsrrbBavjktoAQKT+CZZ54J+++/fwzYjsUVVkgnn3xyPIWwTGMU4/bbb78dfvKTn0TrMxaIgwcPDuPHj49ilpcEJCCBViDA2DR37twoWBGnEAvaLbfcMkycODH06NGj0yIqYHWKyBskIAEJSEAC5SKQ3ATvvPPOeDT79OnToyvhuHHjYkD3FJugTIvDcvUAayuB1iXA+MQCCOsqFj4//vGPwznnnBMICDxs2LBw9dVXxxhYZXKdy8b2wqphp512Cvfff39kRED34447LiyzzDIBa7XFF1+8VMJe6/ZkSyaBchFI4xTj0PXXXx/22muvaOW/0korhcsuuyxsttlmFVnNKmCVq99YWwlIQAISkECnBNIkg938s88+O57sRUB3FoUEeCceFpYO6T6FrE6ReoMEJFAjAklgf/PNN8OYMWPiaXssgnr16hXOP//8GMi8TOJVW6yIe7jkEAcMMQtLNKxnR40aFZZbbrmKFog1aiqTkYAESk4gzRMZl7j4vOmmm8KBBx4YxydcB7EaPfjgg6O1fyVjtwJWyTuV1ZeABCQgAQksiACuhIcffngMDMxEZJ111onuKV/+8pfdybfrSEACTSGAuP6rX/0qxukjaDvCDHH79t5774+5OTelcE3MNLmAY+HAZsOhhx4aF4zwOfroo+P/Y4nlJQEJSKDeBLKWoSm+KuLVQQcdFF588cWYPe7fjN3LL798xcVRwKoYlTdKQAISkIAEykeAScfzzz8fFz8EBGYxtNZaa4XRo0eHHXfcMboWeklAAhKoN4G0GHruuefCBRdcEIX02bNnRwsjRPYjjzwy/rtMgdvbY544YaHGwvCMM84I/JvYMsQyJEYYge6TG2a92830JSCBchJI1rLUHivZK6+8Mrozc8gElvu77rprOOmkk0KfPn3mA8qKXh1RU8AqZ3+y1hKQgAQkIIGKCbDQIVAyu/c333xztHhYZZVV4mlXLByJX8CisZKJR8WZeqMEJCCBDAHcmB966KFoeUWcq/fffz+6nxDjCWGme/fujkEhfIwBlmqnnHLKfBELgW+77bYLxxxzTDydEFdwLwlIQAL1IoA1KK6ChKO48MILw4wZM+K4wwboaaedFtZee+2PxeTLil4dhadQwKpXa5muBCQgAQlIoEAEELFef/31cOyxx4aLL744Lh4JBkzQZKyzNt1007iYNB5WgRrdqkigSQTSIobxhLGHRc/ll18ezjzzzPDkk09GkaZnz57xyPXvfe97usUtoJ0QsQhyjzXWq6++Gjcb+vbtG4466qiwww47zN+AaFJTm60EJJBTAgvatORvWF3dfffdcey56667YixVRPQRI0ZEK342QhfGElQBK6cdxmJLQAISkIAEGk2ACQkLSdx3CJ5MDAMWmEsttVQYOXJk2GWXXcJGG20ULSG4uD9ZZqWyKnA1utXMTwL5IpDiOPH50ksvhfvuuy/Gc7r99tvjSYME+V1vvfWimI4LilfnBFgkjh8/PlpiPfzww/E0QsbmbbbZJp4E9sUvfjEKgozP/N5xunOm3iGBMhNI4zRjRdpo4JPfz5o1K0yaNClcddVV4aKLLoobnlxrrLFGtJbdb7/94qFAbQWw7MbFgtgqYJW551l3CUhAAhKQQJUEmGAwGeGI9iOOOCI88MADMQUmLuysDRgwIAwfPjx84xvfCKuvvnr8fVoMuSiqEra3S6AkBLInVfHvKVOmxJh7uAoSgw8rIoQVfhBc2L0njhNX2WNeVdpFsH6AJScSXnLJJVEM5OLkLyyytt1222gZwRiOSJgduyvNw/skIIHyEGh7wiCxra644oo4vjzxxBPRAiuN0YMHD44WtHxivd/epYBVnr5jTSUgAQlIQAINJ8AO/iuvvBLdeiZOnBgXnMTGYtHDKVef/vSn44mFG264YbSWYOeN33EaFkIXi6Yll1wy/jCZYcHEQjR9thW7FL8a3sRmKIGqCWStp/h3OjodsYQxgx/GCURwPhGmCDDOD66BjzzySJg6dWp49tln4++4j3efcWOLLbYIo0aNitZCjCVcxt2rrongxcmyf/7zn6NV2z333BP/H8bEpYEzY/XAgQPDBhtsEIUtLGo5IYy/YW3LmM0n43Yau5PYlT614qquXbxbAq1AgHE6iUj8OztuMxYjgr/77rth7ty5cezG0gor2TRuP/XUU3E84W+kw/gwaNCgsM8++4Sdd945ugwyx0vfEwu7AaEFViv0FssgAQlIQAISyCkBFqhMWm655ZYwbty4KGSxSE2m5FQruRmuuOKKUbwiVtaCBCwmPVnBSvEqp53DYpeKQFqUMCZkhSwgpIVQWgAlEYuFECcJsuhJAngSphBBGC8I9otV58YbbxzjNVW6S18q+FVUNvF77bXXwp133hljGuKemRadKSnuQ9RCLETESgJWGruTgJWsKdqKV47bVTSKt0qgBQgkq0yKwjieHbcRsPhBwMKyih/G7nfeeecTYzJjwtChQ8O+++4bttxyy7DmmmtG4Sp7LcrmgwJWC3QWiyABCUhAAhLIK4G0UEW0Ij7WY489Fm677bYwefLkuDM3c+bMuDjl72nhxMI0LXKzQldikF34pGfyysdyS0ACnRNIIjdCCSIVJ1NtttlmYauttoqWnFgAdeR20nnq3pElkKzikrDIIpRNCKyyCLhMbEPELX6PqNhWjOyIZlurq6yVhS0gAQnki0B7c6+2G5Pcg0Um4/PKK68cPvOZz8SNBkQrTjnt0aPH/HG7raCtgJWv/mBpJSABCUhAAoUhkJ2EpAULCxl26f7+979HtyDiIiBmcZQyglYStdi54wdxi4uFVRK6kvuRi6DCdBUrUgICWSucrDtwcg9msYNVFdY8uBoTyHfVVVeNCx8+11prrdC/f//Qu3fvDhc+JcBY9yqmcbvt+I3FxXPPPRemTZsW/vWvf8VTC3HnxFWIDQos5vhJ1hhY1CW3I8bv9JN1H617ZcxAAhJYZAKM3WnMZrzGTTiJWFhiptAPWNAjTPHDuI3LMfFOcTfu169fHNuz16IIVR1VSgusRW5uE5CABCQgAQlIoDMCCFMselIcHD6zC560O9c2hk7bdHVL6Yy0f5dA8wm0Pbwh/X9azKSFEgsjFkp8ptgoHS5aunRpfsVKVIIkQrEZwXiNUJXcitq6i4IlLXa1mi1RJ7GqhSTQ3uE7ycKST8br7Ni9IAgKWIXsIlZKAhKQgAQkUGwCabHT2alW9ZjoFJustZNAPglkrTWT+NGeO3G2dorXzWlrx+XmcDdXCbQCgQUJ0s0ak7XAaoWeYRkkIAEJSEACBSfQ0SIoTY4WFPeqWZOkgjeJ1ZOABCTQKYG2Y3elglal93VaAG+QgARajkAz328FrJbrDhZIAhKQgAQkIAEJSEACEpCABCQgAQlIIEtAAcv+IAEJSEACEpCABCQgAQlIQAISkIAEJNDSBBSwWrp5LJwEJCABCUhAAhKQgAQkIAEJSEACEpCAApZ9QAISkIAEJCABCUhAAhKQgAQkIAEJSKClCShgtXTzWDgJSEACEpCABCQgAQlIQAISkIAEJCABBSz7gAQkIAEJSEACEpCABCQgAQlIQAISkEBLE1DAaunmsXASkIAEJCABCUhAAhKQgAQkIAEJSEAC/w+iBUdpxflBvQAAAABJRU5ErkJggg==;" vertex="1" parent="1">
          <mxGeometry x="60" y="70" width="764.48" height="330" as="geometry" />
        </mxCell>
      </root>
    </mxGraphModel>
  </diagram>
</mxfile>
